%TF.GenerationSoftware,KiCad,Pcbnew,9.0.6*%
%TF.CreationDate,2026-06-29T12:17:44+05:30*%
%TF.ProjectId,wled,776c6564-2e6b-4696-9361-645f70636258,rev?*%
%TF.SameCoordinates,Original*%
%TF.FileFunction,Soldermask,Top*%
%TF.FilePolarity,Negative*%
%FSLAX46Y46*%
G04 Gerber Fmt 4.6, Leading zero omitted, Abs format (unit mm)*
G04 Created by KiCad (PCBNEW 9.0.6) date 2026-06-29 12:17:44*
%MOMM*%
%LPD*%
G01*
G04 APERTURE LIST*
G04 Aperture macros list*
%AMRoundRect*
0 Rectangle with rounded corners*
0 $1 Rounding radius*
0 $2 $3 $4 $5 $6 $7 $8 $9 X,Y pos of 4 corners*
0 Add a 4 corners polygon primitive as box body*
4,1,4,$2,$3,$4,$5,$6,$7,$8,$9,$2,$3,0*
0 Add four circle primitives for the rounded corners*
1,1,$1+$1,$2,$3*
1,1,$1+$1,$4,$5*
1,1,$1+$1,$6,$7*
1,1,$1+$1,$8,$9*
0 Add four rect primitives between the rounded corners*
20,1,$1+$1,$2,$3,$4,$5,0*
20,1,$1+$1,$4,$5,$6,$7,0*
20,1,$1+$1,$6,$7,$8,$9,0*
20,1,$1+$1,$8,$9,$2,$3,0*%
G04 Aperture macros list end*
%ADD10C,0.880000*%
%ADD11RoundRect,0.250000X0.650000X1.550000X-0.650000X1.550000X-0.650000X-1.550000X0.650000X-1.550000X0*%
%ADD12O,1.800000X3.600000*%
%ADD13C,2.000000*%
%ADD14C,5.000000*%
%ADD15RoundRect,0.250000X0.625000X-0.400000X0.625000X0.400000X-0.625000X0.400000X-0.625000X-0.400000X0*%
%ADD16RoundRect,0.250000X0.750000X0.750000X-0.750000X0.750000X-0.750000X-0.750000X0.750000X-0.750000X0*%
%ADD17RoundRect,0.250000X0.400000X0.625000X-0.400000X0.625000X-0.400000X-0.625000X0.400000X-0.625000X0*%
%ADD18RoundRect,0.250000X-0.400000X-0.625000X0.400000X-0.625000X0.400000X0.625000X-0.400000X0.625000X0*%
%ADD19C,0.650000*%
%ADD20RoundRect,0.150000X0.150000X0.425000X-0.150000X0.425000X-0.150000X-0.425000X0.150000X-0.425000X0*%
%ADD21RoundRect,0.075000X0.075000X0.500000X-0.075000X0.500000X-0.075000X-0.500000X0.075000X-0.500000X0*%
%ADD22O,1.000000X2.100000*%
%ADD23O,1.000000X1.800000*%
%ADD24RoundRect,0.250000X0.412500X0.650000X-0.412500X0.650000X-0.412500X-0.650000X0.412500X-0.650000X0*%
%ADD25RoundRect,0.250000X0.600000X0.725000X-0.600000X0.725000X-0.600000X-0.725000X0.600000X-0.725000X0*%
%ADD26O,1.700000X1.950000*%
%ADD27RoundRect,0.250000X-0.650000X0.412500X-0.650000X-0.412500X0.650000X-0.412500X0.650000X0.412500X0*%
%ADD28C,0.750000*%
%ADD29RoundRect,0.102000X0.300000X-0.200000X0.300000X0.200000X-0.300000X0.200000X-0.300000X-0.200000X0*%
%ADD30RoundRect,0.250000X-2.050000X-0.300000X2.050000X-0.300000X2.050000X0.300000X-2.050000X0.300000X0*%
%ADD31RoundRect,0.250002X-4.449998X-5.149998X4.449998X-5.149998X4.449998X5.149998X-4.449998X5.149998X0*%
%ADD32RoundRect,0.250000X-0.550000X0.550000X-0.550000X-0.550000X0.550000X-0.550000X0.550000X0.550000X0*%
%ADD33C,1.600000*%
%ADD34RoundRect,0.250000X-0.412500X-0.650000X0.412500X-0.650000X0.412500X0.650000X-0.412500X0.650000X0*%
%ADD35RoundRect,0.508000X-0.000010X-0.000010X0.000010X-0.000010X0.000010X0.000010X-0.000010X0.000010X0*%
%ADD36RoundRect,0.250000X0.445000X-0.457500X0.445000X0.457500X-0.445000X0.457500X-0.445000X-0.457500X0*%
%ADD37RoundRect,0.250000X-0.625000X0.400000X-0.625000X-0.400000X0.625000X-0.400000X0.625000X0.400000X0*%
%ADD38RoundRect,0.250000X0.550000X-0.550000X0.550000X0.550000X-0.550000X0.550000X-0.550000X-0.550000X0*%
%ADD39RoundRect,0.250000X0.650000X-0.412500X0.650000X0.412500X-0.650000X0.412500X-0.650000X-0.412500X0*%
%ADD40R,1.600000X1.600000*%
%ADD41O,1.600000X1.600000*%
%ADD42R,2.700000X3.600000*%
%ADD43RoundRect,0.250000X-1.550000X0.650000X-1.550000X-0.650000X1.550000X-0.650000X1.550000X0.650000X0*%
%ADD44O,3.600000X1.800000*%
%ADD45R,1.700000X1.700000*%
%ADD46C,1.700000*%
%ADD47RoundRect,0.375000X0.625000X0.375000X-0.625000X0.375000X-0.625000X-0.375000X0.625000X-0.375000X0*%
%ADD48RoundRect,0.500000X0.500000X1.400000X-0.500000X1.400000X-0.500000X-1.400000X0.500000X-1.400000X0*%
%ADD49R,0.900000X1.500000*%
%ADD50R,1.500000X0.900000*%
%ADD51C,0.600000*%
%ADD52R,3.900000X3.900000*%
%ADD53RoundRect,0.250000X0.450000X-0.350000X0.450000X0.350000X-0.450000X0.350000X-0.450000X-0.350000X0*%
%ADD54O,3.500000X3.500000*%
%ADD55R,2.000000X1.905000*%
%ADD56O,2.000000X1.905000*%
%ADD57RoundRect,0.201000X0.201000X-0.886000X0.201000X0.886000X-0.201000X0.886000X-0.201000X-0.886000X0*%
%ADD58RoundRect,0.250000X0.650000X-1.000000X0.650000X1.000000X-0.650000X1.000000X-0.650000X-1.000000X0*%
%ADD59C,0.350000*%
%ADD60O,0.600000X1.700000*%
%ADD61O,0.600000X1.400000*%
%ADD62C,0.200000*%
G04 APERTURE END LIST*
D10*
%TO.C,MK1*%
X140300000Y-88370000D02*
G75*
G02*
X139420000Y-88370000I-440000J0D01*
G01*
X139420000Y-88370000D02*
G75*
G02*
X140300000Y-88370000I440000J0D01*
G01*
%TD*%
D11*
%TO.C,GPIO21/GPIO2*%
X123455000Y-46232500D03*
D12*
X118375000Y-46232500D03*
X113295000Y-46232500D03*
%TD*%
D13*
%TO.C,SW1*%
X107260000Y-80050000D03*
X107260000Y-73550000D03*
X111760000Y-80050000D03*
X111760000Y-73550000D03*
%TD*%
D14*
%TO.C,H1*%
X151100000Y-41920000D03*
%TD*%
D15*
%TO.C,R3*%
X121130000Y-55720000D03*
X121130000Y-52620000D03*
%TD*%
D16*
%TO.C,J2*%
X113670000Y-92600000D03*
D13*
X111130000Y-92600000D03*
%TD*%
D17*
%TO.C,R14*%
X82720000Y-49460000D03*
X79620000Y-49460000D03*
%TD*%
D18*
%TO.C,R1*%
X132540000Y-85650000D03*
X135640000Y-85650000D03*
%TD*%
D19*
%TO.C,J4*%
X138720000Y-43945000D03*
X132940000Y-43945000D03*
D20*
X139030000Y-45020000D03*
X138230000Y-45020000D03*
D21*
X137080000Y-45020000D03*
X136080000Y-45020000D03*
X135580000Y-45020000D03*
X134580000Y-45020000D03*
D20*
X133430000Y-45020000D03*
X132630000Y-45020000D03*
X132630000Y-45020000D03*
X133430000Y-45020000D03*
D21*
X134080000Y-45020000D03*
X135080000Y-45020000D03*
X136580000Y-45020000D03*
X137580000Y-45020000D03*
D20*
X138230000Y-45020000D03*
X139030000Y-45020000D03*
D22*
X140150000Y-44445000D03*
D23*
X140150000Y-40265000D03*
D22*
X131510000Y-44445000D03*
D23*
X131510000Y-40265000D03*
%TD*%
D24*
%TO.C,C7*%
X102962500Y-88440000D03*
X99837500Y-88440000D03*
%TD*%
D25*
%TO.C,MIC1*%
X144500000Y-93960000D03*
D26*
X142000000Y-93960000D03*
X139500000Y-93960000D03*
X137000000Y-93960000D03*
X134500000Y-93960000D03*
X132000000Y-93960000D03*
%TD*%
D27*
%TO.C,C13*%
X143930000Y-56397500D03*
X143930000Y-59522500D03*
%TD*%
D28*
%TO.C,MK1*%
X139860000Y-88370000D03*
D29*
X138530000Y-85210000D03*
X138530000Y-86260000D03*
X138530000Y-87310000D03*
X138530000Y-88360000D03*
X141190000Y-88360000D03*
X141190000Y-87310000D03*
X141190000Y-86260000D03*
X141190000Y-85210000D03*
%TD*%
D30*
%TO.C,U1*%
X86265000Y-69915000D03*
X86265000Y-71615000D03*
X86265000Y-73315000D03*
D31*
X95415000Y-73315000D03*
D30*
X86265000Y-75015000D03*
X86265000Y-76715000D03*
%TD*%
D14*
%TO.C,H4*%
X69220000Y-41920000D03*
%TD*%
D32*
%TO.C,C9*%
X83600000Y-86730000D03*
D33*
X83600000Y-90230000D03*
%TD*%
D34*
%TO.C,C4*%
X70340000Y-72967349D03*
X73465000Y-72967349D03*
%TD*%
D33*
%TO.C,J3*%
X125120000Y-90070000D03*
X123120000Y-90070000D03*
X121120000Y-90070000D03*
%TD*%
D35*
%TO.C,TP1*%
X99850000Y-85910000D03*
%TD*%
D14*
%TO.C,H2*%
X151100000Y-92290000D03*
%TD*%
D36*
%TO.C,100uf1*%
X146360000Y-59340000D03*
X146360000Y-56635000D03*
%TD*%
D37*
%TO.C,R7*%
X138230000Y-49160000D03*
X138230000Y-52260000D03*
%TD*%
D18*
%TO.C,R24*%
X130040000Y-56650000D03*
X133140000Y-56650000D03*
%TD*%
D34*
%TO.C,C2*%
X116767500Y-70140000D03*
X119892500Y-70140000D03*
%TD*%
D27*
%TO.C,C6*%
X96050000Y-81997500D03*
X96050000Y-85122500D03*
%TD*%
D37*
%TO.C,R8*%
X132040000Y-49205000D03*
X132040000Y-52305000D03*
%TD*%
D11*
%TO.C,GPIO2/GPIO3*%
X106965000Y-46232500D03*
D12*
X101885000Y-46232500D03*
X96805000Y-46232500D03*
%TD*%
D35*
%TO.C,TP4*%
X124380000Y-78810000D03*
%TD*%
D38*
%TO.C,C5*%
X72260000Y-68660000D03*
D33*
X72260000Y-65160000D03*
%TD*%
D13*
%TO.C,SW2*%
X116010000Y-80120000D03*
X116010000Y-73620000D03*
X120510000Y-80120000D03*
X120510000Y-73620000D03*
%TD*%
D39*
%TO.C,D6*%
X145550000Y-53282500D03*
X145550000Y-50157500D03*
%TD*%
D24*
%TO.C,C3*%
X114272500Y-52190000D03*
X111147500Y-52190000D03*
%TD*%
D40*
%TO.C,DZ2*%
X79910000Y-60880000D03*
D41*
X79910000Y-53260000D03*
%TD*%
D42*
%TO.C,L2*%
X68340000Y-81030000D03*
X76640000Y-81030000D03*
%TD*%
D37*
%TO.C,R16*%
X147950000Y-50150000D03*
X147950000Y-53250000D03*
%TD*%
D17*
%TO.C,R5*%
X135650000Y-88830000D03*
X132550000Y-88830000D03*
%TD*%
D35*
%TO.C,TP3*%
X124270000Y-60000000D03*
%TD*%
D39*
%TO.C,C11*%
X143940000Y-88780000D03*
X143940000Y-85655000D03*
%TD*%
D35*
%TO.C,TP2*%
X100920000Y-81070000D03*
%TD*%
D43*
%TO.C,J1*%
X73382500Y-49330000D03*
D44*
X73382500Y-54410000D03*
%TD*%
D45*
%TO.C,PwrSelector1*%
X80940000Y-42560000D03*
D46*
X83480000Y-42560000D03*
X86020000Y-42560000D03*
%TD*%
D47*
%TO.C,U5*%
X96730000Y-93360000D03*
X96730000Y-91060000D03*
D48*
X90430000Y-91060000D03*
D47*
X96730000Y-88760000D03*
%TD*%
D34*
%TO.C,CP1*%
X90137500Y-81930000D03*
X93262500Y-81930000D03*
%TD*%
D49*
%TO.C,U3*%
X147840000Y-62610000D03*
X146570000Y-62610000D03*
X145300000Y-62610000D03*
X144030000Y-62610000D03*
X142760000Y-62610000D03*
X141490000Y-62610000D03*
X140220000Y-62610000D03*
X138950000Y-62610000D03*
X137680000Y-62610000D03*
X136410000Y-62610000D03*
X135140000Y-62610000D03*
X133870000Y-62610000D03*
X132600000Y-62610000D03*
X131330000Y-62610000D03*
D50*
X130080000Y-64375000D03*
X130080000Y-65645000D03*
X130080000Y-66915000D03*
X130080000Y-68185000D03*
X130080000Y-69455000D03*
X130080000Y-70725000D03*
X130080000Y-71995000D03*
X130080000Y-73265000D03*
X130080000Y-74535000D03*
X130080000Y-75805000D03*
X130080000Y-77075000D03*
X130080000Y-78345000D03*
D49*
X131330000Y-80110000D03*
X132600000Y-80110000D03*
X133870000Y-80110000D03*
X135140000Y-80110000D03*
X136410000Y-80110000D03*
X137680000Y-80110000D03*
X138950000Y-80110000D03*
X140220000Y-80110000D03*
X141490000Y-80110000D03*
X142760000Y-80110000D03*
X144030000Y-80110000D03*
X145300000Y-80110000D03*
X146570000Y-80110000D03*
X147840000Y-80110000D03*
D51*
X140820000Y-68460000D03*
X139420000Y-68460000D03*
X141520000Y-69160000D03*
X140120000Y-69160000D03*
X138720000Y-69160000D03*
X140820000Y-69860000D03*
D52*
X140120000Y-69860000D03*
D51*
X139420000Y-69860000D03*
X141520000Y-70560000D03*
X140120000Y-70560000D03*
X138720000Y-70560000D03*
X140820000Y-71260000D03*
X139420000Y-71260000D03*
%TD*%
D34*
%TO.C,C10*%
X90205000Y-85070000D03*
X93330000Y-85070000D03*
%TD*%
D53*
%TO.C,D3*%
X140950000Y-51100000D03*
X140950000Y-49100000D03*
%TD*%
D54*
%TO.C,Q2*%
X99820000Y-57090000D03*
D55*
X83160000Y-54550000D03*
D56*
X83160000Y-57090000D03*
X83160000Y-59630000D03*
%TD*%
D34*
%TO.C,CP2*%
X99807500Y-91610000D03*
X102932500Y-91610000D03*
%TD*%
D57*
%TO.C,U4*%
X110940000Y-60547500D03*
X112210000Y-60547500D03*
X113480000Y-60547500D03*
X114750000Y-60547500D03*
X116020000Y-60547500D03*
X117290000Y-60547500D03*
X118560000Y-60547500D03*
X118560000Y-55597500D03*
X117290000Y-55597500D03*
X116020000Y-55597500D03*
X114750000Y-55597500D03*
X113480000Y-55597500D03*
X112210000Y-55597500D03*
X110940000Y-55597500D03*
%TD*%
D34*
%TO.C,C8*%
X107995000Y-70230000D03*
X111120000Y-70230000D03*
%TD*%
D58*
%TO.C,D4*%
X80510000Y-74380000D03*
X80510000Y-70380000D03*
%TD*%
D15*
%TO.C,R2*%
X107970000Y-57770000D03*
X107970000Y-54670000D03*
%TD*%
D24*
%TO.C,C1*%
X139970000Y-56600000D03*
X136845000Y-56600000D03*
%TD*%
D14*
%TO.C,H3*%
X69220000Y-92290000D03*
%TD*%
D18*
%TO.C,R4*%
X108057500Y-67320000D03*
X111157500Y-67320000D03*
%TD*%
%TO.C,R23*%
X116740000Y-67200000D03*
X119840000Y-67200000D03*
%TD*%
G36*
X80926061Y-42310597D02*
G01*
X80950468Y-42313001D01*
X80985765Y-42321843D01*
X81036105Y-42342694D01*
X81076334Y-42369574D01*
X81110425Y-42403665D01*
X81137305Y-42443892D01*
X81155757Y-42488438D01*
X81165196Y-42535892D01*
X81165196Y-42584107D01*
X81155757Y-42631561D01*
X81137305Y-42676107D01*
X81110425Y-42716334D01*
X81076334Y-42750425D01*
X81036105Y-42777305D01*
X80985765Y-42798156D01*
X80950473Y-42806997D01*
X80926066Y-42809402D01*
X80913906Y-42810000D01*
X77323552Y-42810000D01*
X73811086Y-46322467D01*
X73802067Y-46330642D01*
X73783107Y-46346201D01*
X73751897Y-46364907D01*
X73695765Y-46388157D01*
X73660473Y-46396997D01*
X73636066Y-46399402D01*
X73623906Y-46400000D01*
X70723552Y-46400000D01*
X68040000Y-49083552D01*
X68040000Y-57076446D01*
X71593554Y-60630000D01*
X79883914Y-60630000D01*
X79896057Y-60630596D01*
X79897500Y-60630737D01*
X79898943Y-60630596D01*
X79911086Y-60630000D01*
X80239589Y-60630000D01*
X80306628Y-60649685D01*
X80352383Y-60702489D01*
X80354150Y-60706546D01*
X80361493Y-60724273D01*
X80368549Y-60747536D01*
X80382813Y-60819246D01*
X80385196Y-60843437D01*
X80385196Y-60916562D01*
X80382813Y-60940753D01*
X80368549Y-61012463D01*
X80361493Y-61035724D01*
X80354150Y-61053452D01*
X80310310Y-61107856D01*
X80244016Y-61129921D01*
X80239589Y-61130000D01*
X80155000Y-61130000D01*
X80155000Y-61223375D01*
X80135315Y-61290414D01*
X80082511Y-61336169D01*
X80078454Y-61337936D01*
X80042896Y-61352665D01*
X80025571Y-61358388D01*
X79972150Y-61371769D01*
X79954177Y-61374888D01*
X79917540Y-61378497D01*
X79911470Y-61378945D01*
X79893034Y-61379851D01*
X79886948Y-61380000D01*
X79779000Y-61380000D01*
X79711961Y-61360315D01*
X79666206Y-61307511D01*
X79655000Y-61256000D01*
X79655000Y-61130000D01*
X71496094Y-61130000D01*
X71483935Y-61129402D01*
X71459527Y-61126997D01*
X71424234Y-61118157D01*
X71368102Y-61094907D01*
X71336891Y-61076200D01*
X71317928Y-61060638D01*
X71308910Y-61052464D01*
X67617534Y-57361088D01*
X67609362Y-57352072D01*
X67593802Y-57333112D01*
X67575094Y-57301899D01*
X67551843Y-57245765D01*
X67543001Y-57210468D01*
X67540597Y-57186061D01*
X67540000Y-57173906D01*
X67540000Y-48986093D01*
X67540597Y-48973938D01*
X67543001Y-48949531D01*
X67551843Y-48914234D01*
X67575094Y-48858100D01*
X67593801Y-48826888D01*
X67609360Y-48807929D01*
X67617533Y-48798912D01*
X70438909Y-45977537D01*
X70447926Y-45969364D01*
X70466891Y-45953800D01*
X70498103Y-45935093D01*
X70554234Y-45911843D01*
X70589532Y-45903001D01*
X70613940Y-45900597D01*
X70626094Y-45900000D01*
X73526446Y-45900000D01*
X73526446Y-45899999D01*
X77038914Y-42387532D01*
X77047931Y-42379359D01*
X77066890Y-42363800D01*
X77098100Y-42345093D01*
X77154231Y-42321842D01*
X77189536Y-42313000D01*
X77213944Y-42310597D01*
X77226093Y-42310000D01*
X80913906Y-42310000D01*
X80926061Y-42310597D01*
G37*
G36*
X79896057Y-60630596D02*
G01*
X79897500Y-60630737D01*
X79898943Y-60630596D01*
X79911086Y-60630000D01*
X80254589Y-60630000D01*
X80321628Y-60649685D01*
X80367383Y-60702489D01*
X80369150Y-60706547D01*
X80377665Y-60727104D01*
X80383388Y-60744428D01*
X80396769Y-60797849D01*
X80399888Y-60815822D01*
X80403497Y-60852459D01*
X80403945Y-60858529D01*
X80404851Y-60876966D01*
X80405000Y-60883052D01*
X80405000Y-61006000D01*
X80385315Y-61073039D01*
X80332511Y-61118794D01*
X80281000Y-61130000D01*
X80155000Y-61130000D01*
X80155000Y-62298905D01*
X80154402Y-62311064D01*
X80151997Y-62335473D01*
X80143157Y-62370765D01*
X80119908Y-62426896D01*
X80101199Y-62458110D01*
X80085638Y-62477071D01*
X80077466Y-62486087D01*
X77498553Y-65064999D01*
X77498554Y-65065000D01*
X80798906Y-65065000D01*
X80811061Y-65065597D01*
X80835468Y-65068001D01*
X80870765Y-65076843D01*
X80926899Y-65100094D01*
X80958112Y-65118802D01*
X80977072Y-65134362D01*
X80986088Y-65142534D01*
X83957465Y-68113912D01*
X83965639Y-68122930D01*
X83981200Y-68141892D01*
X83999906Y-68173103D01*
X84023156Y-68229234D01*
X84031997Y-68264526D01*
X84034402Y-68288933D01*
X84035000Y-68301093D01*
X84035000Y-69151446D01*
X84533554Y-69650000D01*
X86253906Y-69650000D01*
X86266061Y-69650597D01*
X86290468Y-69653001D01*
X86325765Y-69661843D01*
X86376105Y-69682694D01*
X86416334Y-69709574D01*
X86450425Y-69743665D01*
X86477305Y-69783892D01*
X86495757Y-69828438D01*
X86505196Y-69875892D01*
X86505196Y-69924107D01*
X86495757Y-69971561D01*
X86477305Y-70016107D01*
X86450425Y-70056334D01*
X86416334Y-70090425D01*
X86376105Y-70117305D01*
X86325765Y-70138156D01*
X86290473Y-70146997D01*
X86266066Y-70149402D01*
X86253906Y-70150000D01*
X84436093Y-70150000D01*
X84423939Y-70149403D01*
X84399531Y-70146999D01*
X84364232Y-70138157D01*
X84308100Y-70114906D01*
X84276888Y-70096198D01*
X84257928Y-70080638D01*
X84248912Y-70072466D01*
X83612534Y-69436088D01*
X83604362Y-69427072D01*
X83588802Y-69408112D01*
X83570094Y-69376899D01*
X83546843Y-69320765D01*
X83538001Y-69285468D01*
X83535597Y-69261061D01*
X83535000Y-69248906D01*
X83535000Y-68398553D01*
X83534999Y-68398552D01*
X80701446Y-65565000D01*
X76998553Y-65565000D01*
X73815000Y-68748553D01*
X73815000Y-72841255D01*
X73814402Y-72853415D01*
X73811997Y-72877822D01*
X73803156Y-72913114D01*
X73782305Y-72963454D01*
X73755425Y-73003683D01*
X73721334Y-73037774D01*
X73681108Y-73064653D01*
X73636563Y-73083105D01*
X73589108Y-73092545D01*
X73540892Y-73092545D01*
X73493438Y-73083106D01*
X73448892Y-73064654D01*
X73408665Y-73037774D01*
X73374574Y-73003683D01*
X73347694Y-72963454D01*
X73326843Y-72913114D01*
X73318001Y-72877817D01*
X73315597Y-72853410D01*
X73315000Y-72841255D01*
X73315000Y-68895000D01*
X72261094Y-68895000D01*
X72248935Y-68894402D01*
X72224527Y-68891997D01*
X72189234Y-68883156D01*
X72138894Y-68862305D01*
X72098665Y-68835425D01*
X72064574Y-68801334D01*
X72037693Y-68761105D01*
X72019242Y-68716559D01*
X72009804Y-68669107D01*
X72009804Y-68620892D01*
X72019242Y-68573440D01*
X72037693Y-68528894D01*
X72064574Y-68488665D01*
X72098665Y-68454574D01*
X72138894Y-68427694D01*
X72189234Y-68406843D01*
X72224532Y-68398001D01*
X72248940Y-68395597D01*
X72261094Y-68395000D01*
X73461446Y-68395000D01*
X73461446Y-68394999D01*
X79655000Y-62201445D01*
X79655000Y-61130000D01*
X79529000Y-61130000D01*
X79461961Y-61110315D01*
X79416206Y-61057511D01*
X79405000Y-61006000D01*
X79405000Y-60883052D01*
X79405149Y-60876973D01*
X79406054Y-60858536D01*
X79406502Y-60852459D01*
X79410111Y-60815822D01*
X79413230Y-60797849D01*
X79426611Y-60744428D01*
X79432336Y-60727099D01*
X79440852Y-60706542D01*
X79484695Y-60652141D01*
X79550990Y-60630079D01*
X79555411Y-60630000D01*
X79883914Y-60630000D01*
X79896057Y-60630596D01*
G37*
G36*
X75466061Y-49070597D02*
G01*
X75490468Y-49073001D01*
X75525765Y-49081843D01*
X75581899Y-49105094D01*
X75613112Y-49123802D01*
X75632072Y-49139362D01*
X75641088Y-49147534D01*
X76852467Y-50358914D01*
X76860640Y-50367931D01*
X76876199Y-50386890D01*
X76894906Y-50418100D01*
X76918157Y-50474231D01*
X76926999Y-50509531D01*
X76929403Y-50533939D01*
X76930000Y-50546093D01*
X76930000Y-54616446D01*
X78933554Y-56620000D01*
X82943906Y-56620000D01*
X82956061Y-56620597D01*
X82980468Y-56623001D01*
X83015765Y-56631843D01*
X83066105Y-56652694D01*
X83106334Y-56679574D01*
X83140425Y-56713665D01*
X83167305Y-56753892D01*
X83185757Y-56798438D01*
X83195196Y-56845892D01*
X83195196Y-56894107D01*
X83185757Y-56941561D01*
X83167305Y-56986107D01*
X83140425Y-57026334D01*
X83106334Y-57060425D01*
X83066105Y-57087305D01*
X83015765Y-57108156D01*
X82980473Y-57116997D01*
X82956066Y-57119402D01*
X82943906Y-57120000D01*
X78836094Y-57120000D01*
X78823935Y-57119402D01*
X78799527Y-57116997D01*
X78764234Y-57108157D01*
X78708102Y-57084907D01*
X78676891Y-57066200D01*
X78657928Y-57050638D01*
X78648910Y-57042464D01*
X76507534Y-54901088D01*
X76499362Y-54892072D01*
X76483802Y-54873112D01*
X76465094Y-54841899D01*
X76441843Y-54785765D01*
X76433001Y-54750468D01*
X76430597Y-54726061D01*
X76430000Y-54713906D01*
X76430000Y-50643553D01*
X76429999Y-50643552D01*
X75356446Y-49570000D01*
X73388594Y-49570000D01*
X73376435Y-49569402D01*
X73352027Y-49566997D01*
X73316734Y-49558156D01*
X73266394Y-49537305D01*
X73226165Y-49510425D01*
X73192074Y-49476334D01*
X73165193Y-49436105D01*
X73146742Y-49391559D01*
X73137304Y-49344107D01*
X73137304Y-49295892D01*
X73146742Y-49248440D01*
X73165193Y-49203894D01*
X73192074Y-49163665D01*
X73226165Y-49129574D01*
X73266394Y-49102694D01*
X73316734Y-49081843D01*
X73352032Y-49073001D01*
X73376440Y-49070597D01*
X73388594Y-49070000D01*
X75453906Y-49070000D01*
X75466061Y-49070597D01*
G37*
G36*
X83226559Y-59379243D02*
G01*
X83271104Y-59397694D01*
X83311333Y-59424574D01*
X83345425Y-59458666D01*
X83372305Y-59498893D01*
X83390757Y-59543439D01*
X83400196Y-59590893D01*
X83400196Y-59639106D01*
X83390757Y-59686560D01*
X83369905Y-59736900D01*
X83351199Y-59768109D01*
X83335638Y-59787071D01*
X83327464Y-59796089D01*
X82071086Y-61052467D01*
X82062067Y-61060642D01*
X82043107Y-61076201D01*
X82011897Y-61094907D01*
X81955765Y-61118157D01*
X81920473Y-61126997D01*
X81896066Y-61129402D01*
X81883906Y-61130000D01*
X80155000Y-61130000D01*
X80155000Y-61256000D01*
X80135315Y-61323039D01*
X80082511Y-61368794D01*
X80031000Y-61380000D01*
X79908052Y-61380000D01*
X79901966Y-61379851D01*
X79883529Y-61378945D01*
X79877459Y-61378497D01*
X79840822Y-61374888D01*
X79822849Y-61371769D01*
X79769428Y-61358388D01*
X79752104Y-61352665D01*
X79731547Y-61344150D01*
X79677144Y-61300309D01*
X79655079Y-61234015D01*
X79655000Y-61229589D01*
X79655000Y-61130000D01*
X79555411Y-61130000D01*
X79488372Y-61110315D01*
X79442617Y-61057511D01*
X79440852Y-61053457D01*
X79433508Y-61035729D01*
X79426449Y-61012462D01*
X79412186Y-60940752D01*
X79409804Y-60916562D01*
X79409804Y-60843437D01*
X79412186Y-60819247D01*
X79426449Y-60747537D01*
X79433509Y-60724267D01*
X79440853Y-60706540D01*
X79484697Y-60652140D01*
X79550993Y-60630079D01*
X79555411Y-60630000D01*
X79883914Y-60630000D01*
X79896057Y-60630596D01*
X79897500Y-60630737D01*
X79898943Y-60630596D01*
X79911086Y-60630000D01*
X81786446Y-60630000D01*
X81786446Y-60629999D01*
X82973910Y-59442535D01*
X82982928Y-59434361D01*
X83001890Y-59418800D01*
X83033101Y-59400094D01*
X83083441Y-59379243D01*
X83130893Y-59369804D01*
X83179107Y-59369804D01*
X83226559Y-59379243D01*
G37*
D59*
X123455000Y-46232500D03*
X118375000Y-46232500D03*
X113295000Y-46232500D03*
X107260000Y-80050000D03*
X107260000Y-73550000D03*
X111760000Y-80050000D03*
X111760000Y-73550000D03*
X151100000Y-41920000D03*
X113670000Y-92600000D03*
X111130000Y-92600000D03*
X138720000Y-43945000D03*
X132940000Y-43945000D03*
D60*
X140150000Y-44445000D03*
D61*
X140150000Y-40265000D03*
D60*
X131510000Y-44445000D03*
D61*
X131510000Y-40265000D03*
D59*
X144500000Y-93960000D03*
X142000000Y-93960000D03*
X139500000Y-93960000D03*
X137000000Y-93960000D03*
X134500000Y-93960000D03*
X132000000Y-93960000D03*
X139860000Y-88370000D03*
X69220000Y-41920000D03*
X83600000Y-86730000D03*
X83600000Y-90230000D03*
X125120000Y-90070000D03*
X123120000Y-90070000D03*
X121120000Y-90070000D03*
X151100000Y-92290000D03*
X106965000Y-46232500D03*
X101885000Y-46232500D03*
X96805000Y-46232500D03*
X72260000Y-68660000D03*
X72260000Y-65160000D03*
X116010000Y-80120000D03*
X116010000Y-73620000D03*
X120510000Y-80120000D03*
X120510000Y-73620000D03*
X79910000Y-60880000D03*
X79910000Y-53260000D03*
X73382500Y-49330000D03*
X73382500Y-54410000D03*
X80940000Y-42560000D03*
X83480000Y-42560000D03*
X86020000Y-42560000D03*
D62*
X140820000Y-68460000D03*
X139420000Y-68460000D03*
X141520000Y-69160000D03*
X140120000Y-69160000D03*
X138720000Y-69160000D03*
X140820000Y-69860000D03*
X139420000Y-69860000D03*
X141520000Y-70560000D03*
X140120000Y-70560000D03*
X138720000Y-70560000D03*
X140820000Y-71260000D03*
X139420000Y-71260000D03*
D59*
X99820000Y-57090000D03*
X83160000Y-54550000D03*
X83160000Y-57090000D03*
X83160000Y-59630000D03*
X69220000Y-92290000D03*
M02*
