%TF.GenerationSoftware,KiCad,Pcbnew,9.0.6*%
%TF.CreationDate,2026-06-29T12:17:44+05:30*%
%TF.ProjectId,wled,776c6564-2e6b-4696-9361-645f70636258,rev?*%
%TF.SameCoordinates,Original*%
%TF.FileFunction,Copper,L2,Bot*%
%TF.FilePolarity,Positive*%
%FSLAX46Y46*%
G04 Gerber Fmt 4.6, Leading zero omitted, Abs format (unit mm)*
G04 Created by KiCad (PCBNEW 9.0.6) date 2026-06-29 12:17:44*
%MOMM*%
%LPD*%
G01*
G04 APERTURE LIST*
G04 Aperture macros list*
%AMRoundRect*
0 Rectangle with rounded corners*
0 $1 Rounding radius*
0 $2 $3 $4 $5 $6 $7 $8 $9 X,Y pos of 4 corners*
0 Add a 4 corners polygon primitive as box body*
4,1,4,$2,$3,$4,$5,$6,$7,$8,$9,$2,$3,0*
0 Add four circle primitives for the rounded corners*
1,1,$1+$1,$2,$3*
1,1,$1+$1,$4,$5*
1,1,$1+$1,$6,$7*
1,1,$1+$1,$8,$9*
0 Add four rect primitives between the rounded corners*
20,1,$1+$1,$2,$3,$4,$5,0*
20,1,$1+$1,$4,$5,$6,$7,0*
20,1,$1+$1,$6,$7,$8,$9,0*
20,1,$1+$1,$8,$9,$2,$3,0*%
G04 Aperture macros list end*
%TA.AperFunction,ComponentPad*%
%ADD10RoundRect,0.250000X0.650000X1.550000X-0.650000X1.550000X-0.650000X-1.550000X0.650000X-1.550000X0*%
%TD*%
%TA.AperFunction,ComponentPad*%
%ADD11O,1.800000X3.600000*%
%TD*%
%TA.AperFunction,ComponentPad*%
%ADD12C,2.000000*%
%TD*%
%TA.AperFunction,ComponentPad*%
%ADD13C,5.000000*%
%TD*%
%TA.AperFunction,ComponentPad*%
%ADD14RoundRect,0.250000X0.750000X0.750000X-0.750000X0.750000X-0.750000X-0.750000X0.750000X-0.750000X0*%
%TD*%
%TA.AperFunction,HeatsinkPad*%
%ADD15O,1.000000X2.100000*%
%TD*%
%TA.AperFunction,HeatsinkPad*%
%ADD16O,1.000000X1.800000*%
%TD*%
%TA.AperFunction,ComponentPad*%
%ADD17RoundRect,0.250000X0.600000X0.725000X-0.600000X0.725000X-0.600000X-0.725000X0.600000X-0.725000X0*%
%TD*%
%TA.AperFunction,ComponentPad*%
%ADD18O,1.700000X1.950000*%
%TD*%
%TA.AperFunction,ComponentPad*%
%ADD19RoundRect,0.250000X-0.550000X0.550000X-0.550000X-0.550000X0.550000X-0.550000X0.550000X0.550000X0*%
%TD*%
%TA.AperFunction,ComponentPad*%
%ADD20C,1.600000*%
%TD*%
%TA.AperFunction,ComponentPad*%
%ADD21RoundRect,0.250000X0.550000X-0.550000X0.550000X0.550000X-0.550000X0.550000X-0.550000X-0.550000X0*%
%TD*%
%TA.AperFunction,ComponentPad*%
%ADD22R,1.600000X1.600000*%
%TD*%
%TA.AperFunction,ComponentPad*%
%ADD23O,1.600000X1.600000*%
%TD*%
%TA.AperFunction,ComponentPad*%
%ADD24RoundRect,0.250000X-1.550000X0.650000X-1.550000X-0.650000X1.550000X-0.650000X1.550000X0.650000X0*%
%TD*%
%TA.AperFunction,ComponentPad*%
%ADD25O,3.600000X1.800000*%
%TD*%
%TA.AperFunction,ComponentPad*%
%ADD26R,1.700000X1.700000*%
%TD*%
%TA.AperFunction,ComponentPad*%
%ADD27C,1.700000*%
%TD*%
%TA.AperFunction,HeatsinkPad*%
%ADD28C,0.600000*%
%TD*%
%TA.AperFunction,ComponentPad*%
%ADD29R,2.000000X1.905000*%
%TD*%
%TA.AperFunction,ComponentPad*%
%ADD30O,2.000000X1.905000*%
%TD*%
%TA.AperFunction,ViaPad*%
%ADD31C,0.800000*%
%TD*%
%TA.AperFunction,Conductor*%
%ADD32C,0.250000*%
%TD*%
%ADD33C,0.350000*%
%ADD34O,0.600000X1.700000*%
%ADD35O,0.600000X1.400000*%
%ADD36C,0.200000*%
G04 APERTURE END LIST*
D10*
%TO.P,GPIO21/GPIO2,1,Pin_1*%
%TO.N,GND*%
X123455000Y-46232500D03*
D11*
%TO.P,GPIO21/GPIO2,2,Pin_2*%
%TO.N,/LED2*%
X118375000Y-46232500D03*
%TO.P,GPIO21/GPIO2,3,Pin_3*%
%TO.N,/Vled*%
X113295000Y-46232500D03*
%TD*%
D12*
%TO.P,SW1,1,1*%
%TO.N,GND*%
X107260000Y-80050000D03*
X107260000Y-73550000D03*
%TO.P,SW1,2,2*%
%TO.N,ESP32_EN*%
X111760000Y-80050000D03*
X111760000Y-73550000D03*
%TD*%
D13*
%TO.P,H1,1,1*%
%TO.N,unconnected-(H1-Pad1)*%
X151100000Y-41920000D03*
%TD*%
D14*
%TO.P,J2,1,Pin_1*%
%TO.N,/GPIO*%
X113670000Y-92600000D03*
D12*
%TO.P,J2,2,Pin_2*%
%TO.N,GND*%
X111130000Y-92600000D03*
%TD*%
D15*
%TO.P,J4,S1,SHIELD*%
%TO.N,GND*%
X140150000Y-44445000D03*
D16*
X140150000Y-40265000D03*
D15*
X131510000Y-44445000D03*
D16*
X131510000Y-40265000D03*
%TD*%
D17*
%TO.P,MIC1,1,Pin_1*%
%TO.N,3V3*%
X144500000Y-93960000D03*
D18*
%TO.P,MIC1,2,Pin_2*%
%TO.N,GND*%
X142000000Y-93960000D03*
%TO.P,MIC1,3,Pin_3*%
%TO.N,/L{slash}R*%
X139500000Y-93960000D03*
%TO.P,MIC1,4,Pin_4*%
%TO.N,/WS*%
X137000000Y-93960000D03*
%TO.P,MIC1,5,Pin_5*%
%TO.N,/SD*%
X134500000Y-93960000D03*
%TO.P,MIC1,6,Pin_6*%
%TO.N,/SCK*%
X132000000Y-93960000D03*
%TD*%
D13*
%TO.P,H4,1,1*%
%TO.N,unconnected-(H4-Pad1)*%
X69220000Y-41920000D03*
%TD*%
D19*
%TO.P,C9,1*%
%TO.N,5V*%
X83600000Y-86730000D03*
D20*
%TO.P,C9,2*%
%TO.N,GND*%
X83600000Y-90230000D03*
%TD*%
%TO.P,J3,1,1*%
%TO.N,3V3*%
X125120000Y-90070000D03*
%TO.P,J3,2,2*%
%TO.N,/ir*%
X123120000Y-90070000D03*
%TO.P,J3,3,3*%
%TO.N,GND*%
X121120000Y-90070000D03*
%TD*%
D13*
%TO.P,H2,1,1*%
%TO.N,unconnected-(H2-Pad1)*%
X151100000Y-92290000D03*
%TD*%
D10*
%TO.P,GPIO2/GPIO3,1,Pin_1*%
%TO.N,GND*%
X106965000Y-46232500D03*
D11*
%TO.P,GPIO2/GPIO3,2,Pin_2*%
%TO.N,/LED1*%
X101885000Y-46232500D03*
%TO.P,GPIO2/GPIO3,3,Pin_3*%
%TO.N,/Vled*%
X96805000Y-46232500D03*
%TD*%
D21*
%TO.P,C5,1*%
%TO.N,/12V*%
X72260000Y-68660000D03*
D20*
%TO.P,C5,2*%
%TO.N,GND*%
X72260000Y-65160000D03*
%TD*%
D12*
%TO.P,SW2,1,1*%
%TO.N,GND*%
X116010000Y-80120000D03*
X116010000Y-73620000D03*
%TO.P,SW2,2,2*%
%TO.N,ESP32_IO0*%
X120510000Y-80120000D03*
X120510000Y-73620000D03*
%TD*%
D22*
%TO.P,DZ2,1,K*%
%TO.N,/12V*%
X79910000Y-60880000D03*
D23*
%TO.P,DZ2,2,A*%
%TO.N,Net-(DZ2-A)*%
X79910000Y-53260000D03*
%TD*%
D24*
%TO.P,J1,1,Pin_1*%
%TO.N,Net-(J1-Pin_1)*%
X73382500Y-49330000D03*
D25*
%TO.P,J1,2,Pin_2*%
%TO.N,GND*%
X73382500Y-54410000D03*
%TD*%
D26*
%TO.P,PwrSelector1,1,Pin_1*%
%TO.N,/12V*%
X80940000Y-42560000D03*
D27*
%TO.P,PwrSelector1,2,Pin_2*%
%TO.N,/Vled*%
X83480000Y-42560000D03*
%TO.P,PwrSelector1,3,Pin_3*%
%TO.N,5V*%
X86020000Y-42560000D03*
%TD*%
D28*
%TO.P,U3,41,GND*%
%TO.N,GND*%
X140820000Y-68460000D03*
X139420000Y-68460000D03*
X141520000Y-69160000D03*
X140120000Y-69160000D03*
X138720000Y-69160000D03*
X140820000Y-69860000D03*
X139420000Y-69860000D03*
X141520000Y-70560000D03*
X140120000Y-70560000D03*
X138720000Y-70560000D03*
X140820000Y-71260000D03*
X139420000Y-71260000D03*
%TD*%
D29*
%TO.P,Q2,1,G*%
%TO.N,Net-(DZ2-A)*%
X83160000Y-54550000D03*
D30*
%TO.P,Q2,2,D*%
%TO.N,Net-(J1-Pin_1)*%
X83160000Y-57090000D03*
%TO.P,Q2,3,S*%
%TO.N,/12V*%
X83160000Y-59630000D03*
%TD*%
D13*
%TO.P,H3,1,1*%
%TO.N,unconnected-(H3-Pad1)*%
X69220000Y-92290000D03*
%TD*%
D31*
%TO.N,GND*%
X86265000Y-76715000D03*
X116090000Y-57290000D03*
X94850000Y-93350000D03*
X87970000Y-78040000D03*
X141160000Y-84260000D03*
X143940000Y-88780000D03*
X130650000Y-52310000D03*
X97315000Y-71415000D03*
X78730000Y-70340000D03*
X143990000Y-55070000D03*
X82770000Y-50880000D03*
X97315000Y-75215000D03*
X113480000Y-55597500D03*
X141220000Y-89310000D03*
X86265000Y-73315000D03*
X114750000Y-62210000D03*
X104530000Y-91540000D03*
X99215000Y-75215000D03*
X86265000Y-78040000D03*
X102962500Y-88440000D03*
X91615000Y-73315000D03*
X110940000Y-60547500D03*
X80380000Y-68420000D03*
X116020000Y-53860000D03*
X91615000Y-75215000D03*
X113140000Y-52200000D03*
X145550000Y-53282500D03*
X143930000Y-56397500D03*
X118560000Y-60547500D03*
X91615000Y-69515000D03*
X90205000Y-85070000D03*
X98700000Y-93390000D03*
X102932500Y-91610000D03*
X70370000Y-71470000D03*
X97315000Y-69515000D03*
X99215000Y-77115000D03*
X132040000Y-52305000D03*
X113490000Y-53960000D03*
X106860000Y-70160000D03*
X102950000Y-90030000D03*
X99215000Y-71415000D03*
X97315000Y-77115000D03*
X146290000Y-55180000D03*
X116020000Y-55597500D03*
X138230000Y-52260000D03*
X93515000Y-77115000D03*
X132550000Y-88830000D03*
X109960000Y-60580000D03*
X139970000Y-56600000D03*
X109240000Y-70140000D03*
X144010000Y-53350000D03*
X95415000Y-75215000D03*
X82720000Y-49460000D03*
X114750000Y-60547500D03*
X84760000Y-78080000D03*
X93210000Y-80360000D03*
X116715000Y-70280000D03*
X140050000Y-58060000D03*
X117250000Y-53830000D03*
X96050000Y-81997500D03*
X132540000Y-85650000D03*
X96830000Y-94850000D03*
X93515000Y-69515000D03*
X93262500Y-81930000D03*
X95415000Y-77115000D03*
X104620000Y-88300000D03*
X93515000Y-73315000D03*
X70390000Y-74440000D03*
X83050000Y-73490000D03*
X108047500Y-70170000D03*
X102830000Y-86690000D03*
X114272500Y-52190000D03*
X117290000Y-55597500D03*
X96730000Y-93360000D03*
X133410000Y-52240000D03*
X136810000Y-52230000D03*
X117860000Y-70320000D03*
X91615000Y-77115000D03*
X115460000Y-52210000D03*
X138250000Y-51150000D03*
X95415000Y-69515000D03*
X82700000Y-48050000D03*
X93515000Y-75215000D03*
X95950000Y-80610000D03*
X69075000Y-73025000D03*
X112210000Y-55597500D03*
X95415000Y-71415000D03*
X99215000Y-69515000D03*
X80510000Y-70380000D03*
X97610000Y-81997500D03*
X83920000Y-49440000D03*
X70340000Y-72967349D03*
X119680000Y-60630000D03*
X115590000Y-70290000D03*
X147840000Y-80110000D03*
X95415000Y-73315000D03*
X93515000Y-71415000D03*
X114750000Y-58940000D03*
X91615000Y-71415000D03*
X99215000Y-73315000D03*
X147840000Y-62610000D03*
X97315000Y-73315000D03*
%TO.N,ESP32_EN*%
X113760000Y-64850000D03*
X133140000Y-56650000D03*
X123350000Y-61210000D03*
X136845000Y-56600000D03*
X145300000Y-62610000D03*
%TO.N,5V*%
X118360000Y-50510000D03*
X96730000Y-88760000D03*
X96190000Y-85122500D03*
X107930000Y-50530000D03*
X105040000Y-53290000D03*
X133480000Y-54110000D03*
X137120000Y-54130000D03*
X122080000Y-50360000D03*
%TO.N,/ir*%
X126240000Y-85240000D03*
X127860000Y-77170000D03*
%TO.N,/SD*%
X134570000Y-83720000D03*
X140090000Y-64770000D03*
%TO.N,/SCK*%
X136210000Y-82810000D03*
X141490000Y-62610000D03*
%TO.N,/WS*%
X137210000Y-87240000D03*
X142760000Y-62610000D03*
%TO.N,/GPIO*%
X126820000Y-76160000D03*
X125345000Y-84115000D03*
%TD*%
D32*
%TO.N,ESP32_EN*%
X119650000Y-64470000D02*
X114140000Y-64470000D01*
X121870000Y-62300000D02*
X121820000Y-62300000D01*
X123350000Y-61210000D02*
X122960000Y-61210000D01*
X136845000Y-57355000D02*
X140090000Y-60600000D01*
X136845000Y-56600000D02*
X136845000Y-57355000D01*
X136845000Y-56600000D02*
X133190000Y-56600000D01*
X133190000Y-56600000D02*
X133140000Y-56650000D01*
X144100000Y-60600000D02*
X145170000Y-61670000D01*
X121820000Y-62300000D02*
X119650000Y-64470000D01*
X145170000Y-61670000D02*
X145170000Y-62480000D01*
X140090000Y-60600000D02*
X144100000Y-60600000D01*
X114140000Y-64470000D02*
X113760000Y-64850000D01*
X145170000Y-62480000D02*
X145300000Y-62610000D01*
X122960000Y-61210000D02*
X121870000Y-62300000D01*
%TO.N,ESP32_IO0*%
X120510000Y-73620000D02*
X120510000Y-80120000D01*
%TO.N,5V*%
X136930000Y-54130000D02*
X136910000Y-54110000D01*
X96190000Y-85122500D02*
X96730000Y-85662500D01*
X96730000Y-85662500D02*
X96730000Y-88760000D01*
X136910000Y-54110000D02*
X133480000Y-54110000D01*
X107800000Y-50530000D02*
X105040000Y-53290000D01*
X118360000Y-50510000D02*
X121930000Y-50510000D01*
X107930000Y-50530000D02*
X107800000Y-50530000D01*
X137120000Y-54130000D02*
X136930000Y-54130000D01*
X121930000Y-50510000D02*
X122080000Y-50360000D01*
%TO.N,/ir*%
X126240000Y-85240000D02*
X127640000Y-83840000D01*
X127640000Y-77390000D02*
X127860000Y-77170000D01*
X127640000Y-83840000D02*
X127640000Y-77390000D01*
%TO.N,/SD*%
X139570000Y-65290000D02*
X137800000Y-65290000D01*
X134830000Y-82470000D02*
X134830000Y-83460000D01*
X135520000Y-81780000D02*
X134830000Y-82470000D01*
X140090000Y-64770000D02*
X140250000Y-64610000D01*
X140090000Y-64770000D02*
X139570000Y-65290000D01*
X135520000Y-67570000D02*
X135520000Y-81780000D01*
X137800000Y-65290000D02*
X135520000Y-67570000D01*
X134830000Y-83460000D02*
X134570000Y-83720000D01*
%TO.N,/SCK*%
X140239000Y-65961000D02*
X141490000Y-64710000D01*
X136210000Y-82810000D02*
X136210000Y-67720000D01*
X141490000Y-64710000D02*
X141490000Y-62610000D01*
X137969000Y-65961000D02*
X140239000Y-65961000D01*
X136210000Y-67720000D02*
X137969000Y-65961000D01*
%TO.N,/WS*%
X137250000Y-82890000D02*
X137240000Y-82880000D01*
X138190000Y-66680000D02*
X140580000Y-66680000D01*
X136950000Y-67920000D02*
X138190000Y-66680000D01*
X137210000Y-87240000D02*
X137250000Y-87200000D01*
X137250000Y-87200000D02*
X137250000Y-82890000D01*
X140580000Y-66680000D02*
X142760000Y-64500000D01*
X142760000Y-64500000D02*
X142760000Y-62610000D01*
X136950000Y-81940000D02*
X136950000Y-67920000D01*
X137240000Y-82880000D02*
X137240000Y-82230000D01*
X137240000Y-82230000D02*
X136950000Y-81940000D01*
%TO.N,/GPIO*%
X125345000Y-84115000D02*
X126820000Y-82640000D01*
X126820000Y-82640000D02*
X126820000Y-76160000D01*
%TD*%
%TA.AperFunction,Conductor*%
%TO.N,GND*%
G36*
X155632539Y-37680185D02*
G01*
X155678294Y-37732989D01*
X155689500Y-37784500D01*
X155689500Y-47236000D01*
X155669815Y-47303039D01*
X155617011Y-47348794D01*
X155565500Y-47360000D01*
X149330000Y-47360000D01*
X149330000Y-89804028D01*
X149310315Y-89871067D01*
X149283313Y-89900975D01*
X149097477Y-90049174D01*
X148859174Y-90287477D01*
X148649053Y-90550962D01*
X148469752Y-90836316D01*
X148323532Y-91139945D01*
X148212227Y-91458034D01*
X148212223Y-91458046D01*
X148137233Y-91786602D01*
X148137231Y-91786618D01*
X148099500Y-92121491D01*
X148099500Y-92458508D01*
X148137231Y-92793381D01*
X148137233Y-92793397D01*
X148212223Y-93121953D01*
X148212227Y-93121965D01*
X148323532Y-93440054D01*
X148469752Y-93743683D01*
X148469754Y-93743686D01*
X148649054Y-94029039D01*
X148706042Y-94100500D01*
X148859174Y-94292522D01*
X149097483Y-94530831D01*
X149283312Y-94679023D01*
X149323453Y-94736211D01*
X149330000Y-94775970D01*
X149330000Y-95360000D01*
X155565500Y-95360000D01*
X155632539Y-95379685D01*
X155678294Y-95432489D01*
X155689500Y-95484000D01*
X155689500Y-96185500D01*
X155669815Y-96252539D01*
X155617011Y-96298294D01*
X155565500Y-96309500D01*
X65044500Y-96309500D01*
X64977461Y-96289815D01*
X64931706Y-96237011D01*
X64920500Y-96185500D01*
X64920500Y-92121491D01*
X66219500Y-92121491D01*
X66219500Y-92458508D01*
X66257231Y-92793381D01*
X66257233Y-92793397D01*
X66332223Y-93121953D01*
X66332227Y-93121965D01*
X66443532Y-93440054D01*
X66589752Y-93743683D01*
X66589754Y-93743686D01*
X66769054Y-94029039D01*
X66826042Y-94100500D01*
X66946585Y-94251657D01*
X66979175Y-94292523D01*
X67217477Y-94530825D01*
X67480961Y-94740946D01*
X67766314Y-94920246D01*
X68069949Y-95066469D01*
X68308848Y-95150063D01*
X68388034Y-95177772D01*
X68388046Y-95177776D01*
X68716606Y-95252767D01*
X69051492Y-95290499D01*
X69051493Y-95290500D01*
X69051496Y-95290500D01*
X69388507Y-95290500D01*
X69388507Y-95290499D01*
X69723394Y-95252767D01*
X70051954Y-95177776D01*
X70370051Y-95066469D01*
X70673686Y-94920246D01*
X70959039Y-94740946D01*
X71222523Y-94530825D01*
X71460825Y-94292523D01*
X71670946Y-94029039D01*
X71850246Y-93743686D01*
X71886530Y-93668343D01*
X71929119Y-93579905D01*
X71996469Y-93440051D01*
X72107776Y-93121954D01*
X72182767Y-92793394D01*
X72182768Y-92793384D01*
X72182769Y-92793379D01*
X72217859Y-92481947D01*
X109630000Y-92481947D01*
X109630000Y-92718052D01*
X109666934Y-92951247D01*
X109739897Y-93175802D01*
X109847087Y-93386174D01*
X109907338Y-93469104D01*
X109907340Y-93469105D01*
X110565387Y-92811058D01*
X110570889Y-92831591D01*
X110649881Y-92968408D01*
X110761592Y-93080119D01*
X110898409Y-93159111D01*
X110918940Y-93164612D01*
X110260893Y-93822658D01*
X110343828Y-93882914D01*
X110554197Y-93990102D01*
X110778752Y-94063065D01*
X110778751Y-94063065D01*
X111011948Y-94100000D01*
X111248052Y-94100000D01*
X111481247Y-94063065D01*
X111705802Y-93990102D01*
X111916163Y-93882918D01*
X111916169Y-93882914D01*
X111999104Y-93822658D01*
X111999105Y-93822658D01*
X111341058Y-93164612D01*
X111361591Y-93159111D01*
X111498408Y-93080119D01*
X111610119Y-92968408D01*
X111689111Y-92831591D01*
X111694612Y-92811058D01*
X112133181Y-93249627D01*
X112166666Y-93310950D01*
X112169500Y-93337306D01*
X112169500Y-93400000D01*
X112169501Y-93400019D01*
X112180000Y-93502796D01*
X112180001Y-93502799D01*
X112205552Y-93579905D01*
X112235186Y-93669334D01*
X112327288Y-93818656D01*
X112451344Y-93942712D01*
X112600666Y-94034814D01*
X112767203Y-94089999D01*
X112869991Y-94100500D01*
X114470008Y-94100499D01*
X114572797Y-94089999D01*
X114739334Y-94034814D01*
X114888656Y-93942712D01*
X115012712Y-93818656D01*
X115068189Y-93728713D01*
X130649500Y-93728713D01*
X130649500Y-94191287D01*
X130682754Y-94401243D01*
X130693722Y-94435000D01*
X130748444Y-94603414D01*
X130844951Y-94792820D01*
X130969890Y-94964786D01*
X131120213Y-95115109D01*
X131292179Y-95240048D01*
X131292181Y-95240049D01*
X131292184Y-95240051D01*
X131481588Y-95336557D01*
X131683757Y-95402246D01*
X131893713Y-95435500D01*
X131893714Y-95435500D01*
X132106286Y-95435500D01*
X132106287Y-95435500D01*
X132316243Y-95402246D01*
X132518412Y-95336557D01*
X132707816Y-95240051D01*
X132793531Y-95177776D01*
X132879786Y-95115109D01*
X132879788Y-95115106D01*
X132879792Y-95115104D01*
X133030104Y-94964792D01*
X133149683Y-94800204D01*
X133205011Y-94757540D01*
X133274624Y-94751561D01*
X133336420Y-94784166D01*
X133350313Y-94800199D01*
X133453606Y-94942371D01*
X133469896Y-94964792D01*
X133620213Y-95115109D01*
X133792179Y-95240048D01*
X133792181Y-95240049D01*
X133792184Y-95240051D01*
X133981588Y-95336557D01*
X134183757Y-95402246D01*
X134393713Y-95435500D01*
X134393714Y-95435500D01*
X134606286Y-95435500D01*
X134606287Y-95435500D01*
X134816243Y-95402246D01*
X135018412Y-95336557D01*
X135207816Y-95240051D01*
X135293531Y-95177776D01*
X135379786Y-95115109D01*
X135379788Y-95115106D01*
X135379792Y-95115104D01*
X135530104Y-94964792D01*
X135649683Y-94800204D01*
X135705011Y-94757540D01*
X135774624Y-94751561D01*
X135836420Y-94784166D01*
X135850313Y-94800199D01*
X135953606Y-94942371D01*
X135969896Y-94964792D01*
X136120213Y-95115109D01*
X136292179Y-95240048D01*
X136292181Y-95240049D01*
X136292184Y-95240051D01*
X136481588Y-95336557D01*
X136683757Y-95402246D01*
X136893713Y-95435500D01*
X136893714Y-95435500D01*
X137106286Y-95435500D01*
X137106287Y-95435500D01*
X137316243Y-95402246D01*
X137518412Y-95336557D01*
X137707816Y-95240051D01*
X137793531Y-95177776D01*
X137879786Y-95115109D01*
X137879788Y-95115106D01*
X137879792Y-95115104D01*
X138030104Y-94964792D01*
X138149683Y-94800204D01*
X138205011Y-94757540D01*
X138274624Y-94751561D01*
X138336420Y-94784166D01*
X138350313Y-94800199D01*
X138453606Y-94942371D01*
X138469896Y-94964792D01*
X138620213Y-95115109D01*
X138792179Y-95240048D01*
X138792181Y-95240049D01*
X138792184Y-95240051D01*
X138981588Y-95336557D01*
X139183757Y-95402246D01*
X139393713Y-95435500D01*
X139393714Y-95435500D01*
X139606286Y-95435500D01*
X139606287Y-95435500D01*
X139816243Y-95402246D01*
X140018412Y-95336557D01*
X140207816Y-95240051D01*
X140293531Y-95177776D01*
X140379786Y-95115109D01*
X140379788Y-95115106D01*
X140379792Y-95115104D01*
X140530104Y-94964792D01*
X140649991Y-94799779D01*
X140705320Y-94757115D01*
X140774933Y-94751136D01*
X140836729Y-94783741D01*
X140850627Y-94799781D01*
X140970272Y-94964459D01*
X140970276Y-94964464D01*
X141120535Y-95114723D01*
X141120540Y-95114727D01*
X141292442Y-95239620D01*
X141481782Y-95336095D01*
X141683871Y-95401757D01*
X141750000Y-95412231D01*
X141750000Y-94364145D01*
X141816657Y-94402630D01*
X141937465Y-94435000D01*
X142062535Y-94435000D01*
X142183343Y-94402630D01*
X142250000Y-94364145D01*
X142250000Y-95412230D01*
X142316126Y-95401757D01*
X142316129Y-95401757D01*
X142518217Y-95336095D01*
X142707557Y-95239620D01*
X142879458Y-95114728D01*
X143018330Y-94975856D01*
X143079653Y-94942371D01*
X143149345Y-94947355D01*
X143205279Y-94989226D01*
X143211551Y-94998440D01*
X143215185Y-95004331D01*
X143215186Y-95004334D01*
X143307288Y-95153656D01*
X143431344Y-95277712D01*
X143580666Y-95369814D01*
X143747203Y-95424999D01*
X143849991Y-95435500D01*
X145150008Y-95435499D01*
X145252797Y-95424999D01*
X145419334Y-95369814D01*
X145568656Y-95277712D01*
X145692712Y-95153656D01*
X145784814Y-95004334D01*
X145839999Y-94837797D01*
X145850500Y-94735009D01*
X145850499Y-93184992D01*
X145848851Y-93168863D01*
X145839999Y-93082203D01*
X145839998Y-93082200D01*
X145839308Y-93080119D01*
X145784814Y-92915666D01*
X145692712Y-92766344D01*
X145568656Y-92642288D01*
X145419334Y-92550186D01*
X145252797Y-92495001D01*
X145252795Y-92495000D01*
X145150010Y-92484500D01*
X143849998Y-92484500D01*
X143849981Y-92484501D01*
X143747203Y-92495000D01*
X143747200Y-92495001D01*
X143580668Y-92550185D01*
X143580663Y-92550187D01*
X143431342Y-92642289D01*
X143307289Y-92766342D01*
X143211551Y-92921559D01*
X143159603Y-92968283D01*
X143090640Y-92979506D01*
X143026558Y-92951662D01*
X143018331Y-92944143D01*
X142879464Y-92805276D01*
X142879459Y-92805272D01*
X142707557Y-92680379D01*
X142518215Y-92583903D01*
X142316124Y-92518241D01*
X142250000Y-92507768D01*
X142250000Y-93555854D01*
X142183343Y-93517370D01*
X142062535Y-93485000D01*
X141937465Y-93485000D01*
X141816657Y-93517370D01*
X141750000Y-93555854D01*
X141750000Y-92507768D01*
X141749999Y-92507768D01*
X141683875Y-92518241D01*
X141481784Y-92583903D01*
X141292442Y-92680379D01*
X141120540Y-92805272D01*
X141120535Y-92805276D01*
X140970276Y-92955535D01*
X140970272Y-92955540D01*
X140850627Y-93120218D01*
X140795297Y-93162884D01*
X140725684Y-93168863D01*
X140663889Y-93136257D01*
X140649991Y-93120218D01*
X140530109Y-92955214D01*
X140530105Y-92955209D01*
X140379786Y-92804890D01*
X140207820Y-92679951D01*
X140018414Y-92583444D01*
X140018413Y-92583443D01*
X140018412Y-92583443D01*
X139816243Y-92517754D01*
X139816241Y-92517753D01*
X139816240Y-92517753D01*
X139654957Y-92492208D01*
X139606287Y-92484500D01*
X139393713Y-92484500D01*
X139345042Y-92492208D01*
X139183760Y-92517753D01*
X138981585Y-92583444D01*
X138792179Y-92679951D01*
X138620213Y-92804890D01*
X138469894Y-92955209D01*
X138469890Y-92955214D01*
X138350318Y-93119793D01*
X138294989Y-93162459D01*
X138225375Y-93168438D01*
X138163580Y-93135833D01*
X138149682Y-93119793D01*
X138030109Y-92955214D01*
X138030105Y-92955209D01*
X137879786Y-92804890D01*
X137707820Y-92679951D01*
X137518414Y-92583444D01*
X137518413Y-92583443D01*
X137518412Y-92583443D01*
X137316243Y-92517754D01*
X137316241Y-92517753D01*
X137316240Y-92517753D01*
X137154957Y-92492208D01*
X137106287Y-92484500D01*
X136893713Y-92484500D01*
X136845042Y-92492208D01*
X136683760Y-92517753D01*
X136481585Y-92583444D01*
X136292179Y-92679951D01*
X136120213Y-92804890D01*
X135969894Y-92955209D01*
X135969890Y-92955214D01*
X135850318Y-93119793D01*
X135794989Y-93162459D01*
X135725375Y-93168438D01*
X135663580Y-93135833D01*
X135649682Y-93119793D01*
X135530109Y-92955214D01*
X135530105Y-92955209D01*
X135379786Y-92804890D01*
X135207820Y-92679951D01*
X135018414Y-92583444D01*
X135018413Y-92583443D01*
X135018412Y-92583443D01*
X134816243Y-92517754D01*
X134816241Y-92517753D01*
X134816240Y-92517753D01*
X134654957Y-92492208D01*
X134606287Y-92484500D01*
X134393713Y-92484500D01*
X134345042Y-92492208D01*
X134183760Y-92517753D01*
X133981585Y-92583444D01*
X133792179Y-92679951D01*
X133620213Y-92804890D01*
X133469894Y-92955209D01*
X133469890Y-92955214D01*
X133350318Y-93119793D01*
X133294989Y-93162459D01*
X133225375Y-93168438D01*
X133163580Y-93135833D01*
X133149682Y-93119793D01*
X133030109Y-92955214D01*
X133030105Y-92955209D01*
X132879786Y-92804890D01*
X132707820Y-92679951D01*
X132518414Y-92583444D01*
X132518413Y-92583443D01*
X132518412Y-92583443D01*
X132316243Y-92517754D01*
X132316241Y-92517753D01*
X132316240Y-92517753D01*
X132154957Y-92492208D01*
X132106287Y-92484500D01*
X131893713Y-92484500D01*
X131845042Y-92492208D01*
X131683760Y-92517753D01*
X131481585Y-92583444D01*
X131292179Y-92679951D01*
X131120213Y-92804890D01*
X130969890Y-92955213D01*
X130844951Y-93127179D01*
X130748444Y-93316585D01*
X130748443Y-93316587D01*
X130748443Y-93316588D01*
X130715598Y-93417672D01*
X130682753Y-93518760D01*
X130673069Y-93579905D01*
X130649500Y-93728713D01*
X115068189Y-93728713D01*
X115104814Y-93669334D01*
X115159999Y-93502797D01*
X115170500Y-93400009D01*
X115170499Y-91799992D01*
X115159999Y-91697203D01*
X115104814Y-91530666D01*
X115012712Y-91381344D01*
X114888656Y-91257288D01*
X114767059Y-91182287D01*
X114739336Y-91165187D01*
X114739331Y-91165185D01*
X114737862Y-91164698D01*
X114572797Y-91110001D01*
X114572795Y-91110000D01*
X114470010Y-91099500D01*
X112869998Y-91099500D01*
X112869981Y-91099501D01*
X112767203Y-91110000D01*
X112767200Y-91110001D01*
X112600668Y-91165185D01*
X112600663Y-91165187D01*
X112451342Y-91257289D01*
X112327289Y-91381342D01*
X112235187Y-91530663D01*
X112235186Y-91530666D01*
X112180001Y-91697203D01*
X112180001Y-91697204D01*
X112180000Y-91697204D01*
X112169500Y-91799983D01*
X112169500Y-91862691D01*
X112149815Y-91929730D01*
X112133181Y-91950372D01*
X111694612Y-92388940D01*
X111689111Y-92368409D01*
X111610119Y-92231592D01*
X111498408Y-92119881D01*
X111361591Y-92040889D01*
X111341059Y-92035387D01*
X111999105Y-91377340D01*
X111999104Y-91377338D01*
X111916174Y-91317087D01*
X111705802Y-91209897D01*
X111481247Y-91136934D01*
X111481248Y-91136934D01*
X111248052Y-91100000D01*
X111011948Y-91100000D01*
X110778752Y-91136934D01*
X110554197Y-91209897D01*
X110343830Y-91317084D01*
X110260894Y-91377340D01*
X110918941Y-92035387D01*
X110898409Y-92040889D01*
X110761592Y-92119881D01*
X110649881Y-92231592D01*
X110570889Y-92368409D01*
X110565387Y-92388941D01*
X109907340Y-91730894D01*
X109847084Y-91813830D01*
X109739897Y-92024197D01*
X109666934Y-92248752D01*
X109630000Y-92481947D01*
X72217859Y-92481947D01*
X72219972Y-92463192D01*
X72219972Y-92463187D01*
X72220500Y-92458508D01*
X72220500Y-92458504D01*
X72220500Y-92121496D01*
X72182767Y-91786606D01*
X72107776Y-91458046D01*
X72079535Y-91377338D01*
X72053583Y-91303170D01*
X72020945Y-91209897D01*
X71996469Y-91139949D01*
X71850246Y-90836314D01*
X71670946Y-90550961D01*
X71460825Y-90287477D01*
X71301030Y-90127682D01*
X82300000Y-90127682D01*
X82300000Y-90332317D01*
X82332009Y-90534417D01*
X82395244Y-90729031D01*
X82488141Y-90911350D01*
X82488147Y-90911359D01*
X82520523Y-90955921D01*
X82520524Y-90955922D01*
X83200000Y-90276446D01*
X83200000Y-90282661D01*
X83227259Y-90384394D01*
X83279920Y-90475606D01*
X83354394Y-90550080D01*
X83445606Y-90602741D01*
X83547339Y-90630000D01*
X83553553Y-90630000D01*
X82874076Y-91309474D01*
X82918650Y-91341859D01*
X83100968Y-91434755D01*
X83295582Y-91497990D01*
X83497683Y-91530000D01*
X83702317Y-91530000D01*
X83904417Y-91497990D01*
X84099031Y-91434755D01*
X84281349Y-91341859D01*
X84305542Y-91324282D01*
X84325921Y-91309474D01*
X83646447Y-90630000D01*
X83652661Y-90630000D01*
X83754394Y-90602741D01*
X83845606Y-90550080D01*
X83920080Y-90475606D01*
X83972741Y-90384394D01*
X84000000Y-90282661D01*
X84000000Y-90276447D01*
X84679474Y-90955921D01*
X84711859Y-90911349D01*
X84804755Y-90729031D01*
X84867990Y-90534417D01*
X84900000Y-90332317D01*
X84900000Y-90320000D01*
X119843391Y-90320000D01*
X119852009Y-90374413D01*
X119915244Y-90569029D01*
X120008140Y-90751349D01*
X120128417Y-90916894D01*
X120128417Y-90916895D01*
X120273104Y-91061582D01*
X120438650Y-91181859D01*
X120620968Y-91274754D01*
X120815578Y-91337988D01*
X120870000Y-91346607D01*
X120870000Y-90320000D01*
X119843391Y-90320000D01*
X84900000Y-90320000D01*
X84900000Y-90127682D01*
X84883566Y-90023922D01*
X120770000Y-90023922D01*
X120770000Y-90116078D01*
X120793852Y-90205095D01*
X120839930Y-90284905D01*
X120905095Y-90350070D01*
X120984905Y-90396148D01*
X121073922Y-90420000D01*
X121166078Y-90420000D01*
X121255095Y-90396148D01*
X121334905Y-90350070D01*
X121370000Y-90314975D01*
X121370000Y-91346606D01*
X121424421Y-91337988D01*
X121619031Y-91274754D01*
X121801349Y-91181859D01*
X121966891Y-91061585D01*
X122031964Y-90996512D01*
X122093287Y-90963027D01*
X122162979Y-90968011D01*
X122207327Y-90996512D01*
X122272786Y-91061971D01*
X122380116Y-91139949D01*
X122438390Y-91182287D01*
X122554607Y-91241503D01*
X122620776Y-91275218D01*
X122620778Y-91275218D01*
X122620781Y-91275220D01*
X122706802Y-91303170D01*
X122815465Y-91338477D01*
X122916557Y-91354488D01*
X123017648Y-91370500D01*
X123017649Y-91370500D01*
X123222351Y-91370500D01*
X123222352Y-91370500D01*
X123424534Y-91338477D01*
X123619219Y-91275220D01*
X123801610Y-91182287D01*
X123901105Y-91110000D01*
X123967213Y-91061971D01*
X123967215Y-91061968D01*
X123967219Y-91061966D01*
X124032319Y-90996866D01*
X124093642Y-90963381D01*
X124163334Y-90968365D01*
X124207681Y-90996866D01*
X124272786Y-91061971D01*
X124380116Y-91139949D01*
X124438390Y-91182287D01*
X124554607Y-91241503D01*
X124620776Y-91275218D01*
X124620778Y-91275218D01*
X124620781Y-91275220D01*
X124706802Y-91303170D01*
X124815465Y-91338477D01*
X124916557Y-91354488D01*
X125017648Y-91370500D01*
X125017649Y-91370500D01*
X125222351Y-91370500D01*
X125222352Y-91370500D01*
X125424534Y-91338477D01*
X125619219Y-91275220D01*
X125801610Y-91182287D01*
X125901105Y-91110000D01*
X125967213Y-91061971D01*
X125967215Y-91061968D01*
X125967219Y-91061966D01*
X126111966Y-90917219D01*
X126111968Y-90917215D01*
X126111971Y-90917213D01*
X126170746Y-90836314D01*
X126232287Y-90751610D01*
X126325220Y-90569219D01*
X126388477Y-90374534D01*
X126420500Y-90172352D01*
X126420500Y-89967648D01*
X126398698Y-89830000D01*
X126388477Y-89765465D01*
X126325218Y-89570776D01*
X126268501Y-89459464D01*
X126232287Y-89388390D01*
X126224556Y-89377749D01*
X126111971Y-89222786D01*
X125967213Y-89078028D01*
X125801613Y-88957715D01*
X125801612Y-88957714D01*
X125801610Y-88957713D01*
X125736047Y-88924307D01*
X125619223Y-88864781D01*
X125424534Y-88801522D01*
X125249995Y-88773878D01*
X125222352Y-88769500D01*
X125017648Y-88769500D01*
X124993329Y-88773351D01*
X124815465Y-88801522D01*
X124620776Y-88864781D01*
X124438386Y-88957715D01*
X124272786Y-89078028D01*
X124272782Y-89078032D01*
X124207681Y-89143134D01*
X124146358Y-89176619D01*
X124076666Y-89171635D01*
X124032319Y-89143134D01*
X123967213Y-89078028D01*
X123801613Y-88957715D01*
X123801612Y-88957714D01*
X123801610Y-88957713D01*
X123736047Y-88924307D01*
X123619223Y-88864781D01*
X123424534Y-88801522D01*
X123249995Y-88773878D01*
X123222352Y-88769500D01*
X123017648Y-88769500D01*
X122993329Y-88773351D01*
X122815465Y-88801522D01*
X122620776Y-88864781D01*
X122438386Y-88957715D01*
X122272788Y-89078027D01*
X122207327Y-89143488D01*
X122146003Y-89176972D01*
X122076312Y-89171987D01*
X122031965Y-89143487D01*
X121966895Y-89078417D01*
X121801349Y-88958140D01*
X121619029Y-88865244D01*
X121424413Y-88802009D01*
X121370000Y-88793390D01*
X121370000Y-89825025D01*
X121334905Y-89789930D01*
X121255095Y-89743852D01*
X121166078Y-89720000D01*
X121073922Y-89720000D01*
X120984905Y-89743852D01*
X120905095Y-89789930D01*
X120839930Y-89855095D01*
X120793852Y-89934905D01*
X120770000Y-90023922D01*
X84883566Y-90023922D01*
X84867990Y-89925582D01*
X84858177Y-89895382D01*
X84833684Y-89820000D01*
X119843391Y-89820000D01*
X120870000Y-89820000D01*
X120870000Y-88793390D01*
X120815586Y-88802009D01*
X120620970Y-88865244D01*
X120438650Y-88958140D01*
X120273105Y-89078417D01*
X120273104Y-89078417D01*
X120128417Y-89223104D01*
X120128417Y-89223105D01*
X120008140Y-89388650D01*
X119915244Y-89570970D01*
X119852009Y-89765586D01*
X119843391Y-89820000D01*
X84833684Y-89820000D01*
X84804755Y-89730968D01*
X84711859Y-89548650D01*
X84679474Y-89504077D01*
X84679474Y-89504076D01*
X84000000Y-90183551D01*
X84000000Y-90177339D01*
X83972741Y-90075606D01*
X83920080Y-89984394D01*
X83845606Y-89909920D01*
X83754394Y-89857259D01*
X83652661Y-89830000D01*
X83646446Y-89830000D01*
X84325922Y-89150524D01*
X84325921Y-89150523D01*
X84281359Y-89118147D01*
X84281350Y-89118141D01*
X84099031Y-89025244D01*
X83904417Y-88962009D01*
X83702317Y-88930000D01*
X83497683Y-88930000D01*
X83295582Y-88962009D01*
X83100968Y-89025244D01*
X82918644Y-89118143D01*
X82874077Y-89150523D01*
X82874077Y-89150524D01*
X83553554Y-89830000D01*
X83547339Y-89830000D01*
X83445606Y-89857259D01*
X83354394Y-89909920D01*
X83279920Y-89984394D01*
X83227259Y-90075606D01*
X83200000Y-90177339D01*
X83200000Y-90183553D01*
X82520524Y-89504077D01*
X82520523Y-89504077D01*
X82488143Y-89548644D01*
X82395244Y-89730968D01*
X82332009Y-89925582D01*
X82300000Y-90127682D01*
X71301030Y-90127682D01*
X71222523Y-90049175D01*
X70959039Y-89839054D01*
X70673686Y-89659754D01*
X70673683Y-89659752D01*
X70370054Y-89513532D01*
X70051965Y-89402227D01*
X70051953Y-89402223D01*
X69723397Y-89327233D01*
X69723379Y-89327230D01*
X69668106Y-89321003D01*
X69668105Y-89321003D01*
X69388508Y-89289500D01*
X69388504Y-89289500D01*
X69051496Y-89289500D01*
X69051491Y-89289500D01*
X68716618Y-89327231D01*
X68716602Y-89327233D01*
X68388046Y-89402223D01*
X68388034Y-89402227D01*
X68069945Y-89513532D01*
X67766316Y-89659752D01*
X67480962Y-89839053D01*
X67217477Y-90049174D01*
X66979174Y-90287477D01*
X66769053Y-90550962D01*
X66589752Y-90836316D01*
X66443532Y-91139945D01*
X66332227Y-91458034D01*
X66332223Y-91458046D01*
X66257233Y-91786602D01*
X66257231Y-91786618D01*
X66219500Y-92121491D01*
X64920500Y-92121491D01*
X64920500Y-86129983D01*
X82299500Y-86129983D01*
X82299500Y-87330001D01*
X82299501Y-87330018D01*
X82310000Y-87432796D01*
X82310001Y-87432799D01*
X82365185Y-87599331D01*
X82365186Y-87599334D01*
X82457288Y-87748656D01*
X82581344Y-87872712D01*
X82730666Y-87964814D01*
X82897203Y-88019999D01*
X82999991Y-88030500D01*
X84200008Y-88030499D01*
X84302797Y-88019999D01*
X84469334Y-87964814D01*
X84618656Y-87872712D01*
X84742712Y-87748656D01*
X84834814Y-87599334D01*
X84889999Y-87432797D01*
X84900500Y-87330009D01*
X84900499Y-86129992D01*
X84889999Y-86027203D01*
X84834814Y-85860666D01*
X84742712Y-85711344D01*
X84618656Y-85587288D01*
X84469334Y-85495186D01*
X84302797Y-85440001D01*
X84302795Y-85440000D01*
X84200010Y-85429500D01*
X82999998Y-85429500D01*
X82999981Y-85429501D01*
X82897203Y-85440000D01*
X82897200Y-85440001D01*
X82730668Y-85495185D01*
X82730663Y-85495187D01*
X82581342Y-85587289D01*
X82457289Y-85711342D01*
X82365187Y-85860663D01*
X82365186Y-85860666D01*
X82310001Y-86027203D01*
X82310001Y-86027204D01*
X82310000Y-86027204D01*
X82299500Y-86129983D01*
X64920500Y-86129983D01*
X64920500Y-85033804D01*
X95289500Y-85033804D01*
X95289500Y-85211195D01*
X95324103Y-85385158D01*
X95324106Y-85385167D01*
X95391983Y-85549040D01*
X95391990Y-85549053D01*
X95490535Y-85696534D01*
X95490538Y-85696538D01*
X95615961Y-85821961D01*
X95615965Y-85821964D01*
X95763446Y-85920509D01*
X95763459Y-85920516D01*
X95809198Y-85939461D01*
X95927334Y-85988394D01*
X96004693Y-86003781D01*
X96066601Y-86036165D01*
X96101176Y-86096880D01*
X96104500Y-86125398D01*
X96104500Y-88060638D01*
X96084815Y-88127677D01*
X96068181Y-88148319D01*
X96030538Y-88185961D01*
X96030535Y-88185965D01*
X95931990Y-88333446D01*
X95931983Y-88333459D01*
X95864106Y-88497332D01*
X95864103Y-88497341D01*
X95829500Y-88671304D01*
X95829500Y-88848695D01*
X95864103Y-89022658D01*
X95864106Y-89022667D01*
X95931983Y-89186540D01*
X95931990Y-89186553D01*
X96030535Y-89334034D01*
X96030538Y-89334038D01*
X96155961Y-89459461D01*
X96155965Y-89459464D01*
X96303446Y-89558009D01*
X96303459Y-89558016D01*
X96426363Y-89608923D01*
X96467334Y-89625894D01*
X96467336Y-89625894D01*
X96467341Y-89625896D01*
X96641304Y-89660499D01*
X96641307Y-89660500D01*
X96641309Y-89660500D01*
X96818693Y-89660500D01*
X96818694Y-89660499D01*
X96876682Y-89648964D01*
X96992658Y-89625896D01*
X96992661Y-89625894D01*
X96992666Y-89625894D01*
X97156547Y-89558013D01*
X97304035Y-89459464D01*
X97429464Y-89334035D01*
X97528013Y-89186547D01*
X97595894Y-89022666D01*
X97606080Y-88971461D01*
X97630499Y-88848695D01*
X97630500Y-88848693D01*
X97630500Y-88671306D01*
X97630499Y-88671304D01*
X97595896Y-88497341D01*
X97595894Y-88497338D01*
X97595894Y-88497334D01*
X97528013Y-88333453D01*
X97528010Y-88333448D01*
X97528009Y-88333446D01*
X97511266Y-88308389D01*
X139234500Y-88308389D01*
X139234500Y-88431610D01*
X139258535Y-88552444D01*
X139258538Y-88552454D01*
X139305687Y-88666283D01*
X139305692Y-88666292D01*
X139374141Y-88768732D01*
X139374144Y-88768736D01*
X139461263Y-88855855D01*
X139461267Y-88855858D01*
X139563707Y-88924307D01*
X139563713Y-88924310D01*
X139563714Y-88924311D01*
X139677548Y-88971463D01*
X139798389Y-88995499D01*
X139798393Y-88995500D01*
X139798394Y-88995500D01*
X139921607Y-88995500D01*
X139921608Y-88995499D01*
X140042452Y-88971463D01*
X140156286Y-88924311D01*
X140258733Y-88855858D01*
X140345858Y-88768733D01*
X140414311Y-88666286D01*
X140461463Y-88552452D01*
X140485500Y-88431606D01*
X140485500Y-88308394D01*
X140461463Y-88187548D01*
X140414311Y-88073714D01*
X140414310Y-88073713D01*
X140414307Y-88073707D01*
X140345858Y-87971267D01*
X140345855Y-87971263D01*
X140258736Y-87884144D01*
X140258732Y-87884141D01*
X140156292Y-87815692D01*
X140156283Y-87815687D01*
X140042454Y-87768538D01*
X140042455Y-87768538D01*
X140042452Y-87768537D01*
X140042448Y-87768536D01*
X140042444Y-87768535D01*
X139921610Y-87744500D01*
X139921606Y-87744500D01*
X139798394Y-87744500D01*
X139798389Y-87744500D01*
X139677555Y-87768535D01*
X139677545Y-87768538D01*
X139563716Y-87815687D01*
X139563707Y-87815692D01*
X139461267Y-87884141D01*
X139461263Y-87884144D01*
X139374144Y-87971263D01*
X139374141Y-87971267D01*
X139305692Y-88073707D01*
X139305687Y-88073716D01*
X139258538Y-88187545D01*
X139258535Y-88187555D01*
X139234500Y-88308389D01*
X97511266Y-88308389D01*
X97429464Y-88185965D01*
X97429461Y-88185961D01*
X97391819Y-88148319D01*
X97358334Y-88086996D01*
X97355500Y-88060638D01*
X97355500Y-85600895D01*
X97355500Y-85600894D01*
X97349164Y-85569042D01*
X97331463Y-85480049D01*
X97310525Y-85429501D01*
X97284311Y-85366214D01*
X97284310Y-85366212D01*
X97284309Y-85366210D01*
X97215859Y-85263768D01*
X97176181Y-85224090D01*
X97128733Y-85176642D01*
X97128732Y-85176641D01*
X97126819Y-85174728D01*
X97093334Y-85113405D01*
X97090500Y-85087047D01*
X97090500Y-85033806D01*
X97090499Y-85033804D01*
X97055896Y-84859841D01*
X97055893Y-84859832D01*
X96988016Y-84695959D01*
X96988009Y-84695946D01*
X96889464Y-84548465D01*
X96889461Y-84548461D01*
X96764038Y-84423038D01*
X96764034Y-84423035D01*
X96616553Y-84324490D01*
X96616540Y-84324483D01*
X96452667Y-84256606D01*
X96452658Y-84256603D01*
X96278694Y-84222000D01*
X96278691Y-84222000D01*
X96101309Y-84222000D01*
X96101306Y-84222000D01*
X95927341Y-84256603D01*
X95927332Y-84256606D01*
X95763459Y-84324483D01*
X95763446Y-84324490D01*
X95615965Y-84423035D01*
X95615961Y-84423038D01*
X95490538Y-84548461D01*
X95490535Y-84548465D01*
X95391990Y-84695946D01*
X95391983Y-84695959D01*
X95324106Y-84859832D01*
X95324103Y-84859841D01*
X95289500Y-85033804D01*
X64920500Y-85033804D01*
X64920500Y-84026304D01*
X124444500Y-84026304D01*
X124444500Y-84203695D01*
X124479103Y-84377658D01*
X124479106Y-84377667D01*
X124546983Y-84541540D01*
X124546990Y-84541553D01*
X124645535Y-84689034D01*
X124645538Y-84689038D01*
X124770961Y-84814461D01*
X124770965Y-84814464D01*
X124918446Y-84913009D01*
X124918459Y-84913016D01*
X125041363Y-84963923D01*
X125082334Y-84980894D01*
X125082336Y-84980894D01*
X125082341Y-84980896D01*
X125240792Y-85012414D01*
X125302703Y-85044799D01*
X125337277Y-85105515D01*
X125340005Y-85146177D01*
X125339500Y-85151307D01*
X125339500Y-85328695D01*
X125374103Y-85502658D01*
X125374106Y-85502667D01*
X125441983Y-85666540D01*
X125441990Y-85666553D01*
X125540535Y-85814034D01*
X125540538Y-85814038D01*
X125665961Y-85939461D01*
X125665965Y-85939464D01*
X125813446Y-86038009D01*
X125813459Y-86038016D01*
X125936363Y-86088923D01*
X125977334Y-86105894D01*
X125977336Y-86105894D01*
X125977341Y-86105896D01*
X126151304Y-86140499D01*
X126151307Y-86140500D01*
X126151309Y-86140500D01*
X126328693Y-86140500D01*
X126328694Y-86140499D01*
X126386682Y-86128964D01*
X126502658Y-86105896D01*
X126502661Y-86105894D01*
X126502666Y-86105894D01*
X126666547Y-86038013D01*
X126814035Y-85939464D01*
X126939464Y-85814035D01*
X127038013Y-85666547D01*
X127105894Y-85502666D01*
X127121807Y-85422669D01*
X127140499Y-85328695D01*
X127140500Y-85328693D01*
X127140500Y-85275451D01*
X127160185Y-85208412D01*
X127176815Y-85187774D01*
X128038729Y-84325860D01*
X128038733Y-84325858D01*
X128125858Y-84238733D01*
X128162434Y-84183993D01*
X128194312Y-84136286D01*
X128241463Y-84022451D01*
X128265500Y-83901607D01*
X128265500Y-83778393D01*
X128265500Y-83631304D01*
X133669500Y-83631304D01*
X133669500Y-83808695D01*
X133704103Y-83982658D01*
X133704106Y-83982667D01*
X133771983Y-84146540D01*
X133771990Y-84146553D01*
X133870535Y-84294034D01*
X133870538Y-84294038D01*
X133995961Y-84419461D01*
X133995965Y-84419464D01*
X134143446Y-84518009D01*
X134143459Y-84518016D01*
X134216971Y-84548465D01*
X134307334Y-84585894D01*
X134307336Y-84585894D01*
X134307341Y-84585896D01*
X134481304Y-84620499D01*
X134481307Y-84620500D01*
X134481309Y-84620500D01*
X134658693Y-84620500D01*
X134658694Y-84620499D01*
X134716682Y-84608964D01*
X134832658Y-84585896D01*
X134832661Y-84585894D01*
X134832666Y-84585894D01*
X134996547Y-84518013D01*
X135144035Y-84419464D01*
X135269464Y-84294035D01*
X135368013Y-84146547D01*
X135435894Y-83982666D01*
X135470500Y-83808691D01*
X135470500Y-83631309D01*
X135470500Y-83630892D01*
X135490185Y-83563853D01*
X135542989Y-83518098D01*
X135612147Y-83508154D01*
X135663391Y-83527790D01*
X135783446Y-83608009D01*
X135783459Y-83608016D01*
X135906363Y-83658923D01*
X135947334Y-83675894D01*
X135947336Y-83675894D01*
X135947341Y-83675896D01*
X136121304Y-83710499D01*
X136121307Y-83710500D01*
X136121309Y-83710500D01*
X136298693Y-83710500D01*
X136372732Y-83695772D01*
X136472666Y-83675894D01*
X136472668Y-83675892D01*
X136476308Y-83675169D01*
X136545900Y-83681396D01*
X136601077Y-83724259D01*
X136624322Y-83790148D01*
X136624500Y-83796786D01*
X136624500Y-86500638D01*
X136604815Y-86567677D01*
X136588181Y-86588319D01*
X136510538Y-86665961D01*
X136510535Y-86665965D01*
X136411990Y-86813446D01*
X136411983Y-86813459D01*
X136344106Y-86977332D01*
X136344103Y-86977341D01*
X136309500Y-87151304D01*
X136309500Y-87328695D01*
X136344103Y-87502658D01*
X136344106Y-87502667D01*
X136411983Y-87666540D01*
X136411990Y-87666553D01*
X136510535Y-87814034D01*
X136510538Y-87814038D01*
X136635961Y-87939461D01*
X136635965Y-87939464D01*
X136783446Y-88038009D01*
X136783459Y-88038016D01*
X136901710Y-88086996D01*
X136947334Y-88105894D01*
X136947336Y-88105894D01*
X136947341Y-88105896D01*
X137121304Y-88140499D01*
X137121307Y-88140500D01*
X137121309Y-88140500D01*
X137298693Y-88140500D01*
X137298694Y-88140499D01*
X137363156Y-88127677D01*
X137472658Y-88105896D01*
X137472661Y-88105894D01*
X137472666Y-88105894D01*
X137636547Y-88038013D01*
X137784035Y-87939464D01*
X137909464Y-87814035D01*
X138008013Y-87666547D01*
X138075894Y-87502666D01*
X138089792Y-87432799D01*
X138110499Y-87328695D01*
X138110500Y-87328693D01*
X138110500Y-87151306D01*
X138110499Y-87151304D01*
X138075896Y-86977341D01*
X138075893Y-86977332D01*
X138008016Y-86813459D01*
X138008009Y-86813446D01*
X137909464Y-86665965D01*
X137905599Y-86661255D01*
X137907230Y-86659916D01*
X137878334Y-86606996D01*
X137875500Y-86580638D01*
X137875500Y-82828394D01*
X137867882Y-82790093D01*
X137865500Y-82765904D01*
X137865500Y-82168394D01*
X137862665Y-82154144D01*
X137862665Y-82154140D01*
X137849873Y-82089835D01*
X137841463Y-82047549D01*
X137794312Y-81933715D01*
X137777256Y-81908190D01*
X137725858Y-81831267D01*
X137638733Y-81744142D01*
X137638729Y-81744139D01*
X137611819Y-81717229D01*
X137578334Y-81655906D01*
X137575500Y-81629548D01*
X137575500Y-68230452D01*
X137595185Y-68163413D01*
X137611819Y-68142771D01*
X138412771Y-67341819D01*
X138474094Y-67308334D01*
X138500452Y-67305500D01*
X140641607Y-67305500D01*
X140702029Y-67293481D01*
X140762452Y-67281463D01*
X140795792Y-67267652D01*
X140876286Y-67234312D01*
X140927509Y-67200084D01*
X140978733Y-67165858D01*
X141065858Y-67078733D01*
X141065858Y-67078731D01*
X141076066Y-67068524D01*
X141076067Y-67068521D01*
X143245858Y-64898733D01*
X143314312Y-64796285D01*
X143361463Y-64682451D01*
X143380382Y-64587341D01*
X143385501Y-64561608D01*
X143385501Y-64433283D01*
X143385500Y-64433257D01*
X143385500Y-63309361D01*
X143405185Y-63242322D01*
X143421820Y-63221679D01*
X143459461Y-63184038D01*
X143459464Y-63184035D01*
X143558013Y-63036547D01*
X143625894Y-62872666D01*
X143627383Y-62865184D01*
X143648964Y-62756682D01*
X143660500Y-62698691D01*
X143660500Y-62521309D01*
X143660500Y-62521306D01*
X143660499Y-62521304D01*
X143625896Y-62347341D01*
X143625893Y-62347332D01*
X143558016Y-62183459D01*
X143558009Y-62183446D01*
X143459464Y-62035965D01*
X143459461Y-62035961D01*
X143334038Y-61910538D01*
X143334034Y-61910535D01*
X143186553Y-61811990D01*
X143186540Y-61811983D01*
X143022667Y-61744106D01*
X143022658Y-61744103D01*
X142848694Y-61709500D01*
X142848691Y-61709500D01*
X142671309Y-61709500D01*
X142671306Y-61709500D01*
X142497341Y-61744103D01*
X142497332Y-61744106D01*
X142333459Y-61811983D01*
X142333446Y-61811990D01*
X142193891Y-61905239D01*
X142127213Y-61926117D01*
X142059833Y-61907633D01*
X142056109Y-61905239D01*
X141916553Y-61811990D01*
X141916540Y-61811983D01*
X141752667Y-61744106D01*
X141752658Y-61744103D01*
X141578694Y-61709500D01*
X141578691Y-61709500D01*
X141401309Y-61709500D01*
X141401306Y-61709500D01*
X141227341Y-61744103D01*
X141227332Y-61744106D01*
X141063459Y-61811983D01*
X141063446Y-61811990D01*
X140915965Y-61910535D01*
X140915961Y-61910538D01*
X140790538Y-62035961D01*
X140790535Y-62035965D01*
X140691990Y-62183446D01*
X140691983Y-62183459D01*
X140624106Y-62347332D01*
X140624103Y-62347341D01*
X140589500Y-62521304D01*
X140589500Y-62698695D01*
X140624103Y-62872658D01*
X140624106Y-62872667D01*
X140691983Y-63036540D01*
X140691990Y-63036553D01*
X140790535Y-63184034D01*
X140790538Y-63184038D01*
X140828180Y-63221679D01*
X140861666Y-63283001D01*
X140864500Y-63309361D01*
X140864500Y-63972877D01*
X140844815Y-64039916D01*
X140792011Y-64085671D01*
X140722853Y-64095615D01*
X140670126Y-64072384D01*
X140669100Y-64073920D01*
X140516553Y-63971990D01*
X140516540Y-63971983D01*
X140352667Y-63904106D01*
X140352658Y-63904103D01*
X140178694Y-63869500D01*
X140178691Y-63869500D01*
X140001309Y-63869500D01*
X140001306Y-63869500D01*
X139827341Y-63904103D01*
X139827332Y-63904106D01*
X139663459Y-63971983D01*
X139663446Y-63971990D01*
X139515965Y-64070535D01*
X139515961Y-64070538D01*
X139390538Y-64195961D01*
X139390535Y-64195965D01*
X139291990Y-64343446D01*
X139291983Y-64343459D01*
X139224106Y-64507332D01*
X139224106Y-64507333D01*
X139224106Y-64507334D01*
X139212696Y-64564692D01*
X139180313Y-64626602D01*
X139119598Y-64661176D01*
X139091080Y-64664500D01*
X137738389Y-64664500D01*
X137682478Y-64675621D01*
X137682470Y-64675622D01*
X137677971Y-64676518D01*
X137617548Y-64688537D01*
X137587443Y-64701007D01*
X137580438Y-64703908D01*
X137580429Y-64703911D01*
X137503715Y-64735686D01*
X137493627Y-64742428D01*
X137493626Y-64742429D01*
X137401268Y-64804140D01*
X137365489Y-64839920D01*
X137314142Y-64891267D01*
X135034144Y-67171264D01*
X135034138Y-67171272D01*
X134965692Y-67273705D01*
X134965684Y-67273719D01*
X134937478Y-67341819D01*
X134932347Y-67354207D01*
X134926823Y-67367543D01*
X134918537Y-67387545D01*
X134918535Y-67387553D01*
X134894500Y-67508389D01*
X134894500Y-81469547D01*
X134874815Y-81536586D01*
X134858181Y-81557228D01*
X134431269Y-81984140D01*
X134431267Y-81984142D01*
X134387704Y-82027704D01*
X134344142Y-82071266D01*
X134317903Y-82110536D01*
X134317902Y-82110535D01*
X134275687Y-82173715D01*
X134250881Y-82233604D01*
X134247707Y-82241267D01*
X134228537Y-82287548D01*
X134218356Y-82338733D01*
X134205076Y-82405500D01*
X134204500Y-82408394D01*
X134204500Y-82408618D01*
X134204500Y-82815034D01*
X134184815Y-82882073D01*
X134147267Y-82916731D01*
X134148518Y-82918603D01*
X133995965Y-83020535D01*
X133995961Y-83020538D01*
X133870538Y-83145961D01*
X133870535Y-83145965D01*
X133771990Y-83293446D01*
X133771983Y-83293459D01*
X133704106Y-83457332D01*
X133704103Y-83457341D01*
X133669500Y-83631304D01*
X128265500Y-83631304D01*
X128265500Y-78048355D01*
X128285185Y-77981316D01*
X128320608Y-77945254D01*
X128434035Y-77869464D01*
X128559464Y-77744035D01*
X128658013Y-77596547D01*
X128725894Y-77432666D01*
X128760500Y-77258691D01*
X128760500Y-77081309D01*
X128760500Y-77081306D01*
X128760499Y-77081304D01*
X128725896Y-76907341D01*
X128725893Y-76907332D01*
X128658016Y-76743459D01*
X128658009Y-76743446D01*
X128559464Y-76595965D01*
X128559461Y-76595961D01*
X128434038Y-76470538D01*
X128434034Y-76470535D01*
X128286553Y-76371990D01*
X128286540Y-76371983D01*
X128122667Y-76304106D01*
X128122658Y-76304103D01*
X127948694Y-76269500D01*
X127948691Y-76269500D01*
X127844500Y-76269500D01*
X127777461Y-76249815D01*
X127731706Y-76197011D01*
X127720500Y-76145500D01*
X127720500Y-76071306D01*
X127720499Y-76071304D01*
X127685896Y-75897341D01*
X127685893Y-75897332D01*
X127618016Y-75733459D01*
X127618009Y-75733446D01*
X127519464Y-75585965D01*
X127519461Y-75585961D01*
X127394038Y-75460538D01*
X127394034Y-75460535D01*
X127246553Y-75361990D01*
X127246540Y-75361983D01*
X127082667Y-75294106D01*
X127082658Y-75294103D01*
X126908694Y-75259500D01*
X126908691Y-75259500D01*
X126731309Y-75259500D01*
X126731306Y-75259500D01*
X126557341Y-75294103D01*
X126557332Y-75294106D01*
X126393459Y-75361983D01*
X126393446Y-75361990D01*
X126245965Y-75460535D01*
X126245961Y-75460538D01*
X126120538Y-75585961D01*
X126120535Y-75585965D01*
X126021990Y-75733446D01*
X126021983Y-75733459D01*
X125954106Y-75897332D01*
X125954103Y-75897341D01*
X125919500Y-76071304D01*
X125919500Y-76248695D01*
X125954103Y-76422658D01*
X125954106Y-76422667D01*
X126021983Y-76586540D01*
X126021990Y-76586553D01*
X126120535Y-76734034D01*
X126120538Y-76734038D01*
X126158180Y-76771679D01*
X126191666Y-76833001D01*
X126194500Y-76859361D01*
X126194500Y-82329548D01*
X126174815Y-82396587D01*
X126158181Y-82417229D01*
X125397229Y-83178181D01*
X125335906Y-83211666D01*
X125309548Y-83214500D01*
X125256306Y-83214500D01*
X125082341Y-83249103D01*
X125082332Y-83249106D01*
X124918459Y-83316983D01*
X124918446Y-83316990D01*
X124770965Y-83415535D01*
X124770961Y-83415538D01*
X124645538Y-83540961D01*
X124645535Y-83540965D01*
X124546990Y-83688446D01*
X124546983Y-83688459D01*
X124479106Y-83852332D01*
X124479103Y-83852341D01*
X124444500Y-84026304D01*
X64920500Y-84026304D01*
X64920500Y-79931947D01*
X105760000Y-79931947D01*
X105760000Y-80168052D01*
X105796934Y-80401247D01*
X105869897Y-80625802D01*
X105977087Y-80836174D01*
X106037338Y-80919104D01*
X106037340Y-80919105D01*
X106736212Y-80220233D01*
X106747482Y-80262292D01*
X106819890Y-80387708D01*
X106922292Y-80490110D01*
X107047708Y-80562518D01*
X107089765Y-80573787D01*
X106390893Y-81272658D01*
X106473828Y-81332914D01*
X106684197Y-81440102D01*
X106908752Y-81513065D01*
X106908751Y-81513065D01*
X107141948Y-81550000D01*
X107378052Y-81550000D01*
X107611247Y-81513065D01*
X107835802Y-81440102D01*
X108046163Y-81332918D01*
X108046169Y-81332914D01*
X108129104Y-81272658D01*
X108129105Y-81272658D01*
X107430233Y-80573787D01*
X107472292Y-80562518D01*
X107597708Y-80490110D01*
X107700110Y-80387708D01*
X107772518Y-80262292D01*
X107783787Y-80220234D01*
X108482658Y-80919105D01*
X108482658Y-80919104D01*
X108542914Y-80836169D01*
X108542918Y-80836163D01*
X108650102Y-80625802D01*
X108723065Y-80401247D01*
X108760000Y-80168052D01*
X108760000Y-79931947D01*
X108759993Y-79931902D01*
X110259500Y-79931902D01*
X110259500Y-80168097D01*
X110296446Y-80401368D01*
X110369433Y-80625996D01*
X110476519Y-80836163D01*
X110476657Y-80836433D01*
X110615483Y-81027510D01*
X110782490Y-81194517D01*
X110973567Y-81333343D01*
X111072991Y-81384002D01*
X111184003Y-81440566D01*
X111184005Y-81440566D01*
X111184008Y-81440568D01*
X111273196Y-81469547D01*
X111408631Y-81513553D01*
X111641903Y-81550500D01*
X111641908Y-81550500D01*
X111878097Y-81550500D01*
X112111368Y-81513553D01*
X112121989Y-81510102D01*
X112335992Y-81440568D01*
X112546433Y-81333343D01*
X112737510Y-81194517D01*
X112904517Y-81027510D01*
X113043343Y-80836433D01*
X113150568Y-80625992D01*
X113223553Y-80401368D01*
X113225717Y-80387708D01*
X113260500Y-80168097D01*
X113260500Y-80001947D01*
X114510000Y-80001947D01*
X114510000Y-80238052D01*
X114546934Y-80471247D01*
X114619897Y-80695802D01*
X114727087Y-80906174D01*
X114787338Y-80989104D01*
X114787340Y-80989105D01*
X115486212Y-80290233D01*
X115497482Y-80332292D01*
X115569890Y-80457708D01*
X115672292Y-80560110D01*
X115797708Y-80632518D01*
X115839765Y-80643787D01*
X115140893Y-81342658D01*
X115223828Y-81402914D01*
X115434197Y-81510102D01*
X115658752Y-81583065D01*
X115658751Y-81583065D01*
X115891948Y-81620000D01*
X116128052Y-81620000D01*
X116361247Y-81583065D01*
X116585802Y-81510102D01*
X116796163Y-81402918D01*
X116796169Y-81402914D01*
X116879104Y-81342658D01*
X116879105Y-81342658D01*
X116180233Y-80643787D01*
X116222292Y-80632518D01*
X116347708Y-80560110D01*
X116450110Y-80457708D01*
X116522518Y-80332292D01*
X116533787Y-80290234D01*
X117232658Y-80989105D01*
X117232658Y-80989104D01*
X117292914Y-80906169D01*
X117292918Y-80906163D01*
X117400102Y-80695802D01*
X117473065Y-80471247D01*
X117510000Y-80238052D01*
X117510000Y-80001947D01*
X117473065Y-79768752D01*
X117400102Y-79544197D01*
X117292914Y-79333828D01*
X117232658Y-79250894D01*
X117232658Y-79250893D01*
X116533787Y-79949765D01*
X116522518Y-79907708D01*
X116450110Y-79782292D01*
X116347708Y-79679890D01*
X116222292Y-79607482D01*
X116180234Y-79596212D01*
X116879105Y-78897340D01*
X116879104Y-78897338D01*
X116796174Y-78837087D01*
X116585802Y-78729897D01*
X116361247Y-78656934D01*
X116361248Y-78656934D01*
X116128052Y-78620000D01*
X115891948Y-78620000D01*
X115658752Y-78656934D01*
X115434197Y-78729897D01*
X115223830Y-78837084D01*
X115140894Y-78897340D01*
X115839766Y-79596212D01*
X115797708Y-79607482D01*
X115672292Y-79679890D01*
X115569890Y-79782292D01*
X115497482Y-79907708D01*
X115486212Y-79949766D01*
X114787340Y-79250894D01*
X114727084Y-79333830D01*
X114619897Y-79544197D01*
X114546934Y-79768752D01*
X114510000Y-80001947D01*
X113260500Y-80001947D01*
X113260500Y-79931902D01*
X113223553Y-79698631D01*
X113150566Y-79474003D01*
X113043477Y-79263830D01*
X113043343Y-79263567D01*
X112904517Y-79072490D01*
X112737510Y-78905483D01*
X112546433Y-78766657D01*
X112522882Y-78754657D01*
X112335996Y-78659433D01*
X112111368Y-78586446D01*
X111878097Y-78549500D01*
X111878092Y-78549500D01*
X111641908Y-78549500D01*
X111641903Y-78549500D01*
X111408631Y-78586446D01*
X111184003Y-78659433D01*
X110973566Y-78766657D01*
X110876633Y-78837084D01*
X110782490Y-78905483D01*
X110782488Y-78905485D01*
X110782487Y-78905485D01*
X110615485Y-79072487D01*
X110615485Y-79072488D01*
X110615483Y-79072490D01*
X110564627Y-79142487D01*
X110476657Y-79263566D01*
X110369433Y-79474003D01*
X110296446Y-79698631D01*
X110259500Y-79931902D01*
X108759993Y-79931902D01*
X108723065Y-79698752D01*
X108650102Y-79474197D01*
X108542914Y-79263828D01*
X108482658Y-79180894D01*
X108482658Y-79180893D01*
X107783787Y-79879765D01*
X107772518Y-79837708D01*
X107700110Y-79712292D01*
X107597708Y-79609890D01*
X107472292Y-79537482D01*
X107430234Y-79526212D01*
X108129105Y-78827340D01*
X108129104Y-78827338D01*
X108046174Y-78767087D01*
X107835802Y-78659897D01*
X107611247Y-78586934D01*
X107611248Y-78586934D01*
X107378052Y-78550000D01*
X107141948Y-78550000D01*
X106908752Y-78586934D01*
X106684197Y-78659897D01*
X106473830Y-78767084D01*
X106390894Y-78827340D01*
X107089766Y-79526212D01*
X107047708Y-79537482D01*
X106922292Y-79609890D01*
X106819890Y-79712292D01*
X106747482Y-79837708D01*
X106736212Y-79879766D01*
X106037340Y-79180894D01*
X105977084Y-79263830D01*
X105869897Y-79474197D01*
X105796934Y-79698752D01*
X105760000Y-79931947D01*
X64920500Y-79931947D01*
X64920500Y-73431947D01*
X105760000Y-73431947D01*
X105760000Y-73668052D01*
X105796934Y-73901247D01*
X105869897Y-74125802D01*
X105977087Y-74336174D01*
X106037338Y-74419104D01*
X106037340Y-74419105D01*
X106736212Y-73720233D01*
X106747482Y-73762292D01*
X106819890Y-73887708D01*
X106922292Y-73990110D01*
X107047708Y-74062518D01*
X107089765Y-74073787D01*
X106390893Y-74772658D01*
X106473828Y-74832914D01*
X106684197Y-74940102D01*
X106908752Y-75013065D01*
X106908751Y-75013065D01*
X107141948Y-75050000D01*
X107378052Y-75050000D01*
X107611247Y-75013065D01*
X107835802Y-74940102D01*
X108046163Y-74832918D01*
X108046169Y-74832914D01*
X108129104Y-74772658D01*
X108129105Y-74772658D01*
X107430233Y-74073787D01*
X107472292Y-74062518D01*
X107597708Y-73990110D01*
X107700110Y-73887708D01*
X107772518Y-73762292D01*
X107783787Y-73720234D01*
X108482658Y-74419105D01*
X108482658Y-74419104D01*
X108542914Y-74336169D01*
X108542918Y-74336163D01*
X108650102Y-74125802D01*
X108723065Y-73901247D01*
X108760000Y-73668052D01*
X108760000Y-73431947D01*
X108759993Y-73431902D01*
X110259500Y-73431902D01*
X110259500Y-73668097D01*
X110296446Y-73901368D01*
X110369433Y-74125996D01*
X110476519Y-74336163D01*
X110476657Y-74336433D01*
X110615483Y-74527510D01*
X110782490Y-74694517D01*
X110973567Y-74833343D01*
X111072991Y-74884002D01*
X111184003Y-74940566D01*
X111184005Y-74940566D01*
X111184008Y-74940568D01*
X111304412Y-74979689D01*
X111408631Y-75013553D01*
X111641903Y-75050500D01*
X111641908Y-75050500D01*
X111878097Y-75050500D01*
X112111368Y-75013553D01*
X112121989Y-75010102D01*
X112335992Y-74940568D01*
X112546433Y-74833343D01*
X112737510Y-74694517D01*
X112904517Y-74527510D01*
X113043343Y-74336433D01*
X113150568Y-74125992D01*
X113223553Y-73901368D01*
X113225717Y-73887708D01*
X113260500Y-73668097D01*
X113260500Y-73501947D01*
X114510000Y-73501947D01*
X114510000Y-73738052D01*
X114546934Y-73971247D01*
X114619897Y-74195802D01*
X114727087Y-74406174D01*
X114787338Y-74489104D01*
X114787340Y-74489105D01*
X115486212Y-73790233D01*
X115497482Y-73832292D01*
X115569890Y-73957708D01*
X115672292Y-74060110D01*
X115797708Y-74132518D01*
X115839765Y-74143787D01*
X115140893Y-74842658D01*
X115223828Y-74902914D01*
X115434197Y-75010102D01*
X115658752Y-75083065D01*
X115658751Y-75083065D01*
X115891948Y-75120000D01*
X116128052Y-75120000D01*
X116361247Y-75083065D01*
X116585802Y-75010102D01*
X116796163Y-74902918D01*
X116796169Y-74902914D01*
X116879104Y-74842658D01*
X116879105Y-74842658D01*
X116180233Y-74143787D01*
X116222292Y-74132518D01*
X116347708Y-74060110D01*
X116450110Y-73957708D01*
X116522518Y-73832292D01*
X116533787Y-73790234D01*
X117232658Y-74489105D01*
X117232658Y-74489104D01*
X117292914Y-74406169D01*
X117292918Y-74406163D01*
X117400102Y-74195802D01*
X117473065Y-73971247D01*
X117510000Y-73738052D01*
X117510000Y-73501947D01*
X117509993Y-73501902D01*
X119009500Y-73501902D01*
X119009500Y-73738097D01*
X119046446Y-73971368D01*
X119119433Y-74195996D01*
X119190858Y-74336174D01*
X119226657Y-74406433D01*
X119365483Y-74597510D01*
X119532490Y-74764517D01*
X119627221Y-74833343D01*
X119723568Y-74903344D01*
X119784246Y-74934260D01*
X119816794Y-74950844D01*
X119867590Y-74998818D01*
X119884500Y-75061329D01*
X119884500Y-78678669D01*
X119864815Y-78745708D01*
X119816796Y-78789153D01*
X119723569Y-78836655D01*
X119640047Y-78897338D01*
X119532490Y-78975483D01*
X119532488Y-78975485D01*
X119532487Y-78975485D01*
X119365485Y-79142487D01*
X119365485Y-79142488D01*
X119365483Y-79142490D01*
X119337582Y-79180893D01*
X119226657Y-79333566D01*
X119119433Y-79544003D01*
X119046446Y-79768631D01*
X119009500Y-80001902D01*
X119009500Y-80238097D01*
X119046446Y-80471368D01*
X119119433Y-80695996D01*
X119190858Y-80836174D01*
X119226657Y-80906433D01*
X119365483Y-81097510D01*
X119532490Y-81264517D01*
X119723567Y-81403343D01*
X119796625Y-81440568D01*
X119934003Y-81510566D01*
X119934005Y-81510566D01*
X119934008Y-81510568D01*
X120014083Y-81536586D01*
X120158631Y-81583553D01*
X120391903Y-81620500D01*
X120391908Y-81620500D01*
X120628097Y-81620500D01*
X120861368Y-81583553D01*
X120862870Y-81583065D01*
X121085992Y-81510568D01*
X121296433Y-81403343D01*
X121487510Y-81264517D01*
X121654517Y-81097510D01*
X121793343Y-80906433D01*
X121900568Y-80695992D01*
X121973553Y-80471368D01*
X121984659Y-80401247D01*
X122010500Y-80238097D01*
X122010500Y-80001902D01*
X121973553Y-79768631D01*
X121900566Y-79544003D01*
X121793477Y-79333830D01*
X121793343Y-79333567D01*
X121654517Y-79142490D01*
X121487510Y-78975483D01*
X121296433Y-78836657D01*
X121296432Y-78836656D01*
X121296430Y-78836655D01*
X121203204Y-78789153D01*
X121152409Y-78741178D01*
X121135500Y-78678669D01*
X121135500Y-75061329D01*
X121155185Y-74994290D01*
X121203205Y-74950844D01*
X121296433Y-74903343D01*
X121487510Y-74764517D01*
X121654517Y-74597510D01*
X121793343Y-74406433D01*
X121900568Y-74195992D01*
X121973553Y-73971368D01*
X121984659Y-73901247D01*
X122010500Y-73738097D01*
X122010500Y-73501902D01*
X121973553Y-73268631D01*
X121900566Y-73044003D01*
X121793477Y-72833830D01*
X121793343Y-72833567D01*
X121654517Y-72642490D01*
X121487510Y-72475483D01*
X121296433Y-72336657D01*
X121085996Y-72229433D01*
X120861368Y-72156446D01*
X120628097Y-72119500D01*
X120628092Y-72119500D01*
X120391908Y-72119500D01*
X120391903Y-72119500D01*
X120158631Y-72156446D01*
X119934003Y-72229433D01*
X119723566Y-72336657D01*
X119640047Y-72397338D01*
X119532490Y-72475483D01*
X119532488Y-72475485D01*
X119532487Y-72475485D01*
X119365485Y-72642487D01*
X119365485Y-72642488D01*
X119365483Y-72642490D01*
X119337582Y-72680893D01*
X119226657Y-72833566D01*
X119119433Y-73044003D01*
X119046446Y-73268631D01*
X119009500Y-73501902D01*
X117509993Y-73501902D01*
X117473065Y-73268752D01*
X117400102Y-73044197D01*
X117292914Y-72833828D01*
X117232658Y-72750894D01*
X117232658Y-72750893D01*
X116533787Y-73449765D01*
X116522518Y-73407708D01*
X116450110Y-73282292D01*
X116347708Y-73179890D01*
X116222292Y-73107482D01*
X116180234Y-73096212D01*
X116879105Y-72397340D01*
X116879104Y-72397338D01*
X116796174Y-72337087D01*
X116585802Y-72229897D01*
X116361247Y-72156934D01*
X116361248Y-72156934D01*
X116128052Y-72120000D01*
X115891948Y-72120000D01*
X115658752Y-72156934D01*
X115434197Y-72229897D01*
X115223830Y-72337084D01*
X115140894Y-72397340D01*
X115839766Y-73096212D01*
X115797708Y-73107482D01*
X115672292Y-73179890D01*
X115569890Y-73282292D01*
X115497482Y-73407708D01*
X115486212Y-73449766D01*
X114787340Y-72750894D01*
X114727084Y-72833830D01*
X114619897Y-73044197D01*
X114546934Y-73268752D01*
X114510000Y-73501947D01*
X113260500Y-73501947D01*
X113260500Y-73431902D01*
X113223553Y-73198631D01*
X113150566Y-72974003D01*
X113043477Y-72763830D01*
X113043343Y-72763567D01*
X112904517Y-72572490D01*
X112737510Y-72405483D01*
X112546433Y-72266657D01*
X112335996Y-72159433D01*
X112111368Y-72086446D01*
X111878097Y-72049500D01*
X111878092Y-72049500D01*
X111641908Y-72049500D01*
X111641903Y-72049500D01*
X111408631Y-72086446D01*
X111184003Y-72159433D01*
X110973566Y-72266657D01*
X110876633Y-72337084D01*
X110782490Y-72405483D01*
X110782488Y-72405485D01*
X110782487Y-72405485D01*
X110615485Y-72572487D01*
X110615485Y-72572488D01*
X110615483Y-72572490D01*
X110564627Y-72642487D01*
X110476657Y-72763566D01*
X110369433Y-72974003D01*
X110296446Y-73198631D01*
X110259500Y-73431902D01*
X108759993Y-73431902D01*
X108723065Y-73198752D01*
X108650102Y-72974197D01*
X108542914Y-72763828D01*
X108482658Y-72680894D01*
X108482658Y-72680893D01*
X107783787Y-73379765D01*
X107772518Y-73337708D01*
X107700110Y-73212292D01*
X107597708Y-73109890D01*
X107472292Y-73037482D01*
X107430234Y-73026212D01*
X108129105Y-72327340D01*
X108129104Y-72327338D01*
X108046174Y-72267087D01*
X107835802Y-72159897D01*
X107611247Y-72086934D01*
X107611248Y-72086934D01*
X107378052Y-72050000D01*
X107141948Y-72050000D01*
X106908752Y-72086934D01*
X106684197Y-72159897D01*
X106473830Y-72267084D01*
X106390894Y-72327340D01*
X107089766Y-73026212D01*
X107047708Y-73037482D01*
X106922292Y-73109890D01*
X106819890Y-73212292D01*
X106747482Y-73337708D01*
X106736212Y-73379766D01*
X106037340Y-72680894D01*
X105977084Y-72763830D01*
X105869897Y-72974197D01*
X105796934Y-73198752D01*
X105760000Y-73431947D01*
X64920500Y-73431947D01*
X64920500Y-68059983D01*
X70959500Y-68059983D01*
X70959500Y-69260001D01*
X70959501Y-69260018D01*
X70970000Y-69362796D01*
X70970001Y-69362799D01*
X71025185Y-69529331D01*
X71025186Y-69529334D01*
X71117288Y-69678656D01*
X71241344Y-69802712D01*
X71390666Y-69894814D01*
X71557203Y-69949999D01*
X71659991Y-69960500D01*
X72860008Y-69960499D01*
X72962797Y-69949999D01*
X73129334Y-69894814D01*
X73278656Y-69802712D01*
X73402712Y-69678656D01*
X73494814Y-69529334D01*
X73549999Y-69362797D01*
X73560500Y-69260009D01*
X73560499Y-68059992D01*
X73549999Y-67957203D01*
X73494814Y-67790666D01*
X73402712Y-67641344D01*
X73278656Y-67517288D01*
X73129334Y-67425186D01*
X72962797Y-67370001D01*
X72962795Y-67370000D01*
X72860010Y-67359500D01*
X71659998Y-67359500D01*
X71659981Y-67359501D01*
X71557203Y-67370000D01*
X71557200Y-67370001D01*
X71390668Y-67425185D01*
X71390663Y-67425187D01*
X71241342Y-67517289D01*
X71117289Y-67641342D01*
X71025187Y-67790663D01*
X71025186Y-67790666D01*
X70970001Y-67957203D01*
X70970001Y-67957204D01*
X70970000Y-67957204D01*
X70959500Y-68059983D01*
X64920500Y-68059983D01*
X64920500Y-65057682D01*
X70960000Y-65057682D01*
X70960000Y-65262317D01*
X70992009Y-65464417D01*
X71055244Y-65659031D01*
X71148141Y-65841350D01*
X71148147Y-65841359D01*
X71180523Y-65885921D01*
X71180524Y-65885922D01*
X71860000Y-65206446D01*
X71860000Y-65212661D01*
X71887259Y-65314394D01*
X71939920Y-65405606D01*
X72014394Y-65480080D01*
X72105606Y-65532741D01*
X72207339Y-65560000D01*
X72213553Y-65560000D01*
X71534076Y-66239474D01*
X71578650Y-66271859D01*
X71760968Y-66364755D01*
X71955582Y-66427990D01*
X72157683Y-66460000D01*
X72362317Y-66460000D01*
X72564417Y-66427990D01*
X72759031Y-66364755D01*
X72941349Y-66271859D01*
X72985921Y-66239474D01*
X72306447Y-65560000D01*
X72312661Y-65560000D01*
X72414394Y-65532741D01*
X72505606Y-65480080D01*
X72580080Y-65405606D01*
X72632741Y-65314394D01*
X72660000Y-65212661D01*
X72660000Y-65206447D01*
X73339474Y-65885921D01*
X73371859Y-65841349D01*
X73464755Y-65659031D01*
X73527990Y-65464417D01*
X73560000Y-65262317D01*
X73560000Y-65057682D01*
X73527989Y-64855581D01*
X73527989Y-64855578D01*
X73507830Y-64793535D01*
X73497357Y-64761304D01*
X112859500Y-64761304D01*
X112859500Y-64938695D01*
X112894103Y-65112658D01*
X112894106Y-65112667D01*
X112961983Y-65276540D01*
X112961990Y-65276553D01*
X113060535Y-65424034D01*
X113060538Y-65424038D01*
X113185961Y-65549461D01*
X113185965Y-65549464D01*
X113333446Y-65648009D01*
X113333459Y-65648016D01*
X113456363Y-65698923D01*
X113497334Y-65715894D01*
X113497336Y-65715894D01*
X113497341Y-65715896D01*
X113671304Y-65750499D01*
X113671307Y-65750500D01*
X113671309Y-65750500D01*
X113848693Y-65750500D01*
X113848694Y-65750499D01*
X113906682Y-65738964D01*
X114022658Y-65715896D01*
X114022661Y-65715894D01*
X114022666Y-65715894D01*
X114186547Y-65648013D01*
X114334035Y-65549464D01*
X114459464Y-65424035D01*
X114558013Y-65276547D01*
X114563907Y-65262317D01*
X114601298Y-65172048D01*
X114645139Y-65117644D01*
X114711433Y-65095579D01*
X114715859Y-65095500D01*
X119711607Y-65095500D01*
X119772029Y-65083481D01*
X119832452Y-65071463D01*
X119873860Y-65054311D01*
X119946286Y-65024312D01*
X120003835Y-64985858D01*
X120003836Y-64985858D01*
X120033561Y-64965995D01*
X120048733Y-64955858D01*
X120135858Y-64868733D01*
X120135858Y-64868731D01*
X120146066Y-64858524D01*
X120146067Y-64858521D01*
X122121521Y-62883068D01*
X122144151Y-62865184D01*
X122152587Y-62859985D01*
X122166286Y-62854312D01*
X122217509Y-62820084D01*
X122268733Y-62785858D01*
X122355858Y-62698733D01*
X122355859Y-62698731D01*
X122362925Y-62691665D01*
X122362928Y-62691661D01*
X122951929Y-62102659D01*
X123013250Y-62069176D01*
X123082942Y-62074160D01*
X123087056Y-62075779D01*
X123087334Y-62075894D01*
X123221900Y-62102661D01*
X123261304Y-62110499D01*
X123261307Y-62110500D01*
X123261309Y-62110500D01*
X123438693Y-62110500D01*
X123438694Y-62110499D01*
X123496682Y-62098964D01*
X123612658Y-62075896D01*
X123612661Y-62075894D01*
X123612666Y-62075894D01*
X123776547Y-62008013D01*
X123924035Y-61909464D01*
X124049464Y-61784035D01*
X124148013Y-61636547D01*
X124215894Y-61472666D01*
X124250500Y-61298691D01*
X124250500Y-61121309D01*
X124250500Y-61121306D01*
X124250499Y-61121304D01*
X124215896Y-60947341D01*
X124215893Y-60947332D01*
X124148016Y-60783459D01*
X124148009Y-60783446D01*
X124049464Y-60635965D01*
X124049461Y-60635961D01*
X123924038Y-60510538D01*
X123924034Y-60510535D01*
X123776553Y-60411990D01*
X123776540Y-60411983D01*
X123612667Y-60344106D01*
X123612658Y-60344103D01*
X123438694Y-60309500D01*
X123438691Y-60309500D01*
X123261309Y-60309500D01*
X123261306Y-60309500D01*
X123087341Y-60344103D01*
X123087332Y-60344106D01*
X122923459Y-60411983D01*
X122923446Y-60411990D01*
X122775966Y-60510534D01*
X122650533Y-60635968D01*
X122629799Y-60666998D01*
X122609384Y-60690512D01*
X122602858Y-60696350D01*
X122561267Y-60724142D01*
X122474142Y-60811267D01*
X122474139Y-60811270D01*
X122471711Y-60813697D01*
X122471702Y-60813706D01*
X121568479Y-61716929D01*
X121528257Y-61743806D01*
X121523720Y-61745685D01*
X121523717Y-61745687D01*
X121424493Y-61811987D01*
X121421265Y-61814143D01*
X121421261Y-61814146D01*
X119427229Y-63808181D01*
X119365906Y-63841666D01*
X119339548Y-63844500D01*
X114078389Y-63844500D01*
X114021238Y-63855867D01*
X114021216Y-63855872D01*
X114017971Y-63856518D01*
X113957548Y-63868537D01*
X113943155Y-63874499D01*
X113934968Y-63877889D01*
X113934964Y-63877891D01*
X113843714Y-63915687D01*
X113824389Y-63928601D01*
X113757712Y-63949480D01*
X113755497Y-63949500D01*
X113671306Y-63949500D01*
X113497341Y-63984103D01*
X113497332Y-63984106D01*
X113333459Y-64051983D01*
X113333446Y-64051990D01*
X113185965Y-64150535D01*
X113185961Y-64150538D01*
X113060538Y-64275961D01*
X113060535Y-64275965D01*
X112961990Y-64423446D01*
X112961983Y-64423459D01*
X112894106Y-64587332D01*
X112894103Y-64587341D01*
X112859500Y-64761304D01*
X73497357Y-64761304D01*
X73464755Y-64660968D01*
X73371859Y-64478650D01*
X73339474Y-64434077D01*
X73339474Y-64434076D01*
X72660000Y-65113551D01*
X72660000Y-65107339D01*
X72632741Y-65005606D01*
X72580080Y-64914394D01*
X72505606Y-64839920D01*
X72414394Y-64787259D01*
X72312661Y-64760000D01*
X72306446Y-64760000D01*
X72985922Y-64080524D01*
X72985921Y-64080523D01*
X72941359Y-64048147D01*
X72941350Y-64048141D01*
X72759031Y-63955244D01*
X72564417Y-63892009D01*
X72362317Y-63860000D01*
X72157683Y-63860000D01*
X71955582Y-63892009D01*
X71760968Y-63955244D01*
X71578644Y-64048143D01*
X71534077Y-64080523D01*
X71534077Y-64080524D01*
X72213554Y-64760000D01*
X72207339Y-64760000D01*
X72105606Y-64787259D01*
X72014394Y-64839920D01*
X71939920Y-64914394D01*
X71887259Y-65005606D01*
X71860000Y-65107339D01*
X71860000Y-65113553D01*
X71180524Y-64434077D01*
X71180523Y-64434077D01*
X71148143Y-64478644D01*
X71055244Y-64660968D01*
X70992009Y-64855582D01*
X70960000Y-65057682D01*
X64920500Y-65057682D01*
X64920500Y-60032135D01*
X78609500Y-60032135D01*
X78609500Y-61727870D01*
X78609501Y-61727876D01*
X78615908Y-61787483D01*
X78666202Y-61922328D01*
X78666206Y-61922335D01*
X78752452Y-62037544D01*
X78752455Y-62037547D01*
X78867664Y-62123793D01*
X78867671Y-62123797D01*
X79002517Y-62174091D01*
X79002516Y-62174091D01*
X79009444Y-62174835D01*
X79062127Y-62180500D01*
X80757872Y-62180499D01*
X80817483Y-62174091D01*
X80952331Y-62123796D01*
X81067546Y-62037546D01*
X81153796Y-61922331D01*
X81204091Y-61787483D01*
X81210500Y-61727873D01*
X81210499Y-60032128D01*
X81204091Y-59972517D01*
X81153796Y-59837669D01*
X81153795Y-59837668D01*
X81153793Y-59837664D01*
X81067547Y-59722455D01*
X81067544Y-59722452D01*
X80952335Y-59636206D01*
X80952328Y-59636202D01*
X80817482Y-59585908D01*
X80817483Y-59585908D01*
X80757883Y-59579501D01*
X80757881Y-59579500D01*
X80757873Y-59579500D01*
X80757864Y-59579500D01*
X79062129Y-59579500D01*
X79062123Y-59579501D01*
X79002516Y-59585908D01*
X78867671Y-59636202D01*
X78867664Y-59636206D01*
X78752455Y-59722452D01*
X78752452Y-59722455D01*
X78666206Y-59837664D01*
X78666202Y-59837671D01*
X78615908Y-59972517D01*
X78611323Y-60015168D01*
X78609501Y-60032123D01*
X78609500Y-60032135D01*
X64920500Y-60032135D01*
X64920500Y-54160000D01*
X71104645Y-54160000D01*
X72834018Y-54160000D01*
X72823389Y-54178409D01*
X72782500Y-54331009D01*
X72782500Y-54488991D01*
X72823389Y-54641591D01*
X72834018Y-54660000D01*
X71104645Y-54660000D01*
X71116973Y-54737835D01*
X71116973Y-54737838D01*
X71185067Y-54947410D01*
X71285113Y-55143760D01*
X71414642Y-55322041D01*
X71570458Y-55477857D01*
X71748739Y-55607386D01*
X71945089Y-55707432D01*
X72154664Y-55775526D01*
X72372319Y-55810000D01*
X73132500Y-55810000D01*
X73132500Y-54958482D01*
X73150909Y-54969111D01*
X73303509Y-55010000D01*
X73461491Y-55010000D01*
X73614091Y-54969111D01*
X73632500Y-54958482D01*
X73632500Y-55810000D01*
X74392681Y-55810000D01*
X74610335Y-55775526D01*
X74819910Y-55707432D01*
X75016260Y-55607386D01*
X75194541Y-55477857D01*
X75350357Y-55322041D01*
X75479886Y-55143760D01*
X75579932Y-54947410D01*
X75648026Y-54737838D01*
X75648026Y-54737835D01*
X75660355Y-54660000D01*
X73930982Y-54660000D01*
X73941611Y-54641591D01*
X73982500Y-54488991D01*
X73982500Y-54331009D01*
X73941611Y-54178409D01*
X73930982Y-54160000D01*
X75660355Y-54160000D01*
X75648026Y-54082164D01*
X75648026Y-54082161D01*
X75579932Y-53872589D01*
X75479886Y-53676239D01*
X75350357Y-53497958D01*
X75194541Y-53342142D01*
X75194535Y-53342137D01*
X75071993Y-53253105D01*
X75071977Y-53253094D01*
X75016260Y-53212613D01*
X74908386Y-53157648D01*
X78609500Y-53157648D01*
X78609500Y-53362351D01*
X78641522Y-53564534D01*
X78704781Y-53759223D01*
X78797715Y-53941613D01*
X78918028Y-54107213D01*
X79062786Y-54251971D01*
X79171575Y-54331009D01*
X79228390Y-54372287D01*
X79344607Y-54431503D01*
X79410776Y-54465218D01*
X79410778Y-54465218D01*
X79410781Y-54465220D01*
X79483941Y-54488991D01*
X79605465Y-54528477D01*
X79656417Y-54536547D01*
X79807648Y-54560500D01*
X79807649Y-54560500D01*
X80012351Y-54560500D01*
X80012352Y-54560500D01*
X80214534Y-54528477D01*
X80409219Y-54465220D01*
X80591610Y-54372287D01*
X80684590Y-54304732D01*
X80757213Y-54251971D01*
X80757215Y-54251968D01*
X80757219Y-54251966D01*
X80901966Y-54107219D01*
X80901968Y-54107215D01*
X80901971Y-54107213D01*
X80987521Y-53989461D01*
X81022287Y-53941610D01*
X81115220Y-53759219D01*
X81178477Y-53564534D01*
X81180837Y-53549635D01*
X81659500Y-53549635D01*
X81659500Y-55550370D01*
X81659501Y-55550376D01*
X81665908Y-55609983D01*
X81716202Y-55744828D01*
X81716206Y-55744835D01*
X81802452Y-55860044D01*
X81802455Y-55860047D01*
X81917664Y-55946293D01*
X81917669Y-55946296D01*
X81945539Y-55956690D01*
X82001473Y-55998561D01*
X82025891Y-56064024D01*
X82011040Y-56132298D01*
X82002525Y-56145759D01*
X81869783Y-56328461D01*
X81765950Y-56532244D01*
X81695278Y-56749750D01*
X81695278Y-56749753D01*
X81695278Y-56749755D01*
X81659500Y-56975646D01*
X81659500Y-57204354D01*
X81677389Y-57317299D01*
X81695278Y-57430246D01*
X81695278Y-57430249D01*
X81765950Y-57647755D01*
X81851146Y-57814961D01*
X81869783Y-57851538D01*
X82004214Y-58036566D01*
X82165934Y-58198286D01*
X82235423Y-58248773D01*
X82250438Y-58259682D01*
X82293103Y-58315013D01*
X82299082Y-58384626D01*
X82266476Y-58446421D01*
X82250438Y-58460318D01*
X82165932Y-58521715D01*
X82004216Y-58683431D01*
X82004216Y-58683432D01*
X82004214Y-58683434D01*
X81946480Y-58762896D01*
X81869783Y-58868461D01*
X81765950Y-59072244D01*
X81695278Y-59289750D01*
X81695278Y-59289753D01*
X81659500Y-59515646D01*
X81659500Y-59744353D01*
X81695278Y-59970246D01*
X81695278Y-59970249D01*
X81765950Y-60187755D01*
X81845614Y-60344103D01*
X81869783Y-60391538D01*
X82004214Y-60576566D01*
X82165934Y-60738286D01*
X82350962Y-60872717D01*
X82497420Y-60947341D01*
X82554744Y-60976549D01*
X82772251Y-61047221D01*
X82772252Y-61047221D01*
X82772255Y-61047222D01*
X82998146Y-61083000D01*
X82998147Y-61083000D01*
X83321853Y-61083000D01*
X83321854Y-61083000D01*
X83547745Y-61047222D01*
X83547748Y-61047221D01*
X83547749Y-61047221D01*
X83765255Y-60976549D01*
X83765255Y-60976548D01*
X83765258Y-60976548D01*
X83969038Y-60872717D01*
X84154066Y-60738286D01*
X84315786Y-60576566D01*
X84450217Y-60391538D01*
X84554048Y-60187758D01*
X84604615Y-60032128D01*
X84624721Y-59970249D01*
X84624721Y-59970248D01*
X84624722Y-59970245D01*
X84660500Y-59744354D01*
X84660500Y-59515646D01*
X84624722Y-59289755D01*
X84624721Y-59289751D01*
X84624721Y-59289750D01*
X84554049Y-59072244D01*
X84450216Y-58868461D01*
X84315786Y-58683434D01*
X84154066Y-58521714D01*
X84069559Y-58460316D01*
X84026896Y-58404988D01*
X84020917Y-58335375D01*
X84053523Y-58273580D01*
X84069556Y-58259685D01*
X84154066Y-58198286D01*
X84315786Y-58036566D01*
X84450217Y-57851538D01*
X84554048Y-57647758D01*
X84585649Y-57550499D01*
X84624721Y-57430249D01*
X84624721Y-57430248D01*
X84624722Y-57430245D01*
X84660500Y-57204354D01*
X84660500Y-56975646D01*
X84655248Y-56942486D01*
X97569500Y-56942486D01*
X97569500Y-57237513D01*
X97597214Y-57448013D01*
X97608007Y-57529993D01*
X97667958Y-57753733D01*
X97684361Y-57814951D01*
X97684364Y-57814961D01*
X97797254Y-58087500D01*
X97797258Y-58087510D01*
X97944761Y-58342993D01*
X98124352Y-58577040D01*
X98124358Y-58577047D01*
X98332952Y-58785641D01*
X98332959Y-58785647D01*
X98567006Y-58965238D01*
X98822489Y-59112741D01*
X98822490Y-59112741D01*
X98822493Y-59112743D01*
X99095048Y-59225639D01*
X99380007Y-59301993D01*
X99672494Y-59340500D01*
X99672501Y-59340500D01*
X99967499Y-59340500D01*
X99967506Y-59340500D01*
X100259993Y-59301993D01*
X100544952Y-59225639D01*
X100817507Y-59112743D01*
X101072994Y-58965238D01*
X101307042Y-58785646D01*
X101515646Y-58577042D01*
X101695238Y-58342994D01*
X101842743Y-58087507D01*
X101955639Y-57814952D01*
X102031993Y-57529993D01*
X102070500Y-57237506D01*
X102070500Y-56942494D01*
X102031993Y-56650007D01*
X102008225Y-56561304D01*
X132239500Y-56561304D01*
X132239500Y-56738695D01*
X132274103Y-56912658D01*
X132274106Y-56912667D01*
X132341983Y-57076540D01*
X132341990Y-57076553D01*
X132440535Y-57224034D01*
X132440538Y-57224038D01*
X132565961Y-57349461D01*
X132565965Y-57349464D01*
X132713446Y-57448009D01*
X132713459Y-57448016D01*
X132836363Y-57498923D01*
X132877334Y-57515894D01*
X132877336Y-57515894D01*
X132877341Y-57515896D01*
X133051304Y-57550499D01*
X133051307Y-57550500D01*
X133051309Y-57550500D01*
X133228693Y-57550500D01*
X133228694Y-57550499D01*
X133294292Y-57537451D01*
X133402658Y-57515896D01*
X133402661Y-57515894D01*
X133402666Y-57515894D01*
X133566547Y-57448013D01*
X133714035Y-57349464D01*
X133801681Y-57261817D01*
X133863002Y-57228334D01*
X133889361Y-57225500D01*
X136095500Y-57225500D01*
X136162539Y-57245185D01*
X136208294Y-57297989D01*
X136219500Y-57349500D01*
X136219500Y-57416606D01*
X136239249Y-57515894D01*
X136242051Y-57529983D01*
X136243538Y-57537455D01*
X136290685Y-57651280D01*
X136290687Y-57651283D01*
X136290688Y-57651286D01*
X136324915Y-57702509D01*
X136359142Y-57753733D01*
X136446267Y-57840858D01*
X136446270Y-57840860D01*
X136453554Y-57848144D01*
X139601016Y-60995606D01*
X139601045Y-60995637D01*
X139691263Y-61085855D01*
X139691271Y-61085861D01*
X139730587Y-61112132D01*
X139730594Y-61112136D01*
X139735912Y-61115689D01*
X139793714Y-61154312D01*
X139865732Y-61184142D01*
X139907548Y-61201463D01*
X139967971Y-61213481D01*
X140028393Y-61225500D01*
X140028394Y-61225500D01*
X143789548Y-61225500D01*
X143856587Y-61245185D01*
X143877229Y-61261819D01*
X144508181Y-61892771D01*
X144522884Y-61919698D01*
X144539477Y-61945517D01*
X144540368Y-61951717D01*
X144541666Y-61954094D01*
X144544500Y-61980452D01*
X144544500Y-62082212D01*
X144524815Y-62149251D01*
X144523602Y-62151103D01*
X144501988Y-62183449D01*
X144501987Y-62183452D01*
X144434106Y-62347332D01*
X144434103Y-62347341D01*
X144399500Y-62521304D01*
X144399500Y-62698695D01*
X144434103Y-62872658D01*
X144434106Y-62872667D01*
X144501983Y-63036540D01*
X144501990Y-63036553D01*
X144600535Y-63184034D01*
X144600538Y-63184038D01*
X144725961Y-63309461D01*
X144725965Y-63309464D01*
X144873446Y-63408009D01*
X144873459Y-63408016D01*
X144996363Y-63458923D01*
X145037334Y-63475894D01*
X145037336Y-63475894D01*
X145037341Y-63475896D01*
X145211304Y-63510499D01*
X145211307Y-63510500D01*
X145211309Y-63510500D01*
X145388693Y-63510500D01*
X145388694Y-63510499D01*
X145446682Y-63498964D01*
X145562658Y-63475896D01*
X145562661Y-63475894D01*
X145562666Y-63475894D01*
X145726547Y-63408013D01*
X145874035Y-63309464D01*
X145999464Y-63184035D01*
X146098013Y-63036547D01*
X146165894Y-62872666D01*
X146167383Y-62865184D01*
X146188964Y-62756682D01*
X146200500Y-62698691D01*
X146200500Y-62521309D01*
X146200500Y-62521306D01*
X146200499Y-62521304D01*
X146165896Y-62347341D01*
X146165893Y-62347332D01*
X146098016Y-62183459D01*
X146098009Y-62183446D01*
X145999464Y-62035965D01*
X145999461Y-62035961D01*
X145874036Y-61910536D01*
X145850607Y-61894881D01*
X145845517Y-61888790D01*
X145838297Y-61885493D01*
X145823432Y-61862362D01*
X145805803Y-61841267D01*
X145803851Y-61831894D01*
X145800523Y-61826715D01*
X145795500Y-61791780D01*
X145795500Y-61737741D01*
X145795501Y-61737720D01*
X145795501Y-61608391D01*
X145771464Y-61487553D01*
X145771463Y-61487550D01*
X145771463Y-61487549D01*
X145765298Y-61472666D01*
X145732073Y-61392452D01*
X145724312Y-61373715D01*
X145655858Y-61271267D01*
X145655855Y-61271263D01*
X144595822Y-60211232D01*
X144585859Y-60201269D01*
X144585858Y-60201267D01*
X144498733Y-60114142D01*
X144447509Y-60079915D01*
X144396286Y-60045688D01*
X144396283Y-60045686D01*
X144396280Y-60045685D01*
X144322603Y-60015168D01*
X144322601Y-60015167D01*
X144315792Y-60012347D01*
X144282452Y-59998537D01*
X144222029Y-59986518D01*
X144217306Y-59985578D01*
X144217304Y-59985578D01*
X144161610Y-59974500D01*
X144161607Y-59974500D01*
X144161606Y-59974500D01*
X140400452Y-59974500D01*
X140333413Y-59954815D01*
X140312771Y-59938181D01*
X137618088Y-57243498D01*
X137584603Y-57182175D01*
X137589587Y-57112483D01*
X137602662Y-57086934D01*
X137643013Y-57026547D01*
X137710894Y-56862666D01*
X137745500Y-56688691D01*
X137745500Y-56511309D01*
X137745500Y-56511306D01*
X137745499Y-56511304D01*
X137710896Y-56337341D01*
X137710893Y-56337332D01*
X137643016Y-56173459D01*
X137643009Y-56173446D01*
X137544464Y-56025965D01*
X137544461Y-56025961D01*
X137419038Y-55900538D01*
X137419034Y-55900535D01*
X137271553Y-55801990D01*
X137271540Y-55801983D01*
X137107667Y-55734106D01*
X137107658Y-55734103D01*
X136933694Y-55699500D01*
X136933691Y-55699500D01*
X136756309Y-55699500D01*
X136756306Y-55699500D01*
X136582341Y-55734103D01*
X136582332Y-55734106D01*
X136418459Y-55801983D01*
X136418446Y-55801990D01*
X136270965Y-55900535D01*
X136270961Y-55900538D01*
X136233321Y-55938180D01*
X136171999Y-55971666D01*
X136145639Y-55974500D01*
X133787515Y-55974500D01*
X133720476Y-55954815D01*
X133718624Y-55953602D01*
X133566553Y-55851990D01*
X133566540Y-55851983D01*
X133402667Y-55784106D01*
X133402658Y-55784103D01*
X133228694Y-55749500D01*
X133228691Y-55749500D01*
X133051309Y-55749500D01*
X133051306Y-55749500D01*
X132877341Y-55784103D01*
X132877332Y-55784106D01*
X132713459Y-55851983D01*
X132713446Y-55851990D01*
X132565965Y-55950535D01*
X132565961Y-55950538D01*
X132440538Y-56075961D01*
X132440535Y-56075965D01*
X132341990Y-56223446D01*
X132341983Y-56223459D01*
X132274106Y-56387332D01*
X132274103Y-56387341D01*
X132239500Y-56561304D01*
X102008225Y-56561304D01*
X101955639Y-56365048D01*
X101944159Y-56337334D01*
X101896988Y-56223453D01*
X101842743Y-56092493D01*
X101833198Y-56075961D01*
X101695238Y-55837006D01*
X101515647Y-55602959D01*
X101515641Y-55602952D01*
X101307047Y-55394358D01*
X101307040Y-55394352D01*
X101072993Y-55214761D01*
X100817510Y-55067258D01*
X100817500Y-55067254D01*
X100544961Y-54954364D01*
X100544954Y-54954362D01*
X100544952Y-54954361D01*
X100259993Y-54878007D01*
X100211113Y-54871571D01*
X99967513Y-54839500D01*
X99967506Y-54839500D01*
X99672494Y-54839500D01*
X99672486Y-54839500D01*
X99394085Y-54876153D01*
X99380007Y-54878007D01*
X99193396Y-54928009D01*
X99095048Y-54954361D01*
X99095038Y-54954364D01*
X98822499Y-55067254D01*
X98822489Y-55067258D01*
X98567006Y-55214761D01*
X98332959Y-55394352D01*
X98332952Y-55394358D01*
X98124358Y-55602952D01*
X98124352Y-55602959D01*
X97944761Y-55837006D01*
X97797258Y-56092489D01*
X97797254Y-56092499D01*
X97684364Y-56365038D01*
X97684361Y-56365048D01*
X97624807Y-56587310D01*
X97608008Y-56650004D01*
X97608006Y-56650015D01*
X97569500Y-56942486D01*
X84655248Y-56942486D01*
X84624722Y-56749755D01*
X84624721Y-56749751D01*
X84624721Y-56749750D01*
X84554049Y-56532244D01*
X84543381Y-56511306D01*
X84450217Y-56328462D01*
X84317472Y-56145755D01*
X84293994Y-56079953D01*
X84309819Y-56011899D01*
X84359925Y-55963204D01*
X84374455Y-55956692D01*
X84402331Y-55946296D01*
X84517546Y-55860046D01*
X84603796Y-55744831D01*
X84654091Y-55609983D01*
X84660500Y-55550373D01*
X84660499Y-53549628D01*
X84654091Y-53490017D01*
X84652033Y-53484500D01*
X84603797Y-53355171D01*
X84603796Y-53355169D01*
X84539685Y-53269528D01*
X84539684Y-53269527D01*
X84535624Y-53264103D01*
X84517546Y-53239954D01*
X84517544Y-53239953D01*
X84517544Y-53239952D01*
X84465917Y-53201304D01*
X104139500Y-53201304D01*
X104139500Y-53378695D01*
X104174103Y-53552658D01*
X104174106Y-53552667D01*
X104241983Y-53716540D01*
X104241990Y-53716553D01*
X104340535Y-53864034D01*
X104340538Y-53864038D01*
X104465961Y-53989461D01*
X104465965Y-53989464D01*
X104613446Y-54088009D01*
X104613459Y-54088016D01*
X104736363Y-54138923D01*
X104777334Y-54155894D01*
X104777336Y-54155894D01*
X104777341Y-54155896D01*
X104951304Y-54190499D01*
X104951307Y-54190500D01*
X104951309Y-54190500D01*
X105128693Y-54190500D01*
X105128694Y-54190499D01*
X105189476Y-54178409D01*
X105302658Y-54155896D01*
X105302661Y-54155894D01*
X105302666Y-54155894D01*
X105466547Y-54088013D01*
X105566383Y-54021304D01*
X132579500Y-54021304D01*
X132579500Y-54198695D01*
X132614103Y-54372658D01*
X132614106Y-54372667D01*
X132681983Y-54536540D01*
X132681990Y-54536553D01*
X132780535Y-54684034D01*
X132780538Y-54684038D01*
X132905961Y-54809461D01*
X132905965Y-54809464D01*
X133053446Y-54908009D01*
X133053459Y-54908016D01*
X133148567Y-54947410D01*
X133217334Y-54975894D01*
X133217336Y-54975894D01*
X133217341Y-54975896D01*
X133391304Y-55010499D01*
X133391307Y-55010500D01*
X133391309Y-55010500D01*
X133568693Y-55010500D01*
X133568694Y-55010499D01*
X133642125Y-54995893D01*
X133742658Y-54975896D01*
X133742661Y-54975894D01*
X133742666Y-54975894D01*
X133906547Y-54908013D01*
X134054035Y-54809464D01*
X134091679Y-54771820D01*
X134153001Y-54738334D01*
X134179361Y-54735500D01*
X136400639Y-54735500D01*
X136467678Y-54755185D01*
X136488315Y-54771814D01*
X136525962Y-54809461D01*
X136545966Y-54829465D01*
X136693446Y-54928009D01*
X136693459Y-54928016D01*
X136792673Y-54969111D01*
X136857334Y-54995894D01*
X136857336Y-54995894D01*
X136857341Y-54995896D01*
X137031304Y-55030499D01*
X137031307Y-55030500D01*
X137031309Y-55030500D01*
X137208693Y-55030500D01*
X137208694Y-55030499D01*
X137266682Y-55018964D01*
X137382658Y-54995896D01*
X137382661Y-54995894D01*
X137382666Y-54995894D01*
X137546547Y-54928013D01*
X137694035Y-54829464D01*
X137819464Y-54704035D01*
X137918013Y-54556547D01*
X137985894Y-54392666D01*
X137989873Y-54372666D01*
X138020499Y-54218695D01*
X138020500Y-54218693D01*
X138020500Y-54041306D01*
X138020499Y-54041304D01*
X137985896Y-53867341D01*
X137985893Y-53867332D01*
X137984527Y-53864035D01*
X137962146Y-53810000D01*
X137918016Y-53703459D01*
X137918009Y-53703446D01*
X137819464Y-53555965D01*
X137819461Y-53555961D01*
X137694038Y-53430538D01*
X137694034Y-53430535D01*
X137546553Y-53331990D01*
X137546540Y-53331983D01*
X137382667Y-53264106D01*
X137382658Y-53264103D01*
X137208694Y-53229500D01*
X137208691Y-53229500D01*
X137031309Y-53229500D01*
X137031306Y-53229500D01*
X136857341Y-53264103D01*
X136857332Y-53264106D01*
X136693459Y-53331983D01*
X136693446Y-53331990D01*
X136545965Y-53430535D01*
X136545961Y-53430538D01*
X136528319Y-53448181D01*
X136466996Y-53481666D01*
X136440638Y-53484500D01*
X134179361Y-53484500D01*
X134112322Y-53464815D01*
X134091679Y-53448180D01*
X134054038Y-53410538D01*
X134054034Y-53410535D01*
X133906553Y-53311990D01*
X133906540Y-53311983D01*
X133742667Y-53244106D01*
X133742658Y-53244103D01*
X133568694Y-53209500D01*
X133568691Y-53209500D01*
X133391309Y-53209500D01*
X133391306Y-53209500D01*
X133217341Y-53244103D01*
X133217332Y-53244106D01*
X133053459Y-53311983D01*
X133053446Y-53311990D01*
X132905965Y-53410535D01*
X132905961Y-53410538D01*
X132780538Y-53535961D01*
X132780535Y-53535965D01*
X132681990Y-53683446D01*
X132681983Y-53683459D01*
X132614106Y-53847332D01*
X132614103Y-53847341D01*
X132579500Y-54021304D01*
X105566383Y-54021304D01*
X105614035Y-53989464D01*
X105614038Y-53989461D01*
X105675964Y-53927536D01*
X105739461Y-53864038D01*
X105739464Y-53864035D01*
X105838013Y-53716547D01*
X105905894Y-53552666D01*
X105906499Y-53549628D01*
X105930187Y-53430536D01*
X105940500Y-53378691D01*
X105940500Y-53325451D01*
X105960185Y-53258412D01*
X105976814Y-53237775D01*
X107747770Y-51466818D01*
X107809093Y-51433334D01*
X107835451Y-51430500D01*
X108018693Y-51430500D01*
X108018694Y-51430499D01*
X108076682Y-51418964D01*
X108192658Y-51395896D01*
X108192661Y-51395894D01*
X108192666Y-51395894D01*
X108356547Y-51328013D01*
X108504035Y-51229464D01*
X108629464Y-51104035D01*
X108728013Y-50956547D01*
X108795894Y-50792666D01*
X108797112Y-50786547D01*
X108818964Y-50676682D01*
X108830500Y-50618691D01*
X108830500Y-50441309D01*
X108830121Y-50439402D01*
X108830121Y-50439399D01*
X108826522Y-50421304D01*
X117459500Y-50421304D01*
X117459500Y-50598695D01*
X117494103Y-50772658D01*
X117494106Y-50772667D01*
X117561983Y-50936540D01*
X117561990Y-50936553D01*
X117660535Y-51084034D01*
X117660538Y-51084038D01*
X117785961Y-51209461D01*
X117785965Y-51209464D01*
X117933446Y-51308009D01*
X117933459Y-51308016D01*
X118056363Y-51358923D01*
X118097334Y-51375894D01*
X118097336Y-51375894D01*
X118097341Y-51375896D01*
X118271304Y-51410499D01*
X118271307Y-51410500D01*
X118271309Y-51410500D01*
X118448693Y-51410500D01*
X118448694Y-51410499D01*
X118522125Y-51395893D01*
X118622658Y-51375896D01*
X118622661Y-51375894D01*
X118622666Y-51375894D01*
X118786547Y-51308013D01*
X118934035Y-51209464D01*
X118971679Y-51171820D01*
X119033001Y-51138334D01*
X119059361Y-51135500D01*
X121582144Y-51135500D01*
X121649183Y-51155185D01*
X121651035Y-51156398D01*
X121653449Y-51158011D01*
X121653451Y-51158011D01*
X121653453Y-51158013D01*
X121817334Y-51225894D01*
X121817336Y-51225894D01*
X121817341Y-51225896D01*
X121991304Y-51260499D01*
X121991307Y-51260500D01*
X121991309Y-51260500D01*
X122168693Y-51260500D01*
X122168694Y-51260499D01*
X122226682Y-51248964D01*
X122342658Y-51225896D01*
X122342661Y-51225894D01*
X122342666Y-51225894D01*
X122506547Y-51158013D01*
X122654035Y-51059464D01*
X122779464Y-50934035D01*
X122878013Y-50786547D01*
X122945894Y-50622666D01*
X122946685Y-50618693D01*
X122980499Y-50448695D01*
X122980500Y-50448693D01*
X122980500Y-50271306D01*
X122980499Y-50271304D01*
X122945896Y-50097341D01*
X122945893Y-50097332D01*
X122878016Y-49933459D01*
X122878009Y-49933446D01*
X122779464Y-49785965D01*
X122779461Y-49785961D01*
X122654038Y-49660538D01*
X122654034Y-49660535D01*
X122587549Y-49616111D01*
X122506552Y-49561990D01*
X122506540Y-49561983D01*
X122428902Y-49529825D01*
X126413991Y-49529825D01*
X126414017Y-49530238D01*
X126877226Y-49938224D01*
X126878867Y-49939696D01*
X126879741Y-49940494D01*
X126880010Y-49940592D01*
X126880209Y-49940498D01*
X126880212Y-49940498D01*
X126880213Y-49940495D01*
X126880234Y-49940486D01*
X126880238Y-49940486D01*
X126880240Y-49940483D01*
X126880694Y-49940269D01*
X126883749Y-49936893D01*
X126884664Y-49935961D01*
X127979817Y-48820144D01*
X127980462Y-48819494D01*
X127980466Y-48819484D01*
X127980462Y-48818715D01*
X127985268Y-43796504D01*
X130510000Y-43796504D01*
X130510000Y-44195000D01*
X131210000Y-44195000D01*
X131210000Y-44695000D01*
X130510000Y-44695000D01*
X130510000Y-45093495D01*
X130548427Y-45286681D01*
X130548430Y-45286693D01*
X130623807Y-45468671D01*
X130623814Y-45468684D01*
X130733248Y-45632462D01*
X130733251Y-45632466D01*
X130872533Y-45771748D01*
X130872537Y-45771751D01*
X131036315Y-45881185D01*
X131036328Y-45881192D01*
X131218308Y-45956569D01*
X131260000Y-45964862D01*
X131260000Y-45161988D01*
X131269940Y-45179205D01*
X131325795Y-45235060D01*
X131394204Y-45274556D01*
X131470504Y-45295000D01*
X131549496Y-45295000D01*
X131625796Y-45274556D01*
X131694205Y-45235060D01*
X131750060Y-45179205D01*
X131760000Y-45161988D01*
X131760000Y-45964862D01*
X131801690Y-45956569D01*
X131801692Y-45956569D01*
X131983671Y-45881192D01*
X131983684Y-45881185D01*
X132147462Y-45771751D01*
X132147466Y-45771748D01*
X132286748Y-45632466D01*
X132286751Y-45632462D01*
X132396185Y-45468684D01*
X132396192Y-45468671D01*
X132471569Y-45286693D01*
X132471572Y-45286681D01*
X132509999Y-45093495D01*
X132510000Y-45093492D01*
X132510000Y-44695000D01*
X131810000Y-44695000D01*
X131810000Y-44195000D01*
X132348216Y-44195000D01*
X132415255Y-44214685D01*
X132455602Y-44256999D01*
X132479485Y-44298365D01*
X132586635Y-44405515D01*
X132717865Y-44481281D01*
X132864234Y-44520500D01*
X132864236Y-44520500D01*
X133015764Y-44520500D01*
X133015766Y-44520500D01*
X133162135Y-44481281D01*
X133293365Y-44405515D01*
X133400515Y-44298365D01*
X133476281Y-44167135D01*
X133515500Y-44020766D01*
X133515500Y-43869234D01*
X138144500Y-43869234D01*
X138144500Y-44020765D01*
X138183719Y-44167136D01*
X138211172Y-44214685D01*
X138259485Y-44298365D01*
X138366635Y-44405515D01*
X138497865Y-44481281D01*
X138644234Y-44520500D01*
X138644236Y-44520500D01*
X138795763Y-44520500D01*
X138795766Y-44520500D01*
X138942135Y-44481281D01*
X139073365Y-44405515D01*
X139180515Y-44298365D01*
X139204397Y-44256999D01*
X139254964Y-44208784D01*
X139311784Y-44195000D01*
X139850000Y-44195000D01*
X139850000Y-44695000D01*
X139150000Y-44695000D01*
X139150000Y-45093495D01*
X139188427Y-45286681D01*
X139188430Y-45286693D01*
X139263807Y-45468671D01*
X139263814Y-45468684D01*
X139373248Y-45632462D01*
X139373251Y-45632466D01*
X139512533Y-45771748D01*
X139512537Y-45771751D01*
X139676315Y-45881185D01*
X139676328Y-45881192D01*
X139858308Y-45956569D01*
X139900000Y-45964862D01*
X139900000Y-45161988D01*
X139909940Y-45179205D01*
X139965795Y-45235060D01*
X140034204Y-45274556D01*
X140110504Y-45295000D01*
X140189496Y-45295000D01*
X140265796Y-45274556D01*
X140334205Y-45235060D01*
X140390060Y-45179205D01*
X140400000Y-45161988D01*
X140400000Y-45964862D01*
X140441690Y-45956569D01*
X140441692Y-45956569D01*
X140623671Y-45881192D01*
X140623684Y-45881185D01*
X140787462Y-45771751D01*
X140787466Y-45771748D01*
X140926748Y-45632466D01*
X140926751Y-45632462D01*
X141036185Y-45468684D01*
X141036192Y-45468671D01*
X141111569Y-45286693D01*
X141111572Y-45286681D01*
X141149999Y-45093495D01*
X141150000Y-45093492D01*
X141150000Y-44695000D01*
X140450000Y-44695000D01*
X140450000Y-44195000D01*
X141150000Y-44195000D01*
X141150000Y-43796508D01*
X141149999Y-43796504D01*
X141111572Y-43603318D01*
X141111569Y-43603306D01*
X141036192Y-43421328D01*
X141036185Y-43421315D01*
X140926751Y-43257537D01*
X140926748Y-43257533D01*
X140787466Y-43118251D01*
X140787462Y-43118248D01*
X140623684Y-43008814D01*
X140623671Y-43008807D01*
X140441691Y-42933429D01*
X140441683Y-42933427D01*
X140400000Y-42925135D01*
X140400000Y-43728011D01*
X140390060Y-43710795D01*
X140334205Y-43654940D01*
X140265796Y-43615444D01*
X140189496Y-43595000D01*
X140110504Y-43595000D01*
X140034204Y-43615444D01*
X139965795Y-43654940D01*
X139909940Y-43710795D01*
X139900000Y-43728011D01*
X139900000Y-42925136D01*
X139899999Y-42925135D01*
X139858316Y-42933427D01*
X139858308Y-42933429D01*
X139676328Y-43008807D01*
X139676315Y-43008814D01*
X139512537Y-43118248D01*
X139512533Y-43118251D01*
X139373251Y-43257533D01*
X139373248Y-43257537D01*
X139263814Y-43421315D01*
X139263809Y-43421324D01*
X139259866Y-43430845D01*
X139216023Y-43485247D01*
X139149728Y-43507310D01*
X139082030Y-43490029D01*
X139076597Y-43486351D01*
X138942136Y-43408719D01*
X138868950Y-43389109D01*
X138795766Y-43369500D01*
X138644234Y-43369500D01*
X138497863Y-43408719D01*
X138366635Y-43484485D01*
X138366632Y-43484487D01*
X138259487Y-43591632D01*
X138259485Y-43591635D01*
X138183719Y-43722863D01*
X138144500Y-43869234D01*
X133515500Y-43869234D01*
X133476281Y-43722865D01*
X133400515Y-43591635D01*
X133293365Y-43484485D01*
X133223406Y-43444094D01*
X133162136Y-43408719D01*
X133088950Y-43389109D01*
X133015766Y-43369500D01*
X132864234Y-43369500D01*
X132717863Y-43408719D01*
X132636982Y-43455417D01*
X132586635Y-43484485D01*
X132586633Y-43484486D01*
X132579597Y-43488549D01*
X132578327Y-43486349D01*
X132524995Y-43506960D01*
X132456552Y-43492914D01*
X132406568Y-43444094D01*
X132400131Y-43430838D01*
X132396192Y-43421328D01*
X132396185Y-43421315D01*
X132286751Y-43257537D01*
X132286748Y-43257533D01*
X132147466Y-43118251D01*
X132147462Y-43118248D01*
X131983684Y-43008814D01*
X131983671Y-43008807D01*
X131801691Y-42933429D01*
X131801683Y-42933427D01*
X131760000Y-42925135D01*
X131760000Y-43728011D01*
X131750060Y-43710795D01*
X131694205Y-43654940D01*
X131625796Y-43615444D01*
X131549496Y-43595000D01*
X131470504Y-43595000D01*
X131394204Y-43615444D01*
X131325795Y-43654940D01*
X131269940Y-43710795D01*
X131260000Y-43728011D01*
X131260000Y-42925136D01*
X131259999Y-42925135D01*
X131218316Y-42933427D01*
X131218308Y-42933429D01*
X131036328Y-43008807D01*
X131036315Y-43008814D01*
X130872537Y-43118248D01*
X130872533Y-43118251D01*
X130733251Y-43257533D01*
X130733248Y-43257537D01*
X130623814Y-43421315D01*
X130623807Y-43421328D01*
X130548430Y-43603306D01*
X130548427Y-43603318D01*
X130510000Y-43796504D01*
X127985268Y-43796504D01*
X127987225Y-41751491D01*
X148099500Y-41751491D01*
X148099500Y-42088508D01*
X148137231Y-42423381D01*
X148137233Y-42423397D01*
X148212223Y-42751953D01*
X148212227Y-42751965D01*
X148323532Y-43070054D01*
X148469752Y-43373683D01*
X148469754Y-43373686D01*
X148649054Y-43659039D01*
X148758682Y-43796508D01*
X148816678Y-43869234D01*
X148859175Y-43922523D01*
X149097477Y-44160825D01*
X149360961Y-44370946D01*
X149646314Y-44550246D01*
X149949949Y-44696469D01*
X150188848Y-44780063D01*
X150268034Y-44807772D01*
X150268046Y-44807776D01*
X150596606Y-44882767D01*
X150931492Y-44920499D01*
X150931493Y-44920500D01*
X150931496Y-44920500D01*
X151268507Y-44920500D01*
X151268507Y-44920499D01*
X151603394Y-44882767D01*
X151931954Y-44807776D01*
X152250051Y-44696469D01*
X152553686Y-44550246D01*
X152839039Y-44370946D01*
X153102523Y-44160825D01*
X153340825Y-43922523D01*
X153550946Y-43659039D01*
X153730246Y-43373686D01*
X153876469Y-43070051D01*
X153987776Y-42751954D01*
X154062767Y-42423394D01*
X154100500Y-42088504D01*
X154100500Y-41751496D01*
X154062767Y-41416606D01*
X153987776Y-41088046D01*
X153876469Y-40769949D01*
X153730246Y-40466314D01*
X153550946Y-40180961D01*
X153340825Y-39917477D01*
X153102523Y-39679175D01*
X152839039Y-39469054D01*
X152553686Y-39289754D01*
X152553683Y-39289752D01*
X152250054Y-39143532D01*
X151931965Y-39032227D01*
X151931953Y-39032223D01*
X151603397Y-38957233D01*
X151603381Y-38957231D01*
X151268508Y-38919500D01*
X151268504Y-38919500D01*
X150931496Y-38919500D01*
X150931491Y-38919500D01*
X150596618Y-38957231D01*
X150596602Y-38957233D01*
X150268046Y-39032223D01*
X150268034Y-39032227D01*
X149949945Y-39143532D01*
X149646316Y-39289752D01*
X149360962Y-39469053D01*
X149097477Y-39679174D01*
X148859174Y-39917477D01*
X148649053Y-40180962D01*
X148469752Y-40466316D01*
X148323532Y-40769945D01*
X148212227Y-41088034D01*
X148212223Y-41088046D01*
X148137233Y-41416602D01*
X148137231Y-41416618D01*
X148099500Y-41751491D01*
X127987225Y-41751491D01*
X127989125Y-39766504D01*
X130510000Y-39766504D01*
X130510000Y-40015000D01*
X131210000Y-40015000D01*
X131210000Y-40515000D01*
X130510000Y-40515000D01*
X130510000Y-40763495D01*
X130548427Y-40956681D01*
X130548430Y-40956693D01*
X130623807Y-41138671D01*
X130623814Y-41138684D01*
X130733248Y-41302462D01*
X130733251Y-41302466D01*
X130872533Y-41441748D01*
X130872537Y-41441751D01*
X131036315Y-41551185D01*
X131036328Y-41551192D01*
X131218308Y-41626569D01*
X131260000Y-41634862D01*
X131260000Y-40831988D01*
X131269940Y-40849205D01*
X131325795Y-40905060D01*
X131394204Y-40944556D01*
X131470504Y-40965000D01*
X131549496Y-40965000D01*
X131625796Y-40944556D01*
X131694205Y-40905060D01*
X131750060Y-40849205D01*
X131760000Y-40831988D01*
X131760000Y-41634862D01*
X131801690Y-41626569D01*
X131801692Y-41626569D01*
X131983671Y-41551192D01*
X131983684Y-41551185D01*
X132147462Y-41441751D01*
X132147466Y-41441748D01*
X132286748Y-41302466D01*
X132286751Y-41302462D01*
X132396185Y-41138684D01*
X132396192Y-41138671D01*
X132471569Y-40956693D01*
X132471572Y-40956681D01*
X132509999Y-40763495D01*
X132510000Y-40763492D01*
X132510000Y-40515000D01*
X131810000Y-40515000D01*
X131810000Y-40015000D01*
X132510000Y-40015000D01*
X132510000Y-39766508D01*
X132509999Y-39766504D01*
X139150000Y-39766504D01*
X139150000Y-40015000D01*
X139850000Y-40015000D01*
X139850000Y-40515000D01*
X139150000Y-40515000D01*
X139150000Y-40763495D01*
X139188427Y-40956681D01*
X139188430Y-40956693D01*
X139263807Y-41138671D01*
X139263814Y-41138684D01*
X139373248Y-41302462D01*
X139373251Y-41302466D01*
X139512533Y-41441748D01*
X139512537Y-41441751D01*
X139676315Y-41551185D01*
X139676328Y-41551192D01*
X139858308Y-41626569D01*
X139900000Y-41634862D01*
X139900000Y-40831988D01*
X139909940Y-40849205D01*
X139965795Y-40905060D01*
X140034204Y-40944556D01*
X140110504Y-40965000D01*
X140189496Y-40965000D01*
X140265796Y-40944556D01*
X140334205Y-40905060D01*
X140390060Y-40849205D01*
X140400000Y-40831988D01*
X140400000Y-41634862D01*
X140441690Y-41626569D01*
X140441692Y-41626569D01*
X140623671Y-41551192D01*
X140623684Y-41551185D01*
X140787462Y-41441751D01*
X140787466Y-41441748D01*
X140926748Y-41302466D01*
X140926751Y-41302462D01*
X141036185Y-41138684D01*
X141036192Y-41138671D01*
X141111569Y-40956693D01*
X141111572Y-40956681D01*
X141149999Y-40763495D01*
X141150000Y-40763492D01*
X141150000Y-40515000D01*
X140450000Y-40515000D01*
X140450000Y-40015000D01*
X141150000Y-40015000D01*
X141150000Y-39766508D01*
X141149999Y-39766504D01*
X141111572Y-39573318D01*
X141111569Y-39573306D01*
X141036192Y-39391328D01*
X141036185Y-39391315D01*
X140926751Y-39227537D01*
X140926748Y-39227533D01*
X140787466Y-39088251D01*
X140787462Y-39088248D01*
X140623684Y-38978814D01*
X140623671Y-38978807D01*
X140441691Y-38903429D01*
X140441683Y-38903427D01*
X140400000Y-38895135D01*
X140400000Y-39698011D01*
X140390060Y-39680795D01*
X140334205Y-39624940D01*
X140265796Y-39585444D01*
X140189496Y-39565000D01*
X140110504Y-39565000D01*
X140034204Y-39585444D01*
X139965795Y-39624940D01*
X139909940Y-39680795D01*
X139900000Y-39698011D01*
X139900000Y-38895136D01*
X139899999Y-38895135D01*
X139858316Y-38903427D01*
X139858308Y-38903429D01*
X139676328Y-38978807D01*
X139676315Y-38978814D01*
X139512537Y-39088248D01*
X139512533Y-39088251D01*
X139373251Y-39227533D01*
X139373248Y-39227537D01*
X139263814Y-39391315D01*
X139263807Y-39391328D01*
X139188430Y-39573306D01*
X139188427Y-39573318D01*
X139150000Y-39766504D01*
X132509999Y-39766504D01*
X132471572Y-39573318D01*
X132471569Y-39573306D01*
X132396192Y-39391328D01*
X132396185Y-39391315D01*
X132286751Y-39227537D01*
X132286748Y-39227533D01*
X132147466Y-39088251D01*
X132147462Y-39088248D01*
X131983684Y-38978814D01*
X131983671Y-38978807D01*
X131801691Y-38903429D01*
X131801683Y-38903427D01*
X131760000Y-38895135D01*
X131760000Y-39698011D01*
X131750060Y-39680795D01*
X131694205Y-39624940D01*
X131625796Y-39585444D01*
X131549496Y-39565000D01*
X131470504Y-39565000D01*
X131394204Y-39585444D01*
X131325795Y-39624940D01*
X131269940Y-39680795D01*
X131260000Y-39698011D01*
X131260000Y-38895136D01*
X131259999Y-38895135D01*
X131218316Y-38903427D01*
X131218308Y-38903429D01*
X131036328Y-38978807D01*
X131036315Y-38978814D01*
X130872537Y-39088248D01*
X130872533Y-39088251D01*
X130733251Y-39227533D01*
X130733248Y-39227537D01*
X130623814Y-39391315D01*
X130623807Y-39391328D01*
X130548430Y-39573306D01*
X130548427Y-39573318D01*
X130510000Y-39766504D01*
X127989125Y-39766504D01*
X127990500Y-38329793D01*
X127990499Y-38329792D01*
X127990208Y-38329500D01*
X127990207Y-38329500D01*
X127359218Y-38329500D01*
X127358800Y-38329499D01*
X127358506Y-38329792D01*
X127339594Y-48548956D01*
X127319785Y-48615959D01*
X127303747Y-48635934D01*
X127221504Y-48719070D01*
X127221245Y-48719331D01*
X126440274Y-49504101D01*
X126440269Y-49504107D01*
X126414856Y-49529645D01*
X126414678Y-49529488D01*
X126414265Y-49529514D01*
X126413991Y-49529825D01*
X122428902Y-49529825D01*
X122342667Y-49494106D01*
X122342658Y-49494103D01*
X122168694Y-49459500D01*
X122168691Y-49459500D01*
X121991309Y-49459500D01*
X121991306Y-49459500D01*
X121817341Y-49494103D01*
X121817332Y-49494106D01*
X121653459Y-49561983D01*
X121653446Y-49561990D01*
X121505965Y-49660535D01*
X121505961Y-49660538D01*
X121380538Y-49785961D01*
X121380535Y-49785965D01*
X121351519Y-49829391D01*
X121297906Y-49874196D01*
X121248417Y-49884500D01*
X119059361Y-49884500D01*
X118992322Y-49864815D01*
X118971679Y-49848180D01*
X118934038Y-49810538D01*
X118934034Y-49810535D01*
X118786553Y-49711990D01*
X118786540Y-49711983D01*
X118622667Y-49644106D01*
X118622658Y-49644103D01*
X118448694Y-49609500D01*
X118448691Y-49609500D01*
X118271309Y-49609500D01*
X118271306Y-49609500D01*
X118097341Y-49644103D01*
X118097332Y-49644106D01*
X117933459Y-49711983D01*
X117933446Y-49711990D01*
X117785965Y-49810535D01*
X117785961Y-49810538D01*
X117660538Y-49935961D01*
X117660535Y-49935965D01*
X117561990Y-50083446D01*
X117561983Y-50083459D01*
X117494106Y-50247332D01*
X117494103Y-50247341D01*
X117459500Y-50421304D01*
X108826522Y-50421304D01*
X108795895Y-50267340D01*
X108795895Y-50267339D01*
X108795894Y-50267334D01*
X108778923Y-50226363D01*
X108728016Y-50103459D01*
X108728009Y-50103446D01*
X108629464Y-49955965D01*
X108629461Y-49955961D01*
X108504038Y-49830538D01*
X108504034Y-49830535D01*
X108356553Y-49731990D01*
X108356540Y-49731983D01*
X108192667Y-49664106D01*
X108192658Y-49664103D01*
X108018694Y-49629500D01*
X108018691Y-49629500D01*
X107841309Y-49629500D01*
X107841306Y-49629500D01*
X107667341Y-49664103D01*
X107667332Y-49664106D01*
X107503459Y-49731983D01*
X107503446Y-49731990D01*
X107355965Y-49830535D01*
X107355961Y-49830538D01*
X107230538Y-49955961D01*
X107230535Y-49955965D01*
X107131990Y-50103446D01*
X107131983Y-50103459D01*
X107064107Y-50267329D01*
X107064104Y-50267339D01*
X107043144Y-50372710D01*
X107010758Y-50434621D01*
X107009208Y-50436199D01*
X105092229Y-52353181D01*
X105030906Y-52386666D01*
X105004548Y-52389500D01*
X104951306Y-52389500D01*
X104777341Y-52424103D01*
X104777332Y-52424106D01*
X104613459Y-52491983D01*
X104613446Y-52491990D01*
X104465965Y-52590535D01*
X104465961Y-52590538D01*
X104340538Y-52715961D01*
X104340535Y-52715965D01*
X104241990Y-52863446D01*
X104241983Y-52863459D01*
X104174106Y-53027332D01*
X104174103Y-53027341D01*
X104139500Y-53201304D01*
X84465917Y-53201304D01*
X84402335Y-53153706D01*
X84402328Y-53153702D01*
X84267482Y-53103408D01*
X84267483Y-53103408D01*
X84207883Y-53097001D01*
X84207881Y-53097000D01*
X84207873Y-53097000D01*
X84207864Y-53097000D01*
X82112129Y-53097000D01*
X82112123Y-53097001D01*
X82052516Y-53103408D01*
X81917671Y-53153702D01*
X81917664Y-53153706D01*
X81802455Y-53239952D01*
X81802452Y-53239955D01*
X81716206Y-53355164D01*
X81716202Y-53355171D01*
X81665908Y-53490017D01*
X81660969Y-53535961D01*
X81659501Y-53549623D01*
X81659500Y-53549635D01*
X81180837Y-53549635D01*
X81210500Y-53362352D01*
X81210500Y-53157648D01*
X81189860Y-53027332D01*
X81178477Y-52955465D01*
X81115218Y-52760776D01*
X81081503Y-52694607D01*
X81022287Y-52578390D01*
X81014556Y-52567749D01*
X80901971Y-52412786D01*
X80757213Y-52268028D01*
X80591613Y-52147715D01*
X80591612Y-52147714D01*
X80591610Y-52147713D01*
X80534653Y-52118691D01*
X80409223Y-52054781D01*
X80214534Y-51991522D01*
X80039995Y-51963878D01*
X80012352Y-51959500D01*
X79807648Y-51959500D01*
X79783329Y-51963351D01*
X79605465Y-51991522D01*
X79410776Y-52054781D01*
X79228386Y-52147715D01*
X79062786Y-52268028D01*
X78918028Y-52412786D01*
X78797715Y-52578386D01*
X78704781Y-52760776D01*
X78641522Y-52955465D01*
X78609500Y-53157648D01*
X74908386Y-53157648D01*
X74819910Y-53112567D01*
X74610335Y-53044473D01*
X74392681Y-53010000D01*
X73632500Y-53010000D01*
X73632500Y-53861517D01*
X73614091Y-53850889D01*
X73461491Y-53810000D01*
X73303509Y-53810000D01*
X73150909Y-53850889D01*
X73132500Y-53861517D01*
X73132500Y-53010000D01*
X72372319Y-53010000D01*
X72154664Y-53044473D01*
X71945089Y-53112567D01*
X71748739Y-53212613D01*
X71570458Y-53342142D01*
X71414642Y-53497958D01*
X71285113Y-53676239D01*
X71185067Y-53872589D01*
X71116973Y-54082161D01*
X71116973Y-54082164D01*
X71104645Y-54160000D01*
X64920500Y-54160000D01*
X64920500Y-48629983D01*
X71082000Y-48629983D01*
X71082000Y-50030001D01*
X71082001Y-50030018D01*
X71092500Y-50132796D01*
X71092501Y-50132799D01*
X71137082Y-50267334D01*
X71147686Y-50299334D01*
X71239788Y-50448656D01*
X71363844Y-50572712D01*
X71513166Y-50664814D01*
X71679703Y-50719999D01*
X71782491Y-50730500D01*
X74982508Y-50730499D01*
X75085297Y-50719999D01*
X75251834Y-50664814D01*
X75401156Y-50572712D01*
X75525212Y-50448656D01*
X75617314Y-50299334D01*
X75672499Y-50132797D01*
X75683000Y-50030009D01*
X75682999Y-48629992D01*
X75672499Y-48527203D01*
X75617314Y-48360666D01*
X75525212Y-48211344D01*
X75401156Y-48087288D01*
X75251834Y-47995186D01*
X75085297Y-47940001D01*
X75085295Y-47940000D01*
X74982510Y-47929500D01*
X71782498Y-47929500D01*
X71782481Y-47929501D01*
X71679703Y-47940000D01*
X71679700Y-47940001D01*
X71513168Y-47995185D01*
X71513163Y-47995187D01*
X71363842Y-48087289D01*
X71239789Y-48211342D01*
X71147687Y-48360663D01*
X71147686Y-48360666D01*
X71092501Y-48527203D01*
X71092501Y-48527204D01*
X71092500Y-48527204D01*
X71082000Y-48629983D01*
X64920500Y-48629983D01*
X64920500Y-45222278D01*
X95404500Y-45222278D01*
X95404500Y-47242721D01*
X95438985Y-47460452D01*
X95507103Y-47670103D01*
X95507104Y-47670106D01*
X95607187Y-47866525D01*
X95736752Y-48044858D01*
X95736756Y-48044863D01*
X95892636Y-48200743D01*
X95892641Y-48200747D01*
X95907227Y-48211344D01*
X96070978Y-48330315D01*
X96199375Y-48395737D01*
X96267393Y-48430395D01*
X96267396Y-48430396D01*
X96372221Y-48464455D01*
X96477049Y-48498515D01*
X96694778Y-48533000D01*
X96694779Y-48533000D01*
X96915221Y-48533000D01*
X96915222Y-48533000D01*
X97132951Y-48498515D01*
X97342606Y-48430395D01*
X97539022Y-48330315D01*
X97717365Y-48200742D01*
X97873242Y-48044865D01*
X98002815Y-47866522D01*
X98102895Y-47670106D01*
X98171015Y-47460451D01*
X98205500Y-47242722D01*
X98205500Y-45222278D01*
X100484500Y-45222278D01*
X100484500Y-47242721D01*
X100518985Y-47460452D01*
X100587103Y-47670103D01*
X100587104Y-47670106D01*
X100687187Y-47866525D01*
X100816752Y-48044858D01*
X100816756Y-48044863D01*
X100972636Y-48200743D01*
X100972641Y-48200747D01*
X100987227Y-48211344D01*
X101150978Y-48330315D01*
X101279375Y-48395737D01*
X101347393Y-48430395D01*
X101347396Y-48430396D01*
X101452221Y-48464455D01*
X101557049Y-48498515D01*
X101774778Y-48533000D01*
X101774779Y-48533000D01*
X101995221Y-48533000D01*
X101995222Y-48533000D01*
X102212951Y-48498515D01*
X102422606Y-48430395D01*
X102619022Y-48330315D01*
X102797365Y-48200742D01*
X102953242Y-48044865D01*
X103082815Y-47866522D01*
X103182895Y-47670106D01*
X103251015Y-47460451D01*
X103285500Y-47242722D01*
X103285500Y-45222278D01*
X103251015Y-45004549D01*
X103187081Y-44807776D01*
X103182896Y-44794896D01*
X103182893Y-44794889D01*
X103127237Y-44685660D01*
X103127236Y-44685659D01*
X103100157Y-44632513D01*
X105565000Y-44632513D01*
X105565000Y-45982500D01*
X106416518Y-45982500D01*
X106405889Y-46000909D01*
X106365000Y-46153509D01*
X106365000Y-46311491D01*
X106405889Y-46464091D01*
X106416518Y-46482500D01*
X105565001Y-46482500D01*
X105565001Y-47832486D01*
X105575494Y-47935197D01*
X105630641Y-48101619D01*
X105630643Y-48101624D01*
X105722684Y-48250845D01*
X105846654Y-48374815D01*
X105995875Y-48466856D01*
X105995880Y-48466858D01*
X106162302Y-48522005D01*
X106162309Y-48522006D01*
X106265019Y-48532499D01*
X106714999Y-48532499D01*
X106715000Y-48532498D01*
X106715000Y-46780982D01*
X106733409Y-46791611D01*
X106886009Y-46832500D01*
X107043991Y-46832500D01*
X107196591Y-46791611D01*
X107215000Y-46780982D01*
X107215000Y-48532499D01*
X107664972Y-48532499D01*
X107664986Y-48532498D01*
X107767697Y-48522005D01*
X107934119Y-48466858D01*
X107934124Y-48466856D01*
X108083345Y-48374815D01*
X108207315Y-48250845D01*
X108299356Y-48101624D01*
X108299358Y-48101619D01*
X108354505Y-47935197D01*
X108354506Y-47935190D01*
X108364999Y-47832486D01*
X108365000Y-47832473D01*
X108365000Y-46482500D01*
X107513482Y-46482500D01*
X107524111Y-46464091D01*
X107565000Y-46311491D01*
X107565000Y-46153509D01*
X107524111Y-46000909D01*
X107513482Y-45982500D01*
X108364999Y-45982500D01*
X108364999Y-45222278D01*
X111894500Y-45222278D01*
X111894500Y-47242721D01*
X111928985Y-47460452D01*
X111997103Y-47670103D01*
X111997104Y-47670106D01*
X112097187Y-47866525D01*
X112226752Y-48044858D01*
X112226756Y-48044863D01*
X112382636Y-48200743D01*
X112382641Y-48200747D01*
X112397227Y-48211344D01*
X112560978Y-48330315D01*
X112689375Y-48395737D01*
X112757393Y-48430395D01*
X112757396Y-48430396D01*
X112862221Y-48464455D01*
X112967049Y-48498515D01*
X113184778Y-48533000D01*
X113184779Y-48533000D01*
X113405221Y-48533000D01*
X113405222Y-48533000D01*
X113622951Y-48498515D01*
X113832606Y-48430395D01*
X114029022Y-48330315D01*
X114207365Y-48200742D01*
X114363242Y-48044865D01*
X114492815Y-47866522D01*
X114592895Y-47670106D01*
X114661015Y-47460451D01*
X114695500Y-47242722D01*
X114695500Y-45222278D01*
X116974500Y-45222278D01*
X116974500Y-47242721D01*
X117008985Y-47460452D01*
X117077103Y-47670103D01*
X117077104Y-47670106D01*
X117177187Y-47866525D01*
X117306752Y-48044858D01*
X117306756Y-48044863D01*
X117462636Y-48200743D01*
X117462641Y-48200747D01*
X117477227Y-48211344D01*
X117640978Y-48330315D01*
X117769375Y-48395737D01*
X117837393Y-48430395D01*
X117837396Y-48430396D01*
X117942221Y-48464455D01*
X118047049Y-48498515D01*
X118264778Y-48533000D01*
X118264779Y-48533000D01*
X118485221Y-48533000D01*
X118485222Y-48533000D01*
X118702951Y-48498515D01*
X118912606Y-48430395D01*
X119109022Y-48330315D01*
X119287365Y-48200742D01*
X119443242Y-48044865D01*
X119572815Y-47866522D01*
X119672895Y-47670106D01*
X119741015Y-47460451D01*
X119775500Y-47242722D01*
X119775500Y-45222278D01*
X119741015Y-45004549D01*
X119677081Y-44807776D01*
X119672896Y-44794896D01*
X119672893Y-44794889D01*
X119617237Y-44685660D01*
X119617236Y-44685659D01*
X119590157Y-44632513D01*
X122055000Y-44632513D01*
X122055000Y-45982500D01*
X122906518Y-45982500D01*
X122895889Y-46000909D01*
X122855000Y-46153509D01*
X122855000Y-46311491D01*
X122895889Y-46464091D01*
X122906518Y-46482500D01*
X122055001Y-46482500D01*
X122055001Y-47832486D01*
X122065494Y-47935197D01*
X122120641Y-48101619D01*
X122120643Y-48101624D01*
X122212684Y-48250845D01*
X122336654Y-48374815D01*
X122485875Y-48466856D01*
X122485880Y-48466858D01*
X122652302Y-48522005D01*
X122652309Y-48522006D01*
X122755019Y-48532499D01*
X123204999Y-48532499D01*
X123205000Y-48532498D01*
X123205000Y-46780982D01*
X123223409Y-46791611D01*
X123376009Y-46832500D01*
X123533991Y-46832500D01*
X123686591Y-46791611D01*
X123705000Y-46780982D01*
X123705000Y-48532499D01*
X124154972Y-48532499D01*
X124154986Y-48532498D01*
X124257697Y-48522005D01*
X124424119Y-48466858D01*
X124424124Y-48466856D01*
X124573345Y-48374815D01*
X124697315Y-48250845D01*
X124789356Y-48101624D01*
X124789358Y-48101619D01*
X124844505Y-47935197D01*
X124844506Y-47935190D01*
X124854999Y-47832486D01*
X124855000Y-47832473D01*
X124855000Y-46482500D01*
X124003482Y-46482500D01*
X124014111Y-46464091D01*
X124055000Y-46311491D01*
X124055000Y-46153509D01*
X124014111Y-46000909D01*
X124003482Y-45982500D01*
X124854999Y-45982500D01*
X124854999Y-44632528D01*
X124854998Y-44632513D01*
X124844505Y-44529802D01*
X124789358Y-44363380D01*
X124789356Y-44363375D01*
X124697315Y-44214154D01*
X124573345Y-44090184D01*
X124424124Y-43998143D01*
X124424119Y-43998141D01*
X124257697Y-43942994D01*
X124257690Y-43942993D01*
X124154986Y-43932500D01*
X123705000Y-43932500D01*
X123705000Y-45684017D01*
X123686591Y-45673389D01*
X123533991Y-45632500D01*
X123376009Y-45632500D01*
X123223409Y-45673389D01*
X123205000Y-45684017D01*
X123205000Y-43932500D01*
X122755028Y-43932500D01*
X122755012Y-43932501D01*
X122652302Y-43942994D01*
X122485880Y-43998141D01*
X122485875Y-43998143D01*
X122336654Y-44090184D01*
X122212684Y-44214154D01*
X122120643Y-44363375D01*
X122120641Y-44363380D01*
X122065494Y-44529802D01*
X122065493Y-44529809D01*
X122055000Y-44632513D01*
X119590157Y-44632513D01*
X119572815Y-44598478D01*
X119537773Y-44550246D01*
X119443247Y-44420141D01*
X119443243Y-44420136D01*
X119287363Y-44264256D01*
X119287358Y-44264252D01*
X119109025Y-44134687D01*
X119109024Y-44134686D01*
X119109022Y-44134685D01*
X119021685Y-44090184D01*
X118912606Y-44034604D01*
X118912603Y-44034603D01*
X118702952Y-43966485D01*
X118554635Y-43942994D01*
X118485222Y-43932000D01*
X118264778Y-43932000D01*
X118195371Y-43942993D01*
X118047047Y-43966485D01*
X117837396Y-44034603D01*
X117837393Y-44034604D01*
X117640974Y-44134687D01*
X117462641Y-44264252D01*
X117462636Y-44264256D01*
X117306756Y-44420136D01*
X117306752Y-44420141D01*
X117177187Y-44598474D01*
X117077104Y-44794893D01*
X117077103Y-44794896D01*
X117008985Y-45004547D01*
X116974500Y-45222278D01*
X114695500Y-45222278D01*
X114661015Y-45004549D01*
X114597081Y-44807776D01*
X114592896Y-44794896D01*
X114592895Y-44794893D01*
X114537236Y-44685659D01*
X114492815Y-44598478D01*
X114457773Y-44550246D01*
X114363247Y-44420141D01*
X114363243Y-44420136D01*
X114207363Y-44264256D01*
X114207358Y-44264252D01*
X114029025Y-44134687D01*
X114029024Y-44134686D01*
X114029022Y-44134685D01*
X113941685Y-44090184D01*
X113832606Y-44034604D01*
X113832603Y-44034603D01*
X113622952Y-43966485D01*
X113474635Y-43942994D01*
X113405222Y-43932000D01*
X113184778Y-43932000D01*
X113115371Y-43942993D01*
X112967047Y-43966485D01*
X112757396Y-44034603D01*
X112757393Y-44034604D01*
X112560974Y-44134687D01*
X112382641Y-44264252D01*
X112382636Y-44264256D01*
X112226756Y-44420136D01*
X112226752Y-44420141D01*
X112097187Y-44598474D01*
X111997104Y-44794893D01*
X111997103Y-44794896D01*
X111928985Y-45004547D01*
X111894500Y-45222278D01*
X108364999Y-45222278D01*
X108364999Y-44632528D01*
X108364998Y-44632513D01*
X108354505Y-44529802D01*
X108299358Y-44363380D01*
X108299356Y-44363375D01*
X108207315Y-44214154D01*
X108083345Y-44090184D01*
X107934124Y-43998143D01*
X107934119Y-43998141D01*
X107767697Y-43942994D01*
X107767690Y-43942993D01*
X107664986Y-43932500D01*
X107215000Y-43932500D01*
X107215000Y-45684017D01*
X107196591Y-45673389D01*
X107043991Y-45632500D01*
X106886009Y-45632500D01*
X106733409Y-45673389D01*
X106715000Y-45684017D01*
X106715000Y-43932500D01*
X106265028Y-43932500D01*
X106265012Y-43932501D01*
X106162302Y-43942994D01*
X105995880Y-43998141D01*
X105995875Y-43998143D01*
X105846654Y-44090184D01*
X105722684Y-44214154D01*
X105630643Y-44363375D01*
X105630641Y-44363380D01*
X105575494Y-44529802D01*
X105575493Y-44529809D01*
X105565000Y-44632513D01*
X103100157Y-44632513D01*
X103082815Y-44598478D01*
X103047773Y-44550246D01*
X102953247Y-44420141D01*
X102953243Y-44420136D01*
X102797363Y-44264256D01*
X102797358Y-44264252D01*
X102619025Y-44134687D01*
X102619024Y-44134686D01*
X102619022Y-44134685D01*
X102531685Y-44090184D01*
X102422606Y-44034604D01*
X102422603Y-44034603D01*
X102212952Y-43966485D01*
X102064635Y-43942994D01*
X101995222Y-43932000D01*
X101774778Y-43932000D01*
X101705371Y-43942993D01*
X101557047Y-43966485D01*
X101347396Y-44034603D01*
X101347393Y-44034604D01*
X101150974Y-44134687D01*
X100972641Y-44264252D01*
X100972636Y-44264256D01*
X100816756Y-44420136D01*
X100816752Y-44420141D01*
X100687187Y-44598474D01*
X100587104Y-44794893D01*
X100587103Y-44794896D01*
X100518985Y-45004547D01*
X100484500Y-45222278D01*
X98205500Y-45222278D01*
X98171015Y-45004549D01*
X98107081Y-44807776D01*
X98102896Y-44794896D01*
X98102895Y-44794893D01*
X98047236Y-44685659D01*
X98002815Y-44598478D01*
X97967773Y-44550246D01*
X97873247Y-44420141D01*
X97873243Y-44420136D01*
X97717363Y-44264256D01*
X97717358Y-44264252D01*
X97539025Y-44134687D01*
X97539024Y-44134686D01*
X97539022Y-44134685D01*
X97451685Y-44090184D01*
X97342606Y-44034604D01*
X97342603Y-44034603D01*
X97132952Y-43966485D01*
X96984635Y-43942994D01*
X96915222Y-43932000D01*
X96694778Y-43932000D01*
X96625371Y-43942993D01*
X96477047Y-43966485D01*
X96267396Y-44034603D01*
X96267393Y-44034604D01*
X96070974Y-44134687D01*
X95892641Y-44264252D01*
X95892636Y-44264256D01*
X95736756Y-44420136D01*
X95736752Y-44420141D01*
X95607187Y-44598474D01*
X95507104Y-44794893D01*
X95507103Y-44794896D01*
X95438985Y-45004547D01*
X95404500Y-45222278D01*
X64920500Y-45222278D01*
X64920500Y-41751491D01*
X66219500Y-41751491D01*
X66219500Y-42088508D01*
X66257231Y-42423381D01*
X66257233Y-42423397D01*
X66332223Y-42751953D01*
X66332227Y-42751965D01*
X66443532Y-43070054D01*
X66589752Y-43373683D01*
X66589754Y-43373686D01*
X66769054Y-43659039D01*
X66878682Y-43796508D01*
X66936678Y-43869234D01*
X66979175Y-43922523D01*
X67217477Y-44160825D01*
X67480961Y-44370946D01*
X67766314Y-44550246D01*
X68069949Y-44696469D01*
X68308848Y-44780063D01*
X68388034Y-44807772D01*
X68388046Y-44807776D01*
X68716606Y-44882767D01*
X69051492Y-44920499D01*
X69051493Y-44920500D01*
X69051496Y-44920500D01*
X69388507Y-44920500D01*
X69388507Y-44920499D01*
X69723394Y-44882767D01*
X70051954Y-44807776D01*
X70370051Y-44696469D01*
X70673686Y-44550246D01*
X70959039Y-44370946D01*
X71222523Y-44160825D01*
X71460825Y-43922523D01*
X71670946Y-43659039D01*
X71850246Y-43373686D01*
X71996469Y-43070051D01*
X72107776Y-42751954D01*
X72182767Y-42423394D01*
X72220500Y-42088504D01*
X72220500Y-41751496D01*
X72215194Y-41704404D01*
X72211621Y-41672690D01*
X72211621Y-41672689D01*
X72210432Y-41662135D01*
X79589500Y-41662135D01*
X79589500Y-43457870D01*
X79589501Y-43457876D01*
X79595908Y-43517483D01*
X79646202Y-43652328D01*
X79646206Y-43652335D01*
X79732452Y-43767544D01*
X79732455Y-43767547D01*
X79847664Y-43853793D01*
X79847671Y-43853797D01*
X79982517Y-43904091D01*
X79982516Y-43904091D01*
X79989444Y-43904835D01*
X80042127Y-43910500D01*
X81837872Y-43910499D01*
X81897483Y-43904091D01*
X82032331Y-43853796D01*
X82147546Y-43767546D01*
X82233796Y-43652331D01*
X82282810Y-43520916D01*
X82324681Y-43464984D01*
X82390145Y-43440566D01*
X82458418Y-43455417D01*
X82486673Y-43476569D01*
X82600213Y-43590109D01*
X82772179Y-43715048D01*
X82772181Y-43715049D01*
X82772184Y-43715051D01*
X82961588Y-43811557D01*
X83163757Y-43877246D01*
X83373713Y-43910500D01*
X83373714Y-43910500D01*
X83586286Y-43910500D01*
X83586287Y-43910500D01*
X83796243Y-43877246D01*
X83998412Y-43811557D01*
X84187816Y-43715051D01*
X84209789Y-43699086D01*
X84359786Y-43590109D01*
X84359788Y-43590106D01*
X84359792Y-43590104D01*
X84510104Y-43439792D01*
X84510106Y-43439788D01*
X84510109Y-43439786D01*
X84635048Y-43267820D01*
X84635047Y-43267820D01*
X84635051Y-43267816D01*
X84639514Y-43259054D01*
X84687488Y-43208259D01*
X84755308Y-43191463D01*
X84821444Y-43213999D01*
X84860486Y-43259056D01*
X84864951Y-43267820D01*
X84989890Y-43439786D01*
X85140213Y-43590109D01*
X85312179Y-43715048D01*
X85312181Y-43715049D01*
X85312184Y-43715051D01*
X85501588Y-43811557D01*
X85703757Y-43877246D01*
X85913713Y-43910500D01*
X85913714Y-43910500D01*
X86126286Y-43910500D01*
X86126287Y-43910500D01*
X86336243Y-43877246D01*
X86538412Y-43811557D01*
X86727816Y-43715051D01*
X86749789Y-43699086D01*
X86899786Y-43590109D01*
X86899788Y-43590106D01*
X86899792Y-43590104D01*
X87050104Y-43439792D01*
X87050106Y-43439788D01*
X87050109Y-43439786D01*
X87175048Y-43267820D01*
X87175047Y-43267820D01*
X87175051Y-43267816D01*
X87271557Y-43078412D01*
X87337246Y-42876243D01*
X87370500Y-42666287D01*
X87370500Y-42453713D01*
X87337246Y-42243757D01*
X87271557Y-42041588D01*
X87175051Y-41852184D01*
X87175049Y-41852181D01*
X87175048Y-41852179D01*
X87050109Y-41680213D01*
X86899786Y-41529890D01*
X86727820Y-41404951D01*
X86538414Y-41308444D01*
X86538413Y-41308443D01*
X86538412Y-41308443D01*
X86336243Y-41242754D01*
X86336241Y-41242753D01*
X86336240Y-41242753D01*
X86174957Y-41217208D01*
X86126287Y-41209500D01*
X85913713Y-41209500D01*
X85865042Y-41217208D01*
X85703760Y-41242753D01*
X85501585Y-41308444D01*
X85312179Y-41404951D01*
X85140213Y-41529890D01*
X84989890Y-41680213D01*
X84864949Y-41852182D01*
X84860484Y-41860946D01*
X84812509Y-41911742D01*
X84744688Y-41928536D01*
X84678553Y-41905998D01*
X84639516Y-41860946D01*
X84635050Y-41852182D01*
X84510109Y-41680213D01*
X84359786Y-41529890D01*
X84187820Y-41404951D01*
X83998414Y-41308444D01*
X83998413Y-41308443D01*
X83998412Y-41308443D01*
X83796243Y-41242754D01*
X83796241Y-41242753D01*
X83796240Y-41242753D01*
X83634957Y-41217208D01*
X83586287Y-41209500D01*
X83373713Y-41209500D01*
X83325042Y-41217208D01*
X83163760Y-41242753D01*
X82961585Y-41308444D01*
X82772179Y-41404951D01*
X82600215Y-41529889D01*
X82486673Y-41643431D01*
X82425350Y-41676915D01*
X82355658Y-41671931D01*
X82299725Y-41630059D01*
X82282810Y-41599082D01*
X82233797Y-41467671D01*
X82233793Y-41467664D01*
X82147547Y-41352455D01*
X82147544Y-41352452D01*
X82032335Y-41266206D01*
X82032328Y-41266202D01*
X81897482Y-41215908D01*
X81897483Y-41215908D01*
X81837883Y-41209501D01*
X81837881Y-41209500D01*
X81837873Y-41209500D01*
X81837864Y-41209500D01*
X80042129Y-41209500D01*
X80042123Y-41209501D01*
X79982516Y-41215908D01*
X79847671Y-41266202D01*
X79847664Y-41266206D01*
X79732455Y-41352452D01*
X79732452Y-41352455D01*
X79646206Y-41467664D01*
X79646202Y-41467671D01*
X79595908Y-41602517D01*
X79589501Y-41662116D01*
X79589500Y-41662135D01*
X72210432Y-41662135D01*
X72182769Y-41416620D01*
X72182766Y-41416602D01*
X72156715Y-41302466D01*
X72107776Y-41088046D01*
X71996469Y-40769949D01*
X71850246Y-40466314D01*
X71670946Y-40180961D01*
X71460825Y-39917477D01*
X71222523Y-39679175D01*
X70959039Y-39469054D01*
X70673686Y-39289754D01*
X70673683Y-39289752D01*
X70370054Y-39143532D01*
X70051965Y-39032227D01*
X70051953Y-39032223D01*
X69723397Y-38957233D01*
X69723381Y-38957231D01*
X69388508Y-38919500D01*
X69388504Y-38919500D01*
X69051496Y-38919500D01*
X69051491Y-38919500D01*
X68716618Y-38957231D01*
X68716602Y-38957233D01*
X68388046Y-39032223D01*
X68388034Y-39032227D01*
X68069945Y-39143532D01*
X67766316Y-39289752D01*
X67480962Y-39469053D01*
X67217477Y-39679174D01*
X66979174Y-39917477D01*
X66769053Y-40180962D01*
X66589752Y-40466316D01*
X66443532Y-40769945D01*
X66332227Y-41088034D01*
X66332223Y-41088046D01*
X66257233Y-41416602D01*
X66257231Y-41416618D01*
X66219500Y-41751491D01*
X64920500Y-41751491D01*
X64920500Y-37784500D01*
X64940185Y-37717461D01*
X64992989Y-37671706D01*
X65044500Y-37660500D01*
X155565500Y-37660500D01*
X155632539Y-37680185D01*
G37*
%TD.AperFunction*%
%TD*%
D33*
X86265000Y-76715000D03*
X116090000Y-57290000D03*
X94850000Y-93350000D03*
X87970000Y-78040000D03*
X141160000Y-84260000D03*
X143940000Y-88780000D03*
X130650000Y-52310000D03*
X97315000Y-71415000D03*
X78730000Y-70340000D03*
X143990000Y-55070000D03*
X82770000Y-50880000D03*
X97315000Y-75215000D03*
X113480000Y-55597500D03*
X141220000Y-89310000D03*
X86265000Y-73315000D03*
X114750000Y-62210000D03*
X104530000Y-91540000D03*
X99215000Y-75215000D03*
X86265000Y-78040000D03*
X102962500Y-88440000D03*
X91615000Y-73315000D03*
X110940000Y-60547500D03*
X80380000Y-68420000D03*
X116020000Y-53860000D03*
X91615000Y-75215000D03*
X113140000Y-52200000D03*
X145550000Y-53282500D03*
X143930000Y-56397500D03*
X118560000Y-60547500D03*
X91615000Y-69515000D03*
X90205000Y-85070000D03*
X98700000Y-93390000D03*
X102932500Y-91610000D03*
X70370000Y-71470000D03*
X97315000Y-69515000D03*
X99215000Y-77115000D03*
X132040000Y-52305000D03*
X113490000Y-53960000D03*
X106860000Y-70160000D03*
X102950000Y-90030000D03*
X99215000Y-71415000D03*
X97315000Y-77115000D03*
X146290000Y-55180000D03*
X116020000Y-55597500D03*
X138230000Y-52260000D03*
X93515000Y-77115000D03*
X132550000Y-88830000D03*
X109960000Y-60580000D03*
X139970000Y-56600000D03*
X109240000Y-70140000D03*
X144010000Y-53350000D03*
X95415000Y-75215000D03*
X82720000Y-49460000D03*
X114750000Y-60547500D03*
X84760000Y-78080000D03*
X93210000Y-80360000D03*
X116715000Y-70280000D03*
X140050000Y-58060000D03*
X117250000Y-53830000D03*
X96050000Y-81997500D03*
X132540000Y-85650000D03*
X96830000Y-94850000D03*
X93515000Y-69515000D03*
X93262500Y-81930000D03*
X95415000Y-77115000D03*
X104620000Y-88300000D03*
X93515000Y-73315000D03*
X70390000Y-74440000D03*
X83050000Y-73490000D03*
X108047500Y-70170000D03*
X102830000Y-86690000D03*
X114272500Y-52190000D03*
X117290000Y-55597500D03*
X96730000Y-93360000D03*
X133410000Y-52240000D03*
X136810000Y-52230000D03*
X117860000Y-70320000D03*
X91615000Y-77115000D03*
X115460000Y-52210000D03*
X138250000Y-51150000D03*
X95415000Y-69515000D03*
X82700000Y-48050000D03*
X93515000Y-75215000D03*
X95950000Y-80610000D03*
X69075000Y-73025000D03*
X112210000Y-55597500D03*
X95415000Y-71415000D03*
X99215000Y-69515000D03*
X80510000Y-70380000D03*
X97610000Y-81997500D03*
X83920000Y-49440000D03*
X70340000Y-72967349D03*
X119680000Y-60630000D03*
X115590000Y-70290000D03*
X147840000Y-80110000D03*
X95415000Y-73315000D03*
X93515000Y-71415000D03*
X114750000Y-58940000D03*
X91615000Y-71415000D03*
X99215000Y-73315000D03*
X147840000Y-62610000D03*
X97315000Y-73315000D03*
X113760000Y-64850000D03*
X133140000Y-56650000D03*
X123350000Y-61210000D03*
X136845000Y-56600000D03*
X145300000Y-62610000D03*
X118360000Y-50510000D03*
X96730000Y-88760000D03*
X96190000Y-85122500D03*
X107930000Y-50530000D03*
X105040000Y-53290000D03*
X133480000Y-54110000D03*
X137120000Y-54130000D03*
X122080000Y-50360000D03*
X126240000Y-85240000D03*
X127860000Y-77170000D03*
X134570000Y-83720000D03*
X140090000Y-64770000D03*
X136210000Y-82810000D03*
X141490000Y-62610000D03*
X137210000Y-87240000D03*
X142760000Y-62610000D03*
X126820000Y-76160000D03*
X125345000Y-84115000D03*
X123455000Y-46232500D03*
X118375000Y-46232500D03*
X113295000Y-46232500D03*
X107260000Y-80050000D03*
X107260000Y-73550000D03*
X111760000Y-80050000D03*
X111760000Y-73550000D03*
X151100000Y-41920000D03*
X113670000Y-92600000D03*
X111130000Y-92600000D03*
X138720000Y-43945000D03*
X132940000Y-43945000D03*
D34*
X140150000Y-44445000D03*
D35*
X140150000Y-40265000D03*
D34*
X131510000Y-44445000D03*
D35*
X131510000Y-40265000D03*
D33*
X144500000Y-93960000D03*
X142000000Y-93960000D03*
X139500000Y-93960000D03*
X137000000Y-93960000D03*
X134500000Y-93960000D03*
X132000000Y-93960000D03*
X139860000Y-88370000D03*
X69220000Y-41920000D03*
X83600000Y-86730000D03*
X83600000Y-90230000D03*
X125120000Y-90070000D03*
X123120000Y-90070000D03*
X121120000Y-90070000D03*
X151100000Y-92290000D03*
X106965000Y-46232500D03*
X101885000Y-46232500D03*
X96805000Y-46232500D03*
X72260000Y-68660000D03*
X72260000Y-65160000D03*
X116010000Y-80120000D03*
X116010000Y-73620000D03*
X120510000Y-80120000D03*
X120510000Y-73620000D03*
X79910000Y-60880000D03*
X79910000Y-53260000D03*
X73382500Y-49330000D03*
X73382500Y-54410000D03*
X80940000Y-42560000D03*
X83480000Y-42560000D03*
X86020000Y-42560000D03*
D36*
X140820000Y-68460000D03*
X139420000Y-68460000D03*
X141520000Y-69160000D03*
X140120000Y-69160000D03*
X138720000Y-69160000D03*
X140820000Y-69860000D03*
X139420000Y-69860000D03*
X141520000Y-70560000D03*
X140120000Y-70560000D03*
X138720000Y-70560000D03*
X140820000Y-71260000D03*
X139420000Y-71260000D03*
D33*
X99820000Y-57090000D03*
X83160000Y-54550000D03*
X83160000Y-57090000D03*
X83160000Y-59630000D03*
X69220000Y-92290000D03*
M02*
