%TF.GenerationSoftware,KiCad,Pcbnew,9.0.6*%
%TF.CreationDate,2026-06-29T12:17:45+05:30*%
%TF.ProjectId,wled,776c6564-2e6b-4696-9361-645f70636258,rev?*%
%TF.SameCoordinates,Original*%
%TF.FileFunction,Profile,NP*%
%FSLAX46Y46*%
G04 Gerber Fmt 4.6, Leading zero omitted, Abs format (unit mm)*
G04 Created by KiCad (PCBNEW 9.0.6) date 2026-06-29 12:17:45*
%MOMM*%
%LPD*%
G01*
G04 APERTURE LIST*
%TA.AperFunction,Profile*%
%ADD10C,0.100000*%
%TD*%
%ADD11C,0.100000*%
%ADD12C,0.350000*%
%ADD13O,0.600000X1.700000*%
%ADD14O,0.600000X1.400000*%
%ADD15C,0.200000*%
G04 APERTURE END LIST*
D10*
X127340000Y-48600000D02*
X126420000Y-49530000D01*
X127359006Y-38330000D02*
X127340000Y-48600000D01*
X126880000Y-49940000D02*
X127979962Y-48819284D01*
X127979962Y-48819284D02*
X127990000Y-38330000D01*
X126414503Y-49530000D02*
X126880000Y-49940000D01*
D11*
X85990000Y-92540000D02*
X85990000Y-92540000D01*
D10*
X64920000Y-37660000D02*
X155690000Y-37660000D01*
X155690000Y-96310000D01*
X64920000Y-96310000D01*
X64920000Y-37660000D01*
X127990000Y-38330000D02*
X127359006Y-38330000D01*
D12*
X123455000Y-46232500D03*
X118375000Y-46232500D03*
X113295000Y-46232500D03*
X107260000Y-80050000D03*
X107260000Y-73550000D03*
X111760000Y-80050000D03*
X111760000Y-73550000D03*
X151100000Y-41920000D03*
X113670000Y-92600000D03*
X111130000Y-92600000D03*
X138720000Y-43945000D03*
X132940000Y-43945000D03*
D13*
X140150000Y-44445000D03*
D14*
X140150000Y-40265000D03*
D13*
X131510000Y-44445000D03*
D14*
X131510000Y-40265000D03*
D12*
X144500000Y-93960000D03*
X142000000Y-93960000D03*
X139500000Y-93960000D03*
X137000000Y-93960000D03*
X134500000Y-93960000D03*
X132000000Y-93960000D03*
X139860000Y-88370000D03*
X69220000Y-41920000D03*
X83600000Y-86730000D03*
X83600000Y-90230000D03*
X125120000Y-90070000D03*
X123120000Y-90070000D03*
X121120000Y-90070000D03*
X151100000Y-92290000D03*
X106965000Y-46232500D03*
X101885000Y-46232500D03*
X96805000Y-46232500D03*
X72260000Y-68660000D03*
X72260000Y-65160000D03*
X116010000Y-80120000D03*
X116010000Y-73620000D03*
X120510000Y-80120000D03*
X120510000Y-73620000D03*
X79910000Y-60880000D03*
X79910000Y-53260000D03*
X73382500Y-49330000D03*
X73382500Y-54410000D03*
X80940000Y-42560000D03*
X83480000Y-42560000D03*
X86020000Y-42560000D03*
D15*
X140820000Y-68460000D03*
X139420000Y-68460000D03*
X141520000Y-69160000D03*
X140120000Y-69160000D03*
X138720000Y-69160000D03*
X140820000Y-69860000D03*
X139420000Y-69860000D03*
X141520000Y-70560000D03*
X140120000Y-70560000D03*
X138720000Y-70560000D03*
X140820000Y-71260000D03*
X139420000Y-71260000D03*
D12*
X99820000Y-57090000D03*
X83160000Y-54550000D03*
X83160000Y-57090000D03*
X83160000Y-59630000D03*
X69220000Y-92290000D03*
M02*
