M48
; DRILL file {KiCad 9.0.6} date 2026-06-29T12:17:44+0530
; FORMAT={-:-/ absolute / metric / decimal}
; #@! TF.CreationDate,2026-06-29T12:17:44+05:30
; #@! TF.GenerationSoftware,Kicad,Pcbnew,9.0.6
; #@! TF.FileFunction,Plated,1,2,PTH
FMAT,2
METRIC
; #@! TA.AperFunction,Plated,PTH,ComponentDrill
T1C0.200
; #@! TA.AperFunction,Plated,PTH,ViaDrill
T2C0.400
; #@! TA.AperFunction,Plated,PTH,ComponentDrill
T3C0.600
; #@! TA.AperFunction,Plated,PTH,ComponentDrill
T4C0.700
; #@! TA.AperFunction,Plated,PTH,ComponentDrill
T5C0.800
; #@! TA.AperFunction,Plated,PTH,ComponentDrill
T6C0.950
; #@! TA.AperFunction,Plated,PTH,ComponentDrill
T7C1.000
; #@! TA.AperFunction,Plated,PTH,ComponentDrill
T8C1.100
; #@! TA.AperFunction,Plated,PTH,ComponentDrill
T9C1.200
; #@! TA.AperFunction,Plated,PTH,ComponentDrill
T10C2.500
%
G90
G05
T1
X138.72Y-69.16
X138.72Y-70.56
X139.42Y-68.46
X139.42Y-69.86
X139.42Y-71.26
X140.12Y-69.16
X140.12Y-70.56
X140.82Y-68.46
X140.82Y-69.86
X140.82Y-71.26
X141.52Y-69.16
X141.52Y-70.56
T2
X69.075Y-73.025
X70.34Y-72.967
X70.37Y-71.47
X70.39Y-74.44
X78.73Y-70.34
X80.38Y-68.42
X80.51Y-70.38
X82.7Y-48.05
X82.72Y-49.46
X82.77Y-50.88
X83.05Y-73.49
X83.92Y-49.44
X84.76Y-78.08
X86.265Y-73.315
X86.265Y-76.715
X86.265Y-78.04
X87.97Y-78.04
X90.205Y-85.07
X91.615Y-69.515
X91.615Y-71.415
X91.615Y-73.315
X91.615Y-75.215
X91.615Y-77.115
X93.21Y-80.36
X93.263Y-81.93
X93.515Y-69.515
X93.515Y-71.415
X93.515Y-73.315
X93.515Y-75.215
X93.515Y-77.115
X94.85Y-93.35
X95.415Y-69.515
X95.415Y-71.415
X95.415Y-73.315
X95.415Y-75.215
X95.415Y-77.115
X95.95Y-80.61
X96.05Y-81.998
X96.19Y-85.123
X96.73Y-88.76
X96.73Y-93.36
X96.83Y-94.85
X97.315Y-69.515
X97.315Y-71.415
X97.315Y-73.315
X97.315Y-75.215
X97.315Y-77.115
X97.61Y-81.998
X98.7Y-93.39
X99.215Y-69.515
X99.215Y-71.415
X99.215Y-73.315
X99.215Y-75.215
X99.215Y-77.115
X102.83Y-86.69
X102.932Y-91.61
X102.95Y-90.03
X102.962Y-88.44
X104.53Y-91.54
X104.62Y-88.3
X105.04Y-53.29
X106.86Y-70.16
X107.93Y-50.53
X108.047Y-70.17
X109.24Y-70.14
X109.96Y-60.58
X110.94Y-60.547
X112.21Y-55.597
X113.14Y-52.2
X113.48Y-55.597
X113.49Y-53.96
X113.76Y-64.85
X114.272Y-52.19
X114.75Y-58.94
X114.75Y-60.547
X114.75Y-62.21
X115.46Y-52.21
X115.59Y-70.29
X116.02Y-53.86
X116.02Y-55.597
X116.09Y-57.29
X116.715Y-70.28
X117.25Y-53.83
X117.29Y-55.597
X117.86Y-70.32
X118.36Y-50.51
X118.56Y-60.547
X119.68Y-60.63
X122.08Y-50.36
X123.35Y-61.21
X125.345Y-84.115
X126.24Y-85.24
X126.82Y-76.16
X127.86Y-77.17
X130.65Y-52.31
X132.04Y-52.305
X132.54Y-85.65
X132.55Y-88.83
X133.14Y-56.65
X133.41Y-52.24
X133.48Y-54.11
X134.57Y-83.72
X136.21Y-82.81
X136.81Y-52.23
X136.845Y-56.6
X137.12Y-54.13
X137.21Y-87.24
X138.23Y-52.26
X138.25Y-51.15
X139.97Y-56.6
X140.05Y-58.06
X140.09Y-64.77
X141.16Y-84.26
X141.22Y-89.31
X141.49Y-62.61
X142.76Y-62.61
X143.93Y-56.398
X143.94Y-88.78
X143.99Y-55.07
X144.01Y-53.35
X145.3Y-62.61
X145.55Y-53.282
X146.29Y-55.18
X147.84Y-62.61
X147.84Y-80.11
T4
X121.12Y-90.07
X123.12Y-90.07
X125.12Y-90.07
T5
X72.26Y-65.16
X72.26Y-68.66
X79.91Y-53.26
X79.91Y-60.88
X83.6Y-86.73
X83.6Y-90.23
T6
X132.0Y-93.96
X134.5Y-93.96
X137.0Y-93.96
X139.5Y-93.96
X142.0Y-93.96
X144.5Y-93.96
T7
X80.94Y-42.56
X83.48Y-42.56
X86.02Y-42.56
T8
X83.16Y-54.55
X83.16Y-57.09
X83.16Y-59.63
X107.26Y-73.55
X107.26Y-80.05
X111.76Y-73.55
X111.76Y-80.05
X116.01Y-73.62
X116.01Y-80.12
X120.51Y-73.62
X120.51Y-80.12
T9
X73.382Y-49.33
X73.382Y-54.41
X96.805Y-46.232
X101.885Y-46.232
X106.965Y-46.232
X111.13Y-92.6
X113.295Y-46.232
X113.67Y-92.6
X118.375Y-46.232
X123.455Y-46.232
T10
X69.22Y-41.92
X69.22Y-92.29
X151.1Y-41.92
X151.1Y-92.29
T3
G00X131.51Y-40.665
M15
G01X131.51Y-39.865
M16
G05
G00X131.51Y-44.995
M15
G01X131.51Y-43.895
M16
G05
G00X140.15Y-40.665
M15
G01X140.15Y-39.865
M16
G05
G00X140.15Y-44.995
M15
G01X140.15Y-43.895
M16
G05
M30
