%TF.GenerationSoftware,KiCad,Pcbnew,9.0.6*%
%TF.CreationDate,2026-06-29T12:17:45+05:30*%
%TF.ProjectId,wled,776c6564-2e6b-4696-9361-645f70636258,rev?*%
%TF.SameCoordinates,Original*%
%TF.FileFunction,Soldermask,Bot*%
%TF.FilePolarity,Negative*%
%FSLAX46Y46*%
G04 Gerber Fmt 4.6, Leading zero omitted, Abs format (unit mm)*
G04 Created by KiCad (PCBNEW 9.0.6) date 2026-06-29 12:17:45*
%MOMM*%
%LPD*%
G01*
G04 APERTURE LIST*
G04 Aperture macros list*
%AMRoundRect*
0 Rectangle with rounded corners*
0 $1 Rounding radius*
0 $2 $3 $4 $5 $6 $7 $8 $9 X,Y pos of 4 corners*
0 Add a 4 corners polygon primitive as box body*
4,1,4,$2,$3,$4,$5,$6,$7,$8,$9,$2,$3,0*
0 Add four circle primitives for the rounded corners*
1,1,$1+$1,$2,$3*
1,1,$1+$1,$4,$5*
1,1,$1+$1,$6,$7*
1,1,$1+$1,$8,$9*
0 Add four rect primitives between the rounded corners*
20,1,$1+$1,$2,$3,$4,$5,0*
20,1,$1+$1,$4,$5,$6,$7,0*
20,1,$1+$1,$6,$7,$8,$9,0*
20,1,$1+$1,$8,$9,$2,$3,0*%
G04 Aperture macros list end*
%ADD10RoundRect,0.250000X0.650000X1.550000X-0.650000X1.550000X-0.650000X-1.550000X0.650000X-1.550000X0*%
%ADD11O,1.800000X3.600000*%
%ADD12C,2.000000*%
%ADD13C,5.000000*%
%ADD14RoundRect,0.250000X0.750000X0.750000X-0.750000X0.750000X-0.750000X-0.750000X0.750000X-0.750000X0*%
%ADD15C,0.650000*%
%ADD16O,1.000000X2.100000*%
%ADD17O,1.000000X1.800000*%
%ADD18RoundRect,0.250000X0.600000X0.725000X-0.600000X0.725000X-0.600000X-0.725000X0.600000X-0.725000X0*%
%ADD19O,1.700000X1.950000*%
%ADD20C,0.750000*%
%ADD21RoundRect,0.250000X-0.550000X0.550000X-0.550000X-0.550000X0.550000X-0.550000X0.550000X0.550000X0*%
%ADD22C,1.600000*%
%ADD23RoundRect,0.250000X0.550000X-0.550000X0.550000X0.550000X-0.550000X0.550000X-0.550000X-0.550000X0*%
%ADD24R,1.600000X1.600000*%
%ADD25O,1.600000X1.600000*%
%ADD26RoundRect,0.250000X-1.550000X0.650000X-1.550000X-0.650000X1.550000X-0.650000X1.550000X0.650000X0*%
%ADD27O,3.600000X1.800000*%
%ADD28R,1.700000X1.700000*%
%ADD29C,1.700000*%
%ADD30O,3.500000X3.500000*%
%ADD31R,2.000000X1.905000*%
%ADD32O,2.000000X1.905000*%
%ADD33C,0.350000*%
%ADD34O,0.600000X1.700000*%
%ADD35O,0.600000X1.400000*%
%ADD36C,0.200000*%
G04 APERTURE END LIST*
D10*
%TO.C,GPIO21/GPIO2*%
X123455000Y-46232500D03*
D11*
X118375000Y-46232500D03*
X113295000Y-46232500D03*
%TD*%
D12*
%TO.C,SW1*%
X107260000Y-80050000D03*
X107260000Y-73550000D03*
X111760000Y-80050000D03*
X111760000Y-73550000D03*
%TD*%
D13*
%TO.C,H1*%
X151100000Y-41920000D03*
%TD*%
D14*
%TO.C,J2*%
X113670000Y-92600000D03*
D12*
X111130000Y-92600000D03*
%TD*%
D15*
%TO.C,J4*%
X138720000Y-43945000D03*
X132940000Y-43945000D03*
D16*
X140150000Y-44445000D03*
D17*
X140150000Y-40265000D03*
D16*
X131510000Y-44445000D03*
D17*
X131510000Y-40265000D03*
%TD*%
D18*
%TO.C,MIC1*%
X144500000Y-93960000D03*
D19*
X142000000Y-93960000D03*
X139500000Y-93960000D03*
X137000000Y-93960000D03*
X134500000Y-93960000D03*
X132000000Y-93960000D03*
%TD*%
D20*
%TO.C,MK1*%
X139860000Y-88370000D03*
%TD*%
D13*
%TO.C,H4*%
X69220000Y-41920000D03*
%TD*%
D21*
%TO.C,C9*%
X83600000Y-86730000D03*
D22*
X83600000Y-90230000D03*
%TD*%
%TO.C,J3*%
X125120000Y-90070000D03*
X123120000Y-90070000D03*
X121120000Y-90070000D03*
%TD*%
D13*
%TO.C,H2*%
X151100000Y-92290000D03*
%TD*%
D10*
%TO.C,GPIO2/GPIO3*%
X106965000Y-46232500D03*
D11*
X101885000Y-46232500D03*
X96805000Y-46232500D03*
%TD*%
D23*
%TO.C,C5*%
X72260000Y-68660000D03*
D22*
X72260000Y-65160000D03*
%TD*%
D12*
%TO.C,SW2*%
X116010000Y-80120000D03*
X116010000Y-73620000D03*
X120510000Y-80120000D03*
X120510000Y-73620000D03*
%TD*%
D24*
%TO.C,DZ2*%
X79910000Y-60880000D03*
D25*
X79910000Y-53260000D03*
%TD*%
D26*
%TO.C,J1*%
X73382500Y-49330000D03*
D27*
X73382500Y-54410000D03*
%TD*%
D28*
%TO.C,PwrSelector1*%
X80940000Y-42560000D03*
D29*
X83480000Y-42560000D03*
X86020000Y-42560000D03*
%TD*%
D30*
%TO.C,Q2*%
X99820000Y-57090000D03*
D31*
X83160000Y-54550000D03*
D32*
X83160000Y-57090000D03*
X83160000Y-59630000D03*
%TD*%
D13*
%TO.C,H3*%
X69220000Y-92290000D03*
%TD*%
D33*
X123455000Y-46232500D03*
X118375000Y-46232500D03*
X113295000Y-46232500D03*
X107260000Y-80050000D03*
X107260000Y-73550000D03*
X111760000Y-80050000D03*
X111760000Y-73550000D03*
X151100000Y-41920000D03*
X113670000Y-92600000D03*
X111130000Y-92600000D03*
X138720000Y-43945000D03*
X132940000Y-43945000D03*
D34*
X140150000Y-44445000D03*
D35*
X140150000Y-40265000D03*
D34*
X131510000Y-44445000D03*
D35*
X131510000Y-40265000D03*
D33*
X144500000Y-93960000D03*
X142000000Y-93960000D03*
X139500000Y-93960000D03*
X137000000Y-93960000D03*
X134500000Y-93960000D03*
X132000000Y-93960000D03*
X139860000Y-88370000D03*
X69220000Y-41920000D03*
X83600000Y-86730000D03*
X83600000Y-90230000D03*
X125120000Y-90070000D03*
X123120000Y-90070000D03*
X121120000Y-90070000D03*
X151100000Y-92290000D03*
X106965000Y-46232500D03*
X101885000Y-46232500D03*
X96805000Y-46232500D03*
X72260000Y-68660000D03*
X72260000Y-65160000D03*
X116010000Y-80120000D03*
X116010000Y-73620000D03*
X120510000Y-80120000D03*
X120510000Y-73620000D03*
X79910000Y-60880000D03*
X79910000Y-53260000D03*
X73382500Y-49330000D03*
X73382500Y-54410000D03*
X80940000Y-42560000D03*
X83480000Y-42560000D03*
X86020000Y-42560000D03*
D36*
X140820000Y-68460000D03*
X139420000Y-68460000D03*
X141520000Y-69160000D03*
X140120000Y-69160000D03*
X138720000Y-69160000D03*
X140820000Y-69860000D03*
X139420000Y-69860000D03*
X141520000Y-70560000D03*
X140120000Y-70560000D03*
X138720000Y-70560000D03*
X140820000Y-71260000D03*
X139420000Y-71260000D03*
D33*
X99820000Y-57090000D03*
X83160000Y-54550000D03*
X83160000Y-57090000D03*
X83160000Y-59630000D03*
X69220000Y-92290000D03*
M02*
