M48
METRIC,TZ
T1C0.200
T2C0.400
T3C0.600
T4C0.700
T5C0.800
T6C0.950
T7C1.000
T8C1.100
T9C1.200
T10C2.500
%
G90
G05
T1
X138720Y-69160
X138720Y-70560
X139420Y-68460
X139420Y-69860
X139420Y-71260
X140120Y-69160
X140120Y-70560
X140820Y-68460
X140820Y-69860
X140820Y-71260
X141520Y-69160
X141520Y-70560
T2
X69075Y-73025
X70340Y-72967
X70370Y-71470
X70390Y-74440
X78730Y-70340
X80380Y-68420
X80510Y-70380
X82700Y-48050
X82720Y-49460
X82770Y-50880
X83050Y-73490
X83920Y-49440
X84760Y-78080
X86265Y-73315
X86265Y-76715
X86265Y-78040
X87970Y-78040
X90205Y-85070
X91615Y-69515
X91615Y-71415
X91615Y-73315
X91615Y-75215
X91615Y-77115
X93210Y-80360
X93263Y-81930
X93515Y-69515
X93515Y-71415
X93515Y-73315
X93515Y-75215
X93515Y-77115
X94850Y-93350
X95415Y-69515
X95415Y-71415
X95415Y-73315
X95415Y-75215
X95415Y-77115
X95950Y-80610
X96050Y-81998
X96190Y-85123
X96730Y-88760
X96730Y-93360
X96830Y-94850
X97315Y-69515
X97315Y-71415
X97315Y-73315
X97315Y-75215
X97315Y-77115
X97610Y-81998
X98700Y-93390
X99215Y-69515
X99215Y-71415
X99215Y-73315
X99215Y-75215
X99215Y-77115
X102830Y-86690
X102932Y-91610
X102950Y-90030
X102963Y-88440
X104530Y-91540
X104620Y-88300
X105040Y-53290
X106860Y-70160
X107930Y-50530
X108048Y-70170
X109240Y-70140
X109960Y-60580
X110940Y-60548
X112210Y-55597
X113140Y-52200
X113480Y-55597
X113490Y-53960
X113760Y-64850
X114273Y-52190
X114750Y-58940
X114750Y-60548
X114750Y-62210
X115460Y-52210
X115590Y-70290
X116020Y-53860
X116020Y-55597
X116090Y-57290
X116715Y-70280
X117250Y-53830
X117290Y-55597
X117860Y-70320
X118360Y-50510
X118560Y-60548
X119680Y-60630
X122080Y-50360
X123350Y-61210
X125345Y-84115
X126240Y-85240
X126820Y-76160
X127860Y-77170
X130650Y-52310
X132040Y-52305
X132540Y-85650
X132550Y-88830
X133140Y-56650
X133410Y-52240
X133480Y-54110
X134570Y-83720
X136210Y-82810
X136810Y-52230
X136845Y-56600
X137120Y-54130
X137210Y-87240
X138230Y-52260
X138250Y-51150
X139970Y-56600
X140050Y-58060
X140090Y-64770
X141160Y-84260
X141220Y-89310
X141490Y-62610
X142760Y-62610
X143930Y-56398
X143940Y-88780
X143990Y-55070
X144010Y-53350
X145300Y-62610
X145550Y-53283
X146290Y-55180
X147840Y-62610
X147840Y-80110
T4
X121120Y-90070
X123120Y-90070
X125120Y-90070
T5
X72260Y-65160
X72260Y-68660
X79910Y-53260
X79910Y-60880
X83600Y-86730
X83600Y-90230
T6
X132000Y-93960
X134500Y-93960
X137000Y-93960
X139500Y-93960
X142000Y-93960
X144500Y-93960
T7
X80940Y-42560
X83480Y-42560
X86020Y-42560
T8
X83160Y-54550
X83160Y-57090
X83160Y-59630
X107260Y-73550
X107260Y-80050
X111760Y-73550
X111760Y-80050
X116010Y-73620
X116010Y-80120
X120510Y-73620
X120510Y-80120
T9
X73382Y-49330
X73382Y-54410
X96805Y-46232
X101885Y-46232
X106965Y-46232
X111130Y-92600
X113295Y-46232
X113670Y-92600
X118375Y-46232
X123455Y-46232
T10
X69220Y-41920
X69220Y-92290
X151100Y-41920
X151100Y-92290
T3
G00X131510Y-40665
M15
G01X131510Y-39865
M16
G05
G00X131510Y-44995
M15
G01X131510Y-43895
M16
G05
G00X140150Y-40665
M15
G01X140150Y-39865
M16
G05
G00X140150Y-44995
M15
G01X140150Y-43895
M16
G05
M30
